<svg id="Capa_1" data-name="Capa 1" xmlns="http://www.w3.org/2000/svg" viewBox="0 0 300 194.4"><defs><style>.cls-1{fill:#fff;stroke:#fff;stroke-miterlimit:10;stroke-width:0.34px;fill-rule:evenodd;}.cls-2{fill:#919191;}</style></defs><g id="svgg"><path id="path0" class="cls-1" d="M254.88,72.2A24.72,24.72,0,0,0,244.08,76a4.08,4.08,0,0,1-.82.5.1.1,0,0,0-.11.09,1.29,1.29,0,0,1-.41.36c-.22.15-.46.33-.53.39l-.8.69a27.46,27.46,0,0,0-3.51,3.72,3.09,3.09,0,0,1-.47.54.15.15,0,0,0-.08.14,3.13,3.13,0,0,1-.38.63,23.56,23.56,0,0,0-2.07,3.74,3.93,3.93,0,0,0-.23.59,5.49,5.49,0,0,1-.21.53,18.07,18.07,0,0,0-.9,2.77c-.06.21-.16.59-.22.84a28.07,28.07,0,0,0,0,11.22,17.85,17.85,0,0,0,.69,2.45,25.37,25.37,0,0,0,7.53,11.12,4.93,4.93,0,0,1,.56.51,31.63,31.63,0,0,0,5.75,3.39l.67.28c.31.14,1.8.62,2.37.77a19.53,19.53,0,0,0,2.32.51,21.85,21.85,0,0,0,8.26,0,25.36,25.36,0,0,0,4-1,29.8,29.8,0,0,0,4.83-2.36,12.76,12.76,0,0,0,1.22-.83.58.58,0,0,1,.25-.16.78.78,0,0,0,.3-.2l.95-.8a30.55,30.55,0,0,0,3.06-3.08c.25-.31.48-.58.51-.61s1.42-2,1.69-2.46a23.11,23.11,0,0,0,1.88-3.8.89.89,0,0,1,.11-.31,23,23,0,0,0,1.05-3.49,25,25,0,0,0-.16-11.83,21.91,21.91,0,0,0-.66-2.18L280.3,88a24.94,24.94,0,0,0-1.67-3.47,2.72,2.72,0,0,1-.3-.54c0-.62-4-5.22-5.55-6.37l-.48-.38c-.12-.13-2-1.45-2.06-1.45a3.74,3.74,0,0,1-.65-.37,22.56,22.56,0,0,0-3.13-1.53.39.39,0,0,1-.23-.07,14.53,14.53,0,0,0-3-1,25.53,25.53,0,0,0-8.38-.62m14.85,24.88c0,9.75,0,12.3-.11,12.37s-7.91.12-8.09,0-.15-1-.17-4l0-4-4.05,0-4,0,0,4,0,4-3.91,0c-2.15,0-4,0-4.16,0l-.26-.06,0-4.1,0-4.11,4.08,0,4.08-.06,0-4,0-4-4.05,0-4,0,0-4,0-4h8.15l0,4,0,4h8.15l0-4,0-4,4.16,0,4.15,0,0,12.27M101.17,95.33l0,16.72h7.37l.06-7.25.05-7.24.75-.68c2.73-2.49,6.28-1.86,7.28,1.29l.29.93v13h7.48v-6.79c0-9.1-.15-10.25-1.74-12.73-2.14-3.35-7.3-5.07-10.82-3.61a17.24,17.24,0,0,0-2.35,1.15,3.61,3.61,0,0,1-.8.42c-.11,0-.14-1.27-.14-6v-6h-7.49l0,16.73m69.71-6.71a10.2,10.2,0,0,0-4.06,1.64c-.64.48-.76.41-.81-.44l0-.55H158.6l0,11.42,0,11.42H166V97.65l.72-.69a7.43,7.43,0,0,1,1.17-.92l.64-.33a4.13,4.13,0,0,1,5.26,1.68c.58,1.17.58,1.22.58,8.2v6.52h7.49v-7c0-7.49-.07-8.55-.63-10.22a10.79,10.79,0,0,0-1-2.12A9.67,9.67,0,0,0,175.58,89a12.82,12.82,0,0,0-4.7-.39m-131.66.16a12.22,12.22,0,0,0-8.65,4.62c-2.56,3.09-3,8.87-1.06,12.83C33.38,114,45.25,115,50.29,107.9a10.89,10.89,0,0,0,1.7-4.09c.25-1.07.6-1-3.39-1-3.07,0-3.52,0-3.52.17s0,.26-.39.94c-1.52,2.92-6.17,3.08-8.19.3a5,5,0,0,1-1-2.63,8,8,0,0,1,.22-3.12c.06-.1.21-.43.36-.73,1.61-3.37,7.05-3.64,8.63-.44.11.24.25.51.3.62a.89.89,0,0,1,.1.36c0,.15.45.17,3.52.17h3.52v-.26a2.8,2.8,0,0,0-.1-.59c-.05-.18-.16-.6-.24-.93a9.9,9.9,0,0,0-2-3.9,11.29,11.29,0,0,0-7.65-4l-1.34-.11a14.12,14.12,0,0,0-1.56.06m44.56,0a10.62,10.62,0,0,0-3.91,1c-8.62,4-8.73,17.5-.17,21.52A12.47,12.47,0,0,0,84,112.55a13.83,13.83,0,0,0,6.07-.64,9.79,9.79,0,0,0,6.11-5.5,6.26,6.26,0,0,0,.36-1.21c0-.1-.92-.13-3.65-.13H89.25l-.43.45c-2.3,2.37-7.15,1-8.06-2.22-.13-.45,0-.46,8-.46,6.76,0,7.8,0,7.92-.17.36-.43.18-5-.23-5.75a1.3,1.3,0,0,1-.11-.49.5.5,0,0,0-.11-.35.36.36,0,0,1-.11-.27,5.61,5.61,0,0,0-.45-1.06,10.89,10.89,0,0,0-6.42-5.46,11.19,11.19,0,0,0-3.57-.57,13.38,13.38,0,0,0-1.9.1m54.44,0a13.16,13.16,0,0,0-1.56.26,8.77,8.77,0,0,0-2.69,1.2.4.4,0,0,1-.24.16c-.6,0-4.11,4-4.11,4.65a3.64,3.64,0,0,1-.26.66,9.39,9.39,0,0,0-.4,1.06c-.07.27-.18.65-.23.83-.46,1.58-.32,5.7.23,6.79a.85.85,0,0,1,.1.36,12.66,12.66,0,0,0,1.41,2.8,11.29,11.29,0,0,0,5.74,4.46l1.06.31c1.82.55,5.66,0,7.76-1.1.72-.38.9-.31.9.34v.51l3.65,0,3.66,0,0-11.17c0-6.14,0-11.28,0-11.42l-.06-.25-3.6,0-3.6,0,0,.48c0,.65-.17.66-1.32.1a12.23,12.23,0,0,0-1.5-.63L142.3,89a9.77,9.77,0,0,0-1.23-.17l-1.29-.1a10.79,10.79,0,0,0-1.56.1m57.62,0c-1.76.18-4.29,1.1-4.91,1.78,0,0-.26.21-.5.38-1,.73-3.41,3.65-3.41,4.15a3.34,3.34,0,0,1-.28.69,3.34,3.34,0,0,0-.28.75.85.85,0,0,1-.1.36,10,10,0,0,0-.49,3.77,11.09,11.09,0,0,0,.5,3.8,12.91,12.91,0,0,0,1.82,3.61,12.43,12.43,0,0,0,5.37,4l1.06.32a16.11,16.11,0,0,0,5.3-.12l1.11-.31c.13,0,.65-.28,1.18-.54,1-.52,1.11-.51,1.11.26v.48l3.65,0,3.66,0V89.27h-7.26l-.06.47c-.09.66-.08.66-1.18.14-.54-.26-1.14-.52-1.32-.58a9.76,9.76,0,0,0-2.35-.47l-1.29-.11a8.86,8.86,0,0,0-1.34.06M69.26,89a16.28,16.28,0,0,0-2.07.52A13.36,13.36,0,0,0,64.36,91c-.93.67-1,.64-1-.79v-1l-3.72,0-3.71,0,0,11.42,0,11.42H63.4v-6.47c0-7.34-.08-6.66.82-7.35A8.35,8.35,0,0,1,66.33,97l.56-.23a14.17,14.17,0,0,1,3.52-.72,3.56,3.56,0,0,0,.7-.12,28.86,28.86,0,0,0,.1-3.58V88.88h-.75a7.46,7.46,0,0,0-1.2.11M87,94.75a4,4,0,0,1,2.67,2.78c.32,1,.67,1-4.46,1-4.85,0-4.76,0-4.53-.59A4.79,4.79,0,0,1,87,94.75m55.39.22a6.21,6.21,0,0,1,2.82,1.46l.69.62v7.1l-.67.62a5.6,5.6,0,0,1-9.18-2C134.47,98.35,138,94,142.42,95m57.41,0a6.25,6.25,0,0,1,2.84,1.48l.66.6v7.08l-.38.4c-2.94,3.12-8.2,2.12-9.49-1.8-.41-1.24-.44-3.55-.06-4a.72.72,0,0,0,.11-.34,1.34,1.34,0,0,1,.22-.56,5.7,5.7,0,0,0,.29-.5,2.51,2.51,0,0,1,.34-.45,1.24,1.24,0,0,0,.26-.36,7.39,7.39,0,0,1,1.78-1.28,5.26,5.26,0,0,1,3.43-.31"/><rect class="cls-2" x="244.97" y="84.86" width="8.16" height="8.15"/></g></svg>