<svg id="Capa_1" data-name="Capa 1" xmlns="http://www.w3.org/2000/svg" viewBox="0 0 300 300"><defs><style>.cls-1{fill:#f9fbf6;stroke-width:1.5px;fill-rule:evenodd;}.cls-1,.cls-3{stroke:#fff;stroke-miterlimit:10;}.cls-2{fill:#fff;}.cls-3{fill:none;stroke-width:0.51px;}</style></defs><g id="svgg"><path id="path0" class="cls-1" d="M280.12,61.9c-11.65,3.19-16.55,6.74-17.87,12.94-.57,2.71-.52,91.24.06,92.25a39.6,39.6,0,0,0,4.54,4.11c4.06,3.34,6.18,5.1,12.95,10.7,3.87,3.19,4.19,3.26,5.4,1.09l.86-1.54.09-60.47c.09-57.59.06-60.48-.51-60.45-.34,0-2.82.63-5.52,1.37m-142,16.79c-.38.17-2.77.94-5.32,1.72-14,4.27-16.47,6.86-16.47,17.21,0,4,1.05,3.45-6.69,3.69l-6.52.19v13l1,1.77c2.09,3.77,5,5.57,9.49,5.92l2.57.21.21,23.84c.13,14.89.35,24.5.58,25.57,2.12,9.86,6.84,15.08,15.85,17.52,2.86.77,27.81,1.19,28.67.48s.71-11.95-.08-14.41c-1.49-4.58-5.09-6.8-11.34-7-9.3-.28-9.07.4-8.94-25.94l.1-20.07,9.34-.1,9.35-.09.21-.84c.65-2.58,0-12-1-14-2.25-4.58-4.73-5.88-11.56-6-2.74-.06-5.33-.18-5.75-.27l-.77-.17V90.2c0-12.76,0-12.78-2.92-11.51m64.17,20.8A41.29,41.29,0,0,0,178.91,111c-2.53,2.51-6.94,8-6.94,8.69a4.11,4.11,0,0,1-.63,1.15,60,60,0,0,0-3.63,8.29c-.13.47-.47,1.7-.75,2.74-5,18,1,38.14,14.44,48.54a48.38,48.38,0,0,0,47.48,6.31c6.46-2.55,6.24-2.19,5.21-8.7-2.3-14.53-2.31-14.58-3.07-14.58a17.52,17.52,0,0,0-3.75,2c-14.83,9.51-31.92,5.41-36.82-8.84-.93-2.71-.86-3.47.3-3.48H210.1c10.12,0,18.65-.09,19-.21.75-.28.72-1.87-.13-6.51-.66-3.66-.89-6.67-.49-6.67a31.71,31.71,0,0,1,4.61,3.45l6,5c6.25,5.2,5.83,5,8.1,5s2.53-.21,3.27-3.75c.8-3.82.53-7.49-1.12-15.13-4-18.47-14.89-30.29-31.52-34.21a100.66,100.66,0,0,0-15.44-.57M23.18,101.34a12.45,12.45,0,0,0-5.87,5.77l-.95,1.94-.09,27.1c-.1,28.72,0,30.93,1.71,35.15,2,4.88,3,6.79,5.08,9.25,11.64,13.9,34.79,12.66,46.24-2.48,1.49-2,1.79-1.15,1.79,4.74,0,6.23-.19,5.93,4.35,7.11,5.94,1.54,15.52,1,19-1.14l1-.62V100.27l-7.81.1-7.8.11-1.89,1a12.51,12.51,0,0,0-5.72,5.85l-1,2.1-.19,22.81c-.2,25.34-.1,24.26-2.63,28.9-5,9.24-21,9-25.85-.44-2-3.9-2.06-5-2.05-28.28,0-11.7-.08-23.71-.21-26.68l-.23-5.41H25.28l-2.1,1m189,17.87c6.79,1.43,11.72,6.89,13.85,15.35.87,3.45,2.61,3.14-18,3.14-20.84,0-19,.34-18.08-3.41,2.83-11,12-17.22,22.26-15.08m22,32.75c.27,2.24,1.39,9.27,1.91,12,.18,1,.8,4.73,1.38,8.41,2,13,3.08,19.41,3.41,21.1.18.95.58,3.34.88,5.32.77,5-.22,5.27,9.17-2.35,3.81-3.09,3.15-3.82,8.56,9.39.77,1.88,1.74,4.2,2.16,5.14s1,2.31,1.24,3c.79,2.21.92,2.2,5.35-.32,5.1-2.91,7-4.17,7-4.7,0-.38-3.32-5-7.94-11.05-6.33-8.27-6.25-8-2.78-9.42l3.34-1.37c.38-.16,2-.79,3.61-1.41,4.75-1.82,5.26-.8-4.29-8.64-3-2.48-6.81-5.61-8.41-7s-6.46-5.37-10.79-8.94-8.81-7.28-10-8.24-2.52-2-3.07-2.38l-1-.65.24,2M154.3,216.77c-4.71,2.1-4.2,6.66,1.14,10.2,4.25,2.81,5.08,4.36,3.33,6.25-1.14,1.23-3.51,1.25-5.62,0-1.82-1-1.65-1-1.87.07-.68,3.56,7.65,4.32,9.89.9,2-3,.7-6.17-3.81-9.12-3.3-2.15-4.2-3.28-3.75-4.69.54-1.72,3.46-2.37,5.67-1.27,1.48.74,1.6.72,1.79-.29.4-2.06-3.89-3.38-6.77-2.09M16.19,224.1v7.52l1,1.34c2,2.7,3.52,3.4,7.42,3.38,6.68-.05,8.07-2.24,8.07-12.69v-7.07l-1.12.11-1.11.11-.17,7c-.23,9.11-.88,10.27-5.84,10.27s-5.61-1.16-5.83-10.27l-.17-7-1.12-.11-1.11-.11v7.52m26.93-6.7c-.11.42-.15,4.78-.09,9.69l.09,8.92h2.06l.1-6.85c.12-9.35-.54-9.38,7.88.42,5.28,6.16,5.75,6.6,6.83,6.6h1.16l-.09-9.69L61,216.8H58.91l-.1,7.29a49.66,49.66,0,0,1-.36,7.29c-.54,0-1.43-1-6.91-7.38-6.84-8-7.88-8.82-8.42-6.6m28.73,8.9L72,236h2V216.8l-1.12-.11-1.12-.11.09,9.72m11.25-9.19a28.19,28.19,0,0,0,2,5.49c.35.77,1.51,3.49,2.57,6,3.8,9.07,3.3,9,6.89.35.89-2.17,2.3-5.54,3.13-7.48,1.8-4.24,1.87-4.87.53-4.87-1.06,0-.92-.25-4.54,8.38-2.64,6.31-2.29,6.43-5.83-1.93-2.59-6.1-2.7-6.29-3.73-6.39-.77-.08-1.06,0-1.06.42m25.2-.06c-.09.24-.12,4.61-.07,9.7l.09,9.26h11v-.86c0-.85,0-.85-4-1a27.42,27.42,0,0,1-4.16-.34,36.79,36.79,0,0,1-.29-5.75c0-.31,1-.43,3.57-.43,3.89,0,4.49-.2,4.32-1.41-.11-.79-.23-.82-3.89-1l-3.78-.17-.1-3c-.11-3.52-.4-3.31,4.73-3.44,3.23-.09,3.26-.1,3.26-.95v-.85l-5.24-.1c-4-.07-5.27,0-5.41.35m20.59,0c-.09.24-.13,4.6-.08,9.69l.1,9.26,1.11.11,1.12.11v-3.89c0-4.62.12-4.89,2-4.58s3.11,1.7,5.57,5.59c1.68,2.64,1.88,2.83,3,2.83,1.51,0,1.5-.47,0-2.74a14.88,14.88,0,0,1-1.2-2,19.63,19.63,0,0,0-1.54-2.2c-1.84-2.4-1.8-2.16-.53-3.6,2.74-3.13,1.41-8.07-2.38-8.83-2-.41-6.88-.27-7.06.21m42.55,0c-.09.24-.13,4.6-.08,9.69l.09,9.26,1,.12a1.47,1.47,0,0,0,1.28-.35c.32-.52.41-17.78.09-18.61-.25-.66-2.14-.74-2.38-.11m13.1.07c-.28.75-.29,16.57,0,18l.22,1.1,5.36-.11c5.18-.11,5.41-.15,7.18-1.13a10,10,0,0,0-.37-17.58c-1.69-.89-12.06-1.14-12.39-.29m31.17,2.11c-.66,1.44-1.19,2.68-1.19,2.75a16.46,16.46,0,0,1-.64,1.59c-1.44,3.25-2.45,5.67-2.45,5.84s-.54,1.36-1.2,2.79c-1.55,3.36-1.57,4-.11,3.91,1-.1,1.17-.31,2-2.47,1.43-3.49,1.14-3.33,5.91-3.22l4.16.09.51,1c.29.57.88,1.84,1.32,2.83.7,1.56.92,1.78,1.8,1.78,1.28,0,1.3-.67.11-3.33l-2.37-5.24c-.81-1.8-1.89-4.27-2.4-5.49-2.8-6.67-3.58-7.08-5.5-2.88m20.3-2.1c-.29.75-.29,16.57,0,18l.22,1.1,5.36-.12c5.92-.14,7.09-.49,9.47-2.88a9.89,9.89,0,0,0-2.36-15.51c-2.27-1.19-12.28-1.66-12.69-.59m-100.61,2c3.46,1.44,1.91,6-2,6-2.14,0-2.22-.13-2.22-3.39s1.2-3.92,4.26-2.64m60.87.78a7.63,7.63,0,0,1,.28,12.67c-1.7,1.15-7.22,2-8.94,1.3-.72-.28-.83-14.12-.11-14.86s6.89-.27,8.77.89m51.31-.11c4.58,2.68,4.85,9.86.48,12.76-2,1.31-7.29,2-8.86,1.17-1-.52-1-14.58-.06-14.87,1.69-.51,7,.08,8.44.94m-29.4,1.67a39.68,39.68,0,0,1,2.51,6c0,.47-5.13.7-5.57.26a6.39,6.39,0,0,1,.59-2.32c1.76-4.65,1.88-4.84,2.47-3.92"/><path class="cls-2" d="M278.85,213.31a8.21,8.21,0,0,1,1.5-.13,2.48,2.48,0,0,1,1.75.49,1.51,1.51,0,0,1,.48,1.15,1.59,1.59,0,0,1-1.14,1.54v0a1.5,1.5,0,0,1,.88,1.22,10.36,10.36,0,0,0,.47,1.66H282a8.74,8.74,0,0,1-.4-1.44c-.18-.84-.5-1.15-1.21-1.18h-.74v2.62h-.78Zm.78,2.75h.8c.84,0,1.37-.46,1.37-1.15s-.57-1.12-1.39-1.13a3.71,3.71,0,0,0-.78.07Z"/><circle class="cls-3" cx="280.82" cy="216.23" r="5.36"/></g></svg>