<svg id="svg" version="1.1" xmlns="http://www.w3.org/2000/svg" xmlns:xlink="http://www.w3.org/1999/xlink" width="400" height="400" viewBox="0, 0, 400,400"><g id="svgg"><path id="path0" d="M355.400 97.616 C 354.740 97.771,352.760 98.296,351.000 98.784 C 349.240 99.273,347.124 99.837,346.298 100.038 C 339.020 101.814,332.514 106.243,330.170 111.017 L 329.000 113.400 328.896 167.554 C 328.813 210.655,328.894 221.832,329.296 222.318 C 329.706 222.815,333.922 226.411,338.200 229.913 C 342.638 233.547,348.443 238.320,349.443 239.158 C 354.857 243.696,355.527 243.594,357.069 238.000 C 357.798 235.354,357.829 97.766,357.100 97.511 C 356.825 97.415,356.060 97.462,355.400 97.616 M184.600 118.579 C 183.720 118.876,180.030 120.065,176.400 121.220 C 162.037 125.792,159.703 128.209,159.240 139.000 L 159.000 144.600 151.630 144.709 C 142.458 144.845,143.200 144.209,143.200 151.938 C 143.200 163.863,147.190 169.588,155.545 169.650 C 159.549 169.680,159.200 167.076,159.202 196.949 C 159.203 228.263,159.316 229.475,162.903 236.600 C 167.918 246.563,174.202 248.800,197.171 248.800 L 212.400 248.800 212.402 240.900 C 212.405 227.366,209.120 223.200,198.445 223.200 C 187.948 223.200,187.959 223.232,188.097 192.986 L 188.200 170.200 199.200 170.000 L 210.200 169.800 210.200 161.800 C 210.200 152.910,209.956 151.905,207.065 148.874 C 204.059 145.721,202.178 145.121,194.400 144.831 L 188.200 144.600 188.095 131.300 L 187.989 118.000 187.095 118.019 C 186.603 118.030,185.480 118.281,184.600 118.579 M259.600 142.870 C 247.832 144.821,239.668 148.760,232.063 156.155 C 218.203 169.634,212.524 191.857,217.997 211.200 C 218.464 212.850,218.991 214.740,219.168 215.400 C 222.045 226.105,232.948 238.156,244.800 243.732 C 258.978 250.402,278.112 250.669,291.825 244.389 C 293.252 243.735,294.557 243.200,294.725 243.200 C 294.893 243.200,295.647 242.685,296.400 242.057 L 297.769 240.913 297.284 238.357 C 296.677 235.164,294.867 224.209,294.416 221.000 C 293.770 216.403,293.405 216.320,288.524 219.659 C 271.678 231.183,251.271 225.979,245.400 208.663 C 244.276 205.348,242.385 205.600,268.428 205.600 L 291.681 205.600 291.408 202.700 C 291.257 201.105,290.979 199.170,290.789 198.400 C 290.175 195.911,289.477 190.790,289.719 190.548 C 290.000 190.267,291.801 191.492,294.800 194.004 C 303.521 201.308,307.900 204.887,308.645 205.318 C 308.947 205.493,310.411 205.583,311.897 205.518 L 314.599 205.400 315.158 203.800 C 319.212 192.177,311.580 167.481,300.411 156.085 C 290.383 145.853,273.866 140.504,259.600 142.870 M53.400 143.972 C 49.495 144.655,45.485 147.887,43.493 151.957 L 42.200 154.600 42.200 186.400 C 42.200 219.394,42.156 218.340,43.819 225.000 C 47.575 240.047,59.551 248.813,76.326 248.794 C 87.730 248.781,94.914 245.370,103.508 235.885 C 105.950 233.190,106.000 233.268,106.000 239.826 C 106.000 247.469,105.748 247.103,112.200 248.837 C 119.371 250.763,133.252 249.293,134.776 246.445 C 135.517 245.060,135.356 144.627,134.611 144.009 C 133.341 142.955,117.384 143.667,114.705 144.898 C 112.115 146.087,108.803 149.172,107.909 151.228 C 107.581 151.983,107.067 153.140,106.766 153.800 C 106.330 154.758,106.173 160.395,105.984 181.800 L 105.749 208.600 104.680 211.344 C 99.337 225.058,79.601 226.839,73.402 214.167 C 71.013 209.286,71.100 210.587,70.840 175.800 L 70.600 143.800 62.800 143.746 C 58.510 143.716,54.280 143.818,53.400 143.972 M274.800 167.679 C 280.784 170.479,284.641 175.508,286.643 183.120 C 287.910 187.940,289.856 187.514,266.400 187.558 C 242.131 187.604,243.764 188.041,245.655 182.000 C 249.777 168.822,263.174 162.240,274.800 167.679 M296.173 203.500 C 296.327 204.545,296.605 206.300,296.789 207.400 C 296.973 208.500,297.404 211.200,297.745 213.400 C 298.087 215.600,298.544 218.300,298.761 219.400 C 298.979 220.500,299.351 222.750,299.589 224.400 C 299.993 227.201,300.170 228.295,301.191 234.300 C 301.406 235.565,301.953 238.940,302.405 241.800 C 302.857 244.660,303.411 248.080,303.635 249.400 C 303.859 250.720,304.465 254.383,304.980 257.539 C 305.496 260.696,306.081 263.441,306.279 263.639 C 306.614 263.974,307.920 263.000,316.699 255.867 C 319.769 253.372,320.076 253.332,320.931 255.317 C 322.954 260.012,325.140 265.213,326.682 269.000 C 327.668 271.420,328.822 274.164,329.247 275.099 C 329.671 276.033,330.190 277.248,330.400 277.799 C 330.883 279.071,331.728 279.044,334.039 277.683 C 335.051 277.087,337.410 275.727,339.282 274.660 C 346.077 270.789,346.159 272.104,338.481 261.894 C 331.467 252.566,328.788 248.743,329.013 248.379 C 329.112 248.219,332.029 246.975,335.496 245.615 C 344.007 242.274,344.400 242.092,344.400 241.484 C 344.400 241.193,342.675 239.525,340.566 237.778 C 338.458 236.030,336.163 234.127,335.466 233.549 C 334.270 232.556,324.579 224.567,310.858 213.261 C 307.480 210.477,303.430 207.113,301.858 205.785 C 295.991 200.826,295.763 200.735,296.173 203.500 M42.480 279.680 C 41.865 280.295,41.818 294.730,42.424 296.911 C 44.770 305.358,59.215 305.009,61.594 296.447 C 62.186 294.315,62.124 280.284,61.520 279.680 C 59.187 277.347,58.400 279.549,58.400 288.412 C 58.400 297.154,58.208 297.841,55.382 299.208 C 52.311 300.695,48.714 300.040,46.681 297.624 L 45.600 296.339 45.600 288.543 C 45.600 279.542,44.823 277.337,42.480 279.680 M73.867 279.467 C 73.720 279.613,73.600 284.839,73.600 291.079 C 73.600 303.436,73.607 303.472,75.826 302.461 L 76.800 302.017 76.800 294.009 C 76.800 289.372,76.956 286.000,77.170 286.000 C 77.585 286.000,82.220 291.049,85.983 295.600 C 91.510 302.285,93.344 303.696,94.720 302.320 C 95.488 301.552,95.396 280.261,94.622 279.618 C 92.512 277.867,92.215 278.790,92.000 287.767 C 91.874 293.051,91.646 296.185,91.382 296.273 C 91.004 296.399,88.451 293.561,79.983 283.600 C 76.577 279.593,74.884 278.449,73.867 279.467 M107.067 279.467 C 106.472 280.061,106.768 301.876,107.378 302.382 C 108.400 303.230,109.768 302.728,110.050 301.400 C 110.469 299.431,110.435 281.343,110.010 280.226 C 109.630 279.226,107.783 278.750,107.067 279.467 M120.150 279.785 C 119.961 280.279,122.557 286.834,126.175 295.000 C 126.662 296.100,127.470 298.028,127.971 299.284 C 129.593 303.359,130.383 303.269,132.017 298.824 C 132.467 297.601,133.083 296.060,133.386 295.400 C 133.689 294.740,134.326 293.213,134.800 292.007 C 135.274 290.801,136.098 288.860,136.631 287.695 C 137.164 286.530,137.600 285.490,137.600 285.384 C 137.600 285.278,137.968 284.409,138.417 283.454 C 139.656 280.818,139.643 279.428,138.379 279.281 C 137.006 279.121,136.383 279.942,134.799 284.000 C 134.069 285.870,133.350 287.580,133.201 287.800 C 133.052 288.020,132.508 289.280,131.992 290.600 C 130.043 295.583,129.893 295.606,127.997 291.200 C 127.287 289.550,126.385 287.480,125.993 286.600 C 125.601 285.720,124.810 283.840,124.236 282.421 C 123.662 281.003,122.969 279.700,122.696 279.527 C 121.879 279.008,120.391 279.159,120.150 279.785 M149.877 279.457 C 149.225 280.109,149.567 302.302,150.233 302.557 C 151.307 302.969,161.606 302.825,162.426 302.386 C 163.315 301.910,163.445 300.701,162.676 300.063 C 162.385 299.822,160.108 299.577,157.576 299.514 L 153.000 299.400 152.884 296.100 C 152.820 294.285,152.820 292.776,152.884 292.747 C 152.948 292.718,155.070 292.583,157.600 292.447 L 162.200 292.200 162.200 291.000 L 162.200 289.800 158.023 289.685 C 152.805 289.542,152.738 289.488,152.884 285.638 L 153.000 282.600 157.600 282.400 L 162.200 282.200 162.200 280.800 L 162.200 279.400 156.177 279.290 C 152.864 279.229,150.029 279.304,149.877 279.457 M173.876 279.477 C 173.542 280.018,173.428 301.798,173.756 302.330 C 174.072 302.840,175.162 302.943,176.167 302.557 C 176.695 302.355,176.800 301.526,176.800 297.557 L 176.800 292.800 178.020 292.800 C 180.207 292.800,181.433 293.840,184.259 298.092 C 187.415 302.841,187.415 302.842,189.000 302.704 C 189.909 302.625,190.194 302.406,190.175 301.800 C 190.148 300.978,186.425 295.110,184.615 293.038 C 183.367 291.609,183.358 291.752,184.773 290.561 C 188.015 287.833,187.204 282.075,183.308 280.156 C 181.679 279.353,174.281 278.821,173.876 279.477 M202.600 279.944 C 197.789 282.916,198.538 287.683,204.441 291.667 C 209.515 295.092,210.465 296.797,208.431 298.831 C 206.735 300.527,202.254 300.029,201.004 298.006 C 200.390 297.014,199.600 297.632,199.606 299.100 C 199.624 303.417,207.604 304.568,211.064 300.753 C 214.330 297.152,212.670 292.796,206.587 289.005 C 204.942 287.980,203.417 286.806,203.198 286.397 C 201.504 283.231,205.043 281.008,208.995 282.757 C 211.525 283.876,211.600 283.854,211.600 282.005 C 211.600 279.375,205.706 278.026,202.600 279.944 M223.391 279.680 C 223.279 279.972,223.235 285.248,223.294 291.405 L 223.400 302.600 224.800 302.600 L 226.200 302.600 226.200 291.000 L 226.200 279.400 224.897 279.274 C 224.086 279.196,223.518 279.349,223.391 279.680 M238.900 279.440 C 238.517 279.614,238.400 282.326,238.400 291.026 L 238.400 302.385 239.456 302.650 C 241.784 303.234,250.950 302.521,252.900 301.605 C 262.192 297.237,261.654 282.896,252.090 279.977 C 250.509 279.495,239.746 279.056,238.900 279.440 M275.933 280.079 C 275.610 280.586,274.922 282.080,274.404 283.400 C 273.885 284.720,273.058 286.700,272.565 287.800 C 272.073 288.900,271.112 291.206,270.430 292.924 C 269.747 294.642,268.764 296.892,268.244 297.924 C 266.778 300.834,266.572 302.274,267.576 302.592 C 269.008 303.047,269.873 302.449,270.618 300.489 C 271.013 299.450,271.636 298.060,272.002 297.400 L 272.669 296.200 277.591 296.200 C 281.549 296.200,282.579 296.317,282.851 296.800 C 283.037 297.130,283.634 298.407,284.177 299.637 C 285.378 302.353,286.051 302.974,287.423 302.630 C 288.487 302.363,288.542 300.997,287.561 299.213 C 287.085 298.346,283.214 289.683,281.390 285.400 C 278.684 279.048,277.392 277.788,275.933 280.079 M298.667 279.467 C 298.520 279.613,298.400 284.825,298.400 291.049 L 298.400 302.364 299.869 302.639 C 303.070 303.240,310.973 302.530,313.061 301.454 C 323.118 296.274,321.372 281.991,310.395 279.636 C 308.189 279.163,299.101 279.032,298.667 279.467 M182.241 283.405 C 184.692 285.856,182.355 289.794,178.613 289.519 L 177.000 289.400 176.884 285.900 L 176.769 282.400 179.003 282.400 C 180.855 282.400,181.408 282.572,182.241 283.405 M250.903 282.985 C 257.375 285.690,258.007 295.297,251.921 298.455 C 249.837 299.536,243.216 300.043,242.199 299.199 C 241.578 298.684,241.289 285.401,241.852 283.300 C 242.154 282.175,248.441 281.956,250.903 282.985 M310.431 282.857 C 316.872 284.786,318.162 294.174,312.519 298.056 C 310.457 299.474,303.472 300.255,302.210 299.209 C 301.579 298.685,301.281 285.432,301.852 283.300 C 302.133 282.253,307.492 281.976,310.431 282.857 M329.989 284.900 C 327.283 286.733,326.545 289.595,328.004 292.608 C 330.316 297.385,336.931 296.486,338.727 291.151 C 340.275 286.552,334.087 282.125,329.989 284.900 M336.275 286.141 C 338.798 288.453,338.265 292.814,335.286 294.227 C 333.102 295.264,330.896 294.797,329.300 292.962 C 325.151 288.190,331.615 281.870,336.275 286.141 M279.023 288.222 C 281.038 292.645,280.991 292.800,277.624 292.800 C 274.256 292.800,274.081 292.572,275.228 289.678 C 277.350 284.323,277.261 284.357,279.023 288.222 M331.213 289.878 C 331.224 292.227,331.298 292.504,331.757 291.900 C 332.409 291.041,333.336 291.000,334.000 291.800 C 334.850 292.824,335.030 292.485,335.015 289.900 L 335.000 287.400 333.100 287.278 L 331.200 287.156 331.213 289.878 M334.400 288.773 C 334.400 289.574,333.111 290.239,332.404 289.802 C 331.448 289.211,331.983 288.000,333.200 288.000 C 334.119 288.000,334.400 288.181,334.400 288.773 " stroke="none" fill="#f9fbf6" fill-rule="evenodd"></path><path id="path1" d="M0.000 200.000 L 0.000 400.000 200.000 400.000 L 400.000 400.000 400.000 200.000 L 400.000 0.000 200.000 0.000 L 0.000 0.000 0.000 200.000 M357.582 166.943 C 357.564 239.253,357.595 237.894,355.901 241.052 C 354.682 243.324,354.268 243.202,349.443 239.158 C 348.443 238.320,342.638 233.547,338.200 229.913 C 333.922 226.411,329.706 222.815,329.296 222.318 C 328.894 221.832,328.813 210.655,328.896 167.554 L 329.000 113.400 330.170 111.017 C 332.514 106.243,339.020 101.814,346.298 100.038 C 347.124 99.837,349.240 99.273,351.000 98.784 C 355.583 97.513,356.537 97.314,357.100 97.511 C 357.497 97.650,357.596 111.884,357.582 166.943 M188.095 131.300 L 188.200 144.600 194.400 144.831 C 202.178 145.121,204.059 145.721,207.065 148.874 C 209.956 151.905,210.200 152.910,210.200 161.800 L 210.200 169.800 199.200 170.000 L 188.200 170.200 188.097 192.986 C 187.959 223.232,187.948 223.200,198.445 223.200 C 209.120 223.200,212.405 227.366,212.402 240.900 L 212.400 248.800 197.171 248.800 C 174.202 248.800,167.918 246.563,162.903 236.600 C 159.316 229.475,159.203 228.263,159.202 196.949 C 159.200 167.076,159.549 169.680,155.545 169.650 C 147.190 169.588,143.200 163.863,143.200 151.938 C 143.200 144.209,142.458 144.845,151.630 144.709 L 159.000 144.600 159.240 139.000 C 159.703 128.209,162.037 125.792,176.400 121.220 C 180.030 120.065,183.720 118.876,184.600 118.579 C 185.480 118.281,186.603 118.030,187.095 118.019 L 187.989 118.000 188.095 131.300 M273.903 142.992 C 297.181 146.530,312.210 163.608,315.624 190.400 C 316.189 194.835,315.957 201.510,315.158 203.800 L 314.599 205.400 311.897 205.518 C 310.411 205.583,308.947 205.493,308.645 205.318 C 307.900 204.887,303.521 201.308,294.800 194.004 C 291.801 191.492,290.000 190.267,289.719 190.548 C 289.477 190.790,290.175 195.911,290.789 198.400 C 290.979 199.170,291.257 201.105,291.408 202.700 L 291.681 205.600 268.428 205.600 C 242.385 205.600,244.276 205.348,245.400 208.663 C 251.271 225.979,271.678 231.183,288.524 219.659 C 293.405 216.320,293.770 216.403,294.416 221.000 C 294.867 224.209,296.677 235.164,297.284 238.357 L 297.769 240.913 296.400 242.057 C 295.647 242.685,294.893 243.200,294.725 243.200 C 294.557 243.200,293.252 243.735,291.825 244.389 C 271.365 253.759,243.556 248.423,229.351 232.400 C 224.736 227.195,220.387 219.934,219.168 215.400 C 218.991 214.740,218.464 212.850,217.997 211.200 C 207.310 173.426,236.868 137.364,273.903 142.992 M70.840 175.800 C 71.048 203.635,71.163 208.077,71.725 209.930 C 74.204 218.108,78.998 222.012,86.965 222.337 C 96.280 222.716,101.514 219.469,104.680 211.344 L 105.749 208.600 105.984 181.800 C 106.173 160.395,106.330 154.758,106.766 153.800 C 107.067 153.140,107.581 151.983,107.909 151.228 C 108.803 149.172,112.115 146.087,114.705 144.898 C 117.384 143.667,133.341 142.955,134.611 144.009 C 135.356 144.627,135.517 245.060,134.776 246.445 C 133.252 249.293,119.371 250.763,112.200 248.837 C 105.748 247.103,106.000 247.469,106.000 239.826 C 106.000 233.268,105.950 233.190,103.508 235.885 C 94.914 245.370,87.730 248.781,76.326 248.794 C 59.551 248.813,47.575 240.047,43.819 225.000 C 42.156 218.340,42.200 219.394,42.200 186.400 L 42.200 154.600 43.493 151.957 C 46.812 145.175,50.375 143.660,62.800 143.746 L 70.600 143.800 70.840 175.800 M260.400 166.532 C 253.549 168.546,248.063 174.302,245.655 182.000 C 244.311 186.295,244.351 186.908,246.000 187.279 C 247.512 187.619,284.814 187.655,286.300 187.318 C 289.123 186.677,284.454 175.011,279.668 170.747 C 275.170 166.740,266.295 164.798,260.400 166.532 M297.846 202.485 C 298.481 202.971,300.286 204.456,301.858 205.785 C 303.430 207.113,307.480 210.477,310.858 213.261 C 324.579 224.567,334.270 232.556,335.466 233.549 C 336.163 234.127,338.458 236.030,340.566 237.778 C 342.675 239.525,344.400 241.193,344.400 241.484 C 344.400 242.092,344.007 242.274,335.496 245.615 C 332.029 246.975,329.112 248.219,329.013 248.379 C 328.788 248.743,331.467 252.566,338.481 261.894 C 346.159 272.104,346.077 270.789,339.282 274.660 C 337.410 275.727,335.051 277.087,334.039 277.683 C 331.728 279.044,330.883 279.071,330.400 277.799 C 330.190 277.248,329.671 276.033,329.247 275.099 C 328.822 274.164,327.668 271.420,326.682 269.000 C 325.140 265.213,322.954 260.012,320.931 255.317 C 320.076 253.332,319.769 253.372,316.699 255.867 C 307.920 263.000,306.614 263.974,306.279 263.639 C 306.081 263.441,305.496 260.696,304.980 257.539 C 304.465 254.383,303.859 250.720,303.635 249.400 C 303.411 248.080,302.857 244.660,302.405 241.800 C 301.953 238.940,301.406 235.565,301.191 234.300 C 300.170 228.295,299.993 227.201,299.589 224.400 C 299.351 222.750,298.979 220.500,298.761 219.400 C 298.544 218.300,298.087 215.600,297.745 213.400 C 297.404 211.200,296.973 208.500,296.789 207.400 C 295.715 200.989,295.741 200.871,297.846 202.485 M45.186 279.974 C 45.431 280.431,45.600 283.934,45.600 288.543 L 45.600 296.339 46.681 297.624 C 48.714 300.040,52.311 300.695,55.382 299.208 C 58.208 297.841,58.400 297.154,58.400 288.412 C 58.400 279.549,59.187 277.347,61.520 279.680 C 62.124 280.284,62.186 294.315,61.594 296.447 C 59.215 305.009,44.770 305.358,42.424 296.911 C 41.818 294.730,41.865 280.295,42.480 279.680 C 43.215 278.945,44.723 279.109,45.186 279.974 M76.246 279.714 C 76.712 279.981,78.393 281.730,79.983 283.600 C 88.451 293.561,91.004 296.399,91.382 296.273 C 91.646 296.185,91.874 293.051,92.000 287.767 C 92.215 278.790,92.512 277.867,94.622 279.618 C 95.396 280.261,95.488 301.552,94.720 302.320 C 93.344 303.696,91.510 302.285,85.983 295.600 C 82.220 291.049,77.585 286.000,77.170 286.000 C 76.956 286.000,76.800 289.372,76.800 294.009 L 76.800 302.017 75.826 302.461 C 73.607 303.472,73.600 303.436,73.600 291.079 C 73.600 284.839,73.720 279.613,73.867 279.467 C 74.270 279.064,75.300 279.171,76.246 279.714 M110.010 280.226 C 110.435 281.343,110.469 299.431,110.050 301.400 C 109.768 302.728,108.400 303.230,107.378 302.382 C 106.768 301.876,106.472 280.061,107.067 279.467 C 107.783 278.750,109.630 279.226,110.010 280.226 M122.696 279.527 C 122.969 279.700,123.662 281.003,124.236 282.421 C 124.810 283.840,125.601 285.720,125.993 286.600 C 126.385 287.480,127.287 289.550,127.997 291.200 C 129.893 295.606,130.043 295.583,131.992 290.600 C 132.508 289.280,133.052 288.020,133.201 287.800 C 133.350 287.580,134.069 285.870,134.799 284.000 C 136.383 279.942,137.006 279.121,138.379 279.281 C 139.643 279.428,139.656 280.818,138.417 283.454 C 137.968 284.409,137.600 285.278,137.600 285.384 C 137.600 285.490,137.164 286.530,136.631 287.695 C 136.098 288.860,135.274 290.801,134.800 292.007 C 134.326 293.213,133.689 294.740,133.386 295.400 C 133.083 296.060,132.467 297.601,132.017 298.824 C 130.383 303.269,129.593 303.359,127.971 299.284 C 127.470 298.028,126.662 296.100,126.175 295.000 C 122.557 286.834,119.961 280.279,120.150 279.785 C 120.391 279.159,121.879 279.008,122.696 279.527 M162.200 280.800 L 162.200 282.200 157.600 282.400 L 153.000 282.600 152.884 285.638 C 152.738 289.488,152.805 289.542,158.023 289.685 L 162.200 289.800 162.200 291.000 L 162.200 292.200 157.600 292.447 C 155.070 292.583,152.948 292.718,152.884 292.747 C 152.820 292.776,152.820 294.285,152.884 296.100 L 153.000 299.400 157.576 299.514 C 160.108 299.577,162.385 299.822,162.676 300.063 C 163.445 300.701,163.315 301.910,162.426 302.386 C 161.606 302.825,151.307 302.969,150.233 302.557 C 149.567 302.302,149.225 280.109,149.877 279.457 C 150.029 279.304,152.864 279.229,156.177 279.290 L 162.200 279.400 162.200 280.800 M183.308 280.156 C 187.204 282.075,188.015 287.833,184.773 290.561 C 183.358 291.752,183.367 291.609,184.615 293.038 C 186.425 295.110,190.148 300.978,190.175 301.800 C 190.194 302.406,189.909 302.625,189.000 302.704 C 187.415 302.842,187.415 302.841,184.259 298.092 C 181.433 293.840,180.207 292.800,178.020 292.800 L 176.800 292.800 176.800 297.557 C 176.800 301.526,176.695 302.355,176.167 302.557 C 175.162 302.943,174.072 302.840,173.756 302.330 C 173.428 301.798,173.542 280.018,173.876 279.477 C 174.281 278.821,181.679 279.353,183.308 280.156 M210.151 279.805 C 211.473 280.358,211.600 280.551,211.600 282.005 C 211.600 283.854,211.525 283.876,208.995 282.757 C 205.043 281.008,201.504 283.231,203.198 286.397 C 203.417 286.806,204.942 287.980,206.587 289.005 C 212.670 292.796,214.330 297.152,211.064 300.753 C 207.604 304.568,199.624 303.417,199.606 299.100 C 199.600 297.632,200.390 297.014,201.004 298.006 C 202.254 300.029,206.735 300.527,208.431 298.831 C 210.465 296.797,209.515 295.092,204.441 291.667 C 200.391 288.933,199.479 287.554,199.708 284.506 C 200.039 280.088,205.233 277.750,210.151 279.805 M226.200 291.000 L 226.200 302.600 224.800 302.600 L 223.400 302.600 223.294 291.405 C 223.173 278.732,223.124 279.104,224.897 279.274 L 226.200 279.400 226.200 291.000 M252.090 279.977 C 261.654 282.896,262.192 297.237,252.900 301.605 C 250.950 302.521,241.784 303.234,239.456 302.650 L 238.400 302.385 238.400 291.026 C 238.400 282.326,238.517 279.614,238.900 279.440 C 239.746 279.056,250.509 279.495,252.090 279.977 M279.197 280.600 C 279.560 281.260,280.546 283.420,281.390 285.400 C 283.214 289.683,287.085 298.346,287.561 299.213 C 288.542 300.997,288.487 302.363,287.423 302.630 C 286.051 302.974,285.378 302.353,284.177 299.637 C 283.634 298.407,283.037 297.130,282.851 296.800 C 282.579 296.317,281.549 296.200,277.591 296.200 L 272.669 296.200 272.002 297.400 C 271.636 298.060,271.013 299.450,270.618 300.489 C 269.873 302.449,269.008 303.047,267.576 302.592 C 266.572 302.274,266.778 300.834,268.244 297.924 C 268.764 296.892,269.747 294.642,270.430 292.924 C 271.112 291.206,272.073 288.900,272.565 287.800 C 273.058 286.700,273.885 284.720,274.404 283.400 C 276.196 278.836,277.733 277.938,279.197 280.600 M310.395 279.636 C 321.372 281.991,323.118 296.274,313.061 301.454 C 310.973 302.530,303.070 303.240,299.869 302.639 L 298.400 302.364 298.400 291.049 C 298.400 284.825,298.520 279.613,298.667 279.467 C 299.101 279.032,308.189 279.163,310.395 279.636 M176.884 285.900 L 177.000 289.400 178.613 289.519 C 182.355 289.794,184.692 285.856,182.241 283.405 C 181.408 282.572,180.855 282.400,179.003 282.400 L 176.769 282.400 176.884 285.900 M241.852 283.300 C 241.289 285.401,241.578 298.684,242.199 299.199 C 243.216 300.043,249.837 299.536,251.921 298.455 C 256.651 296.001,257.600 288.028,253.566 284.633 C 250.680 282.205,242.398 281.262,241.852 283.300 M301.852 283.300 C 301.281 285.432,301.579 298.685,302.210 299.209 C 303.472 300.255,310.457 299.474,312.519 298.056 C 316.854 295.073,317.324 287.739,313.388 284.494 C 310.621 282.213,302.372 281.359,301.852 283.300 M336.296 285.046 C 338.287 286.565,339.362 289.265,338.727 291.151 C 336.931 296.486,330.316 297.385,328.004 292.608 C 325.305 287.033,331.497 281.386,336.296 285.046 M330.000 285.705 C 325.419 289.845,329.763 296.848,335.286 294.227 C 338.265 292.814,338.798 288.453,336.275 286.141 C 334.412 284.434,331.621 284.239,330.000 285.705 M276.675 286.300 C 273.818 292.066,273.925 292.800,277.624 292.800 C 280.991 292.800,281.038 292.645,279.023 288.222 C 277.471 284.817,277.428 284.782,276.675 286.300 M335.015 289.900 C 335.030 292.485,334.850 292.824,334.000 291.800 C 333.336 291.000,332.409 291.041,331.757 291.900 C 331.298 292.504,331.224 292.227,331.213 289.878 L 331.200 287.156 333.100 287.278 L 335.000 287.400 335.015 289.900 M332.000 288.776 C 332.000 289.755,332.579 290.124,333.604 289.799 C 334.929 289.378,334.620 288.000,333.200 288.000 C 332.279 288.000,332.000 288.180,332.000 288.776 " stroke="none" fill="#83c344" fill-rule="evenodd"></path></g></svg>