<svg id="Capa_1" data-name="Capa 1" xmlns="http://www.w3.org/2000/svg" xmlns:xlink="http://www.w3.org/1999/xlink" viewBox="0 0 570 570"><defs><style>.cls-1{fill:url(#Degradado_sin_nombre_13);}.cls-2{fill:url(#Degradado_sin_nombre_13-2);}.cls-3{fill:url(#Degradado_sin_nombre_4);}</style><linearGradient id="Degradado_sin_nombre_13" x1="127.14" y1="197.68" x2="233.7" y2="507.28" gradientUnits="userSpaceOnUse"><stop offset="0" stop-color="#17dbe3"/><stop offset="0.52" stop-color="#0c75fc"/><stop offset="1" stop-color="#001228"/></linearGradient><linearGradient id="Degradado_sin_nombre_13-2" x1="350.23" y1="120.89" x2="456.79" y2="430.49" xlink:href="#Degradado_sin_nombre_13"/><linearGradient id="Degradado_sin_nombre_4" x1="378.31" y1="153.45" x2="559.75" y2="264.33" xlink:href="#Degradado_sin_nombre_13"/></defs><path class="cls-1" d="M65.93,438.3V134.78h99.43q50.25,0,78.59,20.74t28.35,62a60.89,60.89,0,0,1-11.36,36.06Q249.59,269.65,229.36,278q29.19,4.8,44.92,25.23T290,351.16q0,42.73-27.93,64.94T185,438.3Zm50.65-175.73h54.2q23.57,0,37.21-11.15t13.66-31.59q0-22.52-14.39-33.45t-41.9-10.95H116.58Zm0,37.73v97.56H185q26.26,0,40.44-12t14.17-34.71q0-22.92-14-36.48T186.42,300.3H116.58Z"/><path class="cls-2" d="M428.23,442.67q-49.41,0-77.23-31.16t-27.83-80.78v-8.34q0-49.61,27.83-81.81t71.81-32q45.44,0,68.79,28T515,311.56v27.3H375.49l-.42,1.05q.84,27.72,14.59,45t41.49,17.3q20.64,0,35.75-5a102.15,102.15,0,0,0,28-14.38L511.4,416q-12.91,11.26-34.18,19T428.23,442.67Zm-5.42-193.44q-19.8,0-31.69,14.28t-14.8,37.21l.42,1h88.18v-4q0-21.69-10.11-35.13T422.81,249.23Z"/><rect class="cls-3" x="377.58" y="167.59" width="91.5" height="26.73"/></svg>