<svg id="Capa_1" data-name="Capa 1" xmlns="http://www.w3.org/2000/svg" viewBox="0 0 300 194.4"><defs><style>.cls-1{fill:#fbfbfb;stroke:#fbfbfb;stroke-miterlimit:10;stroke-width:0.34px;fill-rule:evenodd;}</style></defs><g id="svgg"><path id="path0" class="cls-1" d="M230.16,93.27a3.32,3.32,0,0,0-.79.33,1.5,1.5,0,0,1-.57.25,1.49,1.49,0,0,0-.58.31,11.7,11.7,0,0,1-1.38.89,32,32,0,0,0-3.7,3.37,3.3,3.3,0,0,1-.43.34,17.62,17.62,0,0,0-2.83,2.66l-.92,1.06c-.43.48-.65.74-1.16,1.33a6.94,6.94,0,0,1-.88.86,4.93,4.93,0,0,0-.71.73,11.22,11.22,0,0,1-.75.91,13.34,13.34,0,0,0-1.63,1.85.39.39,0,0,1-.29.21.29.29,0,0,0-.23.2,2,2,0,0,1-.35.48,9,9,0,0,0-.61.73,13.83,13.83,0,0,1-.92,1.08c-.32.35-.73.82-.92,1s-.44.53-.56.66a2.73,2.73,0,0,0-.37.54,6.55,6.55,0,0,1-.68.86c-.29.31-.78.87-1.09,1.22s-.7.79-.87,1a1.12,1.12,0,0,0-.31.43,1.26,1.26,0,0,1-.28.42,1.17,1.17,0,0,0-.29.39s-.84.94-1.88,2-2,2.07-2.17,2.27-.39.47-.53.61a1,1,0,0,0-.26.35A23,23,0,0,1,198.8,125a7.61,7.61,0,0,0-.7.58l-.63.56c-.14.12-.5.4-.81.62s-.65.49-.75.59a3.91,3.91,0,0,1-.54.35c-.19.1-.34.22-.34.27s-.16.16-.37.24a5.46,5.46,0,0,0-.8.44c-.42.28-.52.29-1.89.29h-1.44l-.35-.34-.68-.67a6.93,6.93,0,0,1-1.23-1.65,1.74,1.74,0,0,0-.29-.57c-.85-1.22.05-2.4,1.87-2.44.78,0,1.09-.18.61-.32a7,7,0,0,0-3.43.23,1.18,1.18,0,0,1-.51.3,4.84,4.84,0,0,0-1.3,1.2,4.24,4.24,0,0,0,.57,2.58,1.07,1.07,0,0,1,.23.46,7.8,7.8,0,0,0,1.52,1.62,1.4,1.4,0,0,1,.42.28,1.25,1.25,0,0,0,.48.28,1,1,0,0,1,.43.23,3.45,3.45,0,0,0,.77.39,2.85,2.85,0,0,1,.66.33,2.35,2.35,0,0,0,.9.28l1.2.22a1.42,1.42,0,0,0,.62,0,5.86,5.86,0,0,1,1-.22,2.31,2.31,0,0,0,.94-.29,1.49,1.49,0,0,1,.53-.28,4.44,4.44,0,0,0,.76-.37c.37-.25.88-.56,1.41-.86a10.1,10.1,0,0,0,1.8-1.54c1.15-1.11,1.62-1.5,1.79-1.5s.2-.13.3-.29.24-.28.3-.28a17.55,17.55,0,0,0,2.23-2.25s.1-.13.22-.17a.5.5,0,0,0,.29-.31,9.84,9.84,0,0,1,1.85-2.22c.41-.4,1-1,1.25-1.34s.78-.91,1.12-1.27.74-.81.9-1l.5-.58a4.38,4.38,0,0,0,.4-.5c.1-.14.45-.55.77-.91.74-.81,1.13-1.26,1.42-1.65a19.84,19.84,0,0,1,1.64-1.83c.46-.48,1-1.06,1.14-1.28a6.06,6.06,0,0,1,.62-.7,32.72,32.72,0,0,0,2.4-2.44,32.84,32.84,0,0,1,2.37-2.61,15.61,15.61,0,0,1,1.39-1.34,8.6,8.6,0,0,0,.89-.83,7.75,7.75,0,0,1,1.07-1c.14-.08.25-.21.25-.29a.9.9,0,0,1,.22-.42,15.94,15.94,0,0,1,1.8-1.93c.31-.26,1.22-1.12,2-1.91a13.76,13.76,0,0,1,1.6-1.43,1.76,1.76,0,0,0,.49-.34c.9-.78,2.32.11,1.56,1l-.53.64a5.92,5.92,0,0,1-1.61,1.25,2.32,2.32,0,0,0-.62.54l-.24.31.26.09a1.2,1.2,0,0,0,1-.19,2.14,2.14,0,0,1,.43-.29,5.54,5.54,0,0,0,1.49-1.67,1.93,1.93,0,0,1,.31-.57,2.6,2.6,0,0,0,0-2.67,3.39,3.39,0,0,0-2.52-.35m-79.83,1.66a1.56,1.56,0,0,1-.58.15c-.3,0-1.22.74-1.22,1s-1.22,1.71-3.63,4.1a12.49,12.49,0,0,0-1.21,1.29,15.33,15.33,0,0,1-1.8,2.15c-1.33,1.43-2.41,2.61-3.27,3.56-.47.52-1.05,1.12-1.29,1.33-.4.37-1.23,1.2-1.72,1.75a2.59,2.59,0,0,0-.36.53,29.39,29.39,0,0,1-2.82,3.07c-.06.07-.68.8-1.37,1.64a27.42,27.42,0,0,1-3.08,3.37,17.44,17.44,0,0,0-2.14,2.32c-.12.17-.62.72-1.09,1.22-1.17,1.23-1.27,1.34-2.17,2.38-.43.49-.9,1-1,1.14a.85.85,0,0,0-.26.45,1,1,0,0,1-.25.46c-.38.4-.38,1.7,0,1.89a2.1,2.1,0,0,1,.46.32,1.55,1.55,0,0,0,1.59.1,4,4,0,0,1,.73-.41c.22-.09.41-.23.41-.3a.82.82,0,0,1,.25-.39,5.05,5.05,0,0,0,.53-.67,19.32,19.32,0,0,1,1.32-1.71c.18-.2.42-.5.54-.66s.58-.72,1-1.22l.95-1.12.44-.48a3.09,3.09,0,0,0,.4-.49,15.58,15.58,0,0,1,2.68-3.2,11.67,11.67,0,0,0,.87-.94,17.81,17.81,0,0,1,1.44-1.58,2.12,2.12,0,0,0,.37-.46,12,12,0,0,1,1.87-2.08,12,12,0,0,0,1.17-1.32c0-.06.15-.19.33-.28s.34-.24.34-.33a4.66,4.66,0,0,1,.78-1,33.12,33.12,0,0,0,2.26-2.62s.55-.61,1.21-1.3,1.31-1.37,1.44-1.54,2.68-3,3.2-3.54a20.46,20.46,0,0,0,2.28-2.7,5.9,5.9,0,0,1,.62-.84,1.29,1.29,0,0,0,.29-.35,11.06,11.06,0,0,1,.84-1.29.75.75,0,0,0,.08-1l-.4-.34a.8.8,0,0,0-1,0m91.82.78a22.2,22.2,0,0,0-1.92,1.7,5.92,5.92,0,0,1-.82.71c-.13.07-.24.18-.24.25a.9.9,0,0,1-.26.38l-.5.58a43.82,43.82,0,0,1-3.22,3.54c-2,2.08-2.75,2.85-3.85,4.1-.57.65-2.2,2.31-3.1,3.17a6.86,6.86,0,0,0-1.1,1.27,26.81,26.81,0,0,1-2.44,2.65c-.68.7-1.4,1.45-1.6,1.67a3,3,0,0,1-.59.52c-.13.07-.23.19-.23.26a2.9,2.9,0,0,1-.59.73,11.93,11.93,0,0,0-.85.9,52.19,52.19,0,0,1-4.27,4.61c-1.42,1.41-2.67,2.73-2.78,2.93s-.23.37-.28.37-.15.22-.23.48a4.23,4.23,0,0,1-.36.83c-1,1.61,1.07,2.72,2.54,1.37a.86.86,0,0,1,.3-.2c.05,0,.12-.1.16-.22a6.2,6.2,0,0,1,1-1.3l.22-.23.76-.81c1-1.1,2.88-3.07,3.2-3.4.15-.16.42-.48.59-.7s1.34-1.52,3.16-3.38a1.49,1.49,0,0,0,.29-.36,4.89,4.89,0,0,1,.57-.66,3.82,3.82,0,0,0,.56-.67,27.71,27.71,0,0,1,2.57-3c1.09-1.16,1.39-1.47,2.74-2.79a15.35,15.35,0,0,0,1.11-1.23,29.57,29.57,0,0,1,2.48-2.72,7.45,7.45,0,0,0,.9-1,3.75,3.75,0,0,1,.94-1.12,10.3,10.3,0,0,0,1.31-1.34,14.34,14.34,0,0,1,1.44-1.68c.35-.38.77-.85.92-1s.4-.46.54-.6a.82.82,0,0,0,.25-.36,4.66,4.66,0,0,1,.8-.91,6.65,6.65,0,0,0,1-1.19,2.31,2.31,0,0,1,.39-.55c.79-.65-.63-2.13-1.46-1.52M67.74,97.58c-.31,0-.95.08-1.42.09a4.08,4.08,0,0,0-1.24.17,11,11,0,0,1-1.86.26,4.78,4.78,0,0,0-1.76.3,4.12,4.12,0,0,1-1.39.3,7.06,7.06,0,0,0-1.56.32,4.48,4.48,0,0,1-1,.28,3,3,0,0,0-.91.3,3.1,3.1,0,0,1-1,.28,2,2,0,0,0-.88.29c-.23.19-.39.24-1.36.36a1.81,1.81,0,0,0-.73.29,2.71,2.71,0,0,1-.89.34,3.72,3.72,0,0,0-1,.33,2.9,2.9,0,0,1-.81.29,3.1,3.1,0,0,0-.79.28,2.72,2.72,0,0,1-.86.29,2.79,2.79,0,0,0-.87.3,2.91,2.91,0,0,1-.93.28,1.82,1.82,0,0,0-.81.28c-.27.23-.4.27-1.13.37a1.42,1.42,0,0,0-.72.29.76.76,0,0,1-.54.22,3.28,3.28,0,0,0-1,.34,3.58,3.58,0,0,1-.84.34,2.62,2.62,0,0,0-.7.28,2.3,2.3,0,0,1-.73.28,1.53,1.53,0,0,0-.6.25,3.21,3.21,0,0,1-.9.33,2.63,2.63,0,0,0-.81.32,2.17,2.17,0,0,1-.79.3,2.35,2.35,0,0,0-.88.33,2.66,2.66,0,0,1-.79.33,2.25,2.25,0,0,0-.67.28,2.44,2.44,0,0,1-.64.28,2,2,0,0,0-.66.3,1.73,1.73,0,0,1-.76.29,1.69,1.69,0,0,0-.76.31,1.59,1.59,0,0,1-.69.33,2,2,0,0,0-.68.28,2.05,2.05,0,0,1-.68.33,2.41,2.41,0,0,0-.72.35,1,1,0,0,1-.44.23,1.18,1.18,0,0,0-.47.27,6.71,6.71,0,0,1-1.45.86,2.63,2.63,0,0,0-.59.37,2.31,2.31,0,0,1-.62.37,13,13,0,0,0-1.78,1,1.6,1.6,0,0,1-.52.26.13.13,0,0,0-.14.11c0,.07-.14.18-.31.25a2.47,2.47,0,0,0-.61.42c-.16.16-.47.43-.67.59a8.62,8.62,0,0,0-1.52,1.5,7.51,7.51,0,0,0-.81,1.1c-.07.17-.17.31-.23.31s-.16.21-.24.47a5,5,0,0,1-.37.93,3.17,3.17,0,0,0,0,2.44,3.1,3.1,0,0,1,.33.79,1.74,1.74,0,0,0,.35.69,2.1,2.1,0,0,1,.33.59.51.51,0,0,0,.28.34.47.47,0,0,1,.27.25,1.06,1.06,0,0,0,.41.42l.73.45a5.67,5.67,0,0,1,.57.42,1.79,1.79,0,0,0,.62.29,1.71,1.71,0,0,1,.64.35.94.94,0,0,0,.56.24,2.42,2.42,0,0,1,.83.26,4,4,0,0,0,.89.35,5.92,5.92,0,0,1,.83.29c.25.11.68.28,1,.37l1,.34a2.64,2.64,0,0,0,.83.18,2.23,2.23,0,0,1,.85.28,3,3,0,0,0,1.37.35,5,5,0,0,1,1.35.29,5.93,5.93,0,0,0,1.44.33,7.85,7.85,0,0,1,1.5.32c1.3.51,17.13.52,18,0a22,22,0,0,1,4.11-.28c3.29-.12,3.89-.17,4.28-.35s.83-.21,3.94-.24l3.49,0,.36-.36a1.61,1.61,0,0,0,0-2.11l-.34-.39h-3c-2.74,0-3,0-3.54.26a8.35,8.35,0,0,1-2.59.35,30.06,30.06,0,0,0-3.07.33,23.12,23.12,0,0,1-3.49.3,67.45,67.45,0,0,0-7,.37,28.12,28.12,0,0,1-6.32-.1,20.77,20.77,0,0,0-3.47-.3c-2.11,0-2.36-.08-2.88-.32a4.44,4.44,0,0,0-1.45-.33,3,3,0,0,1-1.23-.28,3.59,3.59,0,0,0-1.14-.29,3.62,3.62,0,0,1-1.15-.28,3.62,3.62,0,0,0-1-.33,3.46,3.46,0,0,1-.89-.28,2.84,2.84,0,0,0-.74-.29,2,2,0,0,1-.67-.29,2.94,2.94,0,0,0-.67-.33,2.82,2.82,0,0,1-.68-.34,1.92,1.92,0,0,0-.54-.29c-.19-.07-.35-.17-.35-.22s-.2-.2-.44-.33a4,4,0,0,1-1.37-1.52,1.15,1.15,0,0,0-.29-.46c-.36-.38-.34-1,.08-2.06a11.53,11.53,0,0,1,3.22-3.47,2.11,2.11,0,0,0,.52-.28,9.25,9.25,0,0,1,1.57-.89,1.67,1.67,0,0,0,.53-.33s.22-.17.48-.28a2,2,0,0,0,.59-.33,1.42,1.42,0,0,1,.51-.29,2.53,2.53,0,0,0,.62-.34,2.05,2.05,0,0,1,.61-.32,2,2,0,0,0,.57-.3,2,2,0,0,1,.72-.27,1.36,1.36,0,0,0,.67-.28,1.27,1.27,0,0,1,.63-.3,2.29,2.29,0,0,0,.77-.33,1,1,0,0,1,.48-.23,2.52,2.52,0,0,0,.71-.27,3.92,3.92,0,0,1,.94-.35,2.12,2.12,0,0,0,.74-.29,2.79,2.79,0,0,1,.88-.33,2.08,2.08,0,0,0,.84-.32,2.27,2.27,0,0,1,.78-.29,2.1,2.1,0,0,0,.77-.28,2.43,2.43,0,0,1,.79-.35,1.2,1.2,0,0,0,.53-.21c0-.12.54-.35.83-.35a1.53,1.53,0,0,0,.68-.28,2.58,2.58,0,0,1,.88-.35,2,2,0,0,0,.79-.28,3.1,3.1,0,0,1,1-.34,2.23,2.23,0,0,0,.87-.32,1.63,1.63,0,0,1,.7-.27,4,4,0,0,0,1-.35,2.21,2.21,0,0,1,.77-.28,2.49,2.49,0,0,0,.76-.28,2.34,2.34,0,0,1,.74-.29,2.09,2.09,0,0,0,.64-.22,7.94,7.94,0,0,1,1.12-.4,2.63,2.63,0,0,0,.85-.33,2.47,2.47,0,0,1,.82-.27,3.1,3.1,0,0,0,1-.34,2.28,2.28,0,0,1,.81-.29,1.56,1.56,0,0,0,.68-.23,3.4,3.4,0,0,1,1-.34,3.7,3.7,0,0,0,.95-.27,5.44,5.44,0,0,1,1.66-.35,2.51,2.51,0,0,0,.86-.24,6.07,6.07,0,0,1,1.55-.35,4,4,0,0,0,1.19-.26,10.46,10.46,0,0,1,4.63-.26.89.89,0,0,1,.43,1.2,6,6,0,0,0-.62,1.59,3.14,3.14,0,0,0,1.81-.12,1.84,1.84,0,0,1,.7-.3,2.22,2.22,0,0,0,.79-.37c.84-.73,1.14-1.06,1.14-1.24a1.71,1.71,0,0,1,.29-.63c.55-.8-.16-2.19-1.26-2.46a2.19,2.19,0,0,1-.6-.28,4.56,4.56,0,0,0-2.31-.2M239,107c-.23,0-.64.46-1.24,1.25a1.86,1.86,0,0,0,.09,2.3,2.12,2.12,0,0,1,.31.39c.09.16.3.21,1,.24l.9,0,.47-.49.68-.73a2,2,0,0,0-1-2.9l-.75-.11a1.67,1.67,0,0,0-.5,0m-88.28,5.08a1.47,1.47,0,0,0-.71,2.19c.6.76,0,1.16-2,1.38a5.12,5.12,0,0,0-1.25.34,2.82,2.82,0,0,1-.8.27,1,1,0,0,0-.5.22,2.48,2.48,0,0,1-.73.34,1.52,1.52,0,0,0-.65.33,1,1,0,0,1-.54.28,1.42,1.42,0,0,0-.6.33,9.23,9.23,0,0,1-.72.59,21.11,21.11,0,0,0-3.58,3.27l-.52.67a4.38,4.38,0,0,0-.45.7,1.56,1.56,0,0,1-.36.46,1.07,1.07,0,0,0-.29.59,2.07,2.07,0,0,1-.3.71,5,5,0,0,0-.09,2.77c.1.16.26.47.37.7a.82.82,0,0,0,.48.49,1.61,1.61,0,0,1,.55.31c.38.37,2.83.37,3.67,0a6.26,6.26,0,0,1,1.41-.32c.65-.06.89-.13,1-.3a1.53,1.53,0,0,1,.68-.34,2.11,2.11,0,0,0,.67-.26,2,2,0,0,1,.63-.28,2.15,2.15,0,0,0,.73-.33,2.88,2.88,0,0,1,.68-.34,1.61,1.61,0,0,0,.55-.29.92.92,0,0,1,.44-.23,2,2,0,0,0,.69-.34,1.57,1.57,0,0,1,.52-.28c.58,0,3.26-3,3.48-3.88a3.87,3.87,0,0,1,.31-.79,4.54,4.54,0,0,0,0-2.77c-.28-.89-.22-1.32.25-1.57s.54-.3.12-.48a2.19,2.19,0,0,1-1.33-1.73,2.36,2.36,0,0,0-.32-1,1.32,1.32,0,0,1-.25-.5,2.51,2.51,0,0,0-1-1,2,2,0,0,0-.36.08M86,113.76a2.15,2.15,0,0,0-1.28.33,1.17,1.17,0,0,1-.51.25c-.36,0-.91.7-.91,1.17,0,1,1.34,1.46,2.33.85a3.22,3.22,0,0,1,2-.43c.31,0,1.06.08,1.66.09a5.34,5.34,0,0,1,1.78.24,9.46,9.46,0,0,0,1.61.34,3.25,3.25,0,0,1,1.21.32,2.53,2.53,0,0,0,.93.3,1.9,1.9,0,0,1,1,.34,1.05,1.05,0,0,0,.54.27,3.57,3.57,0,0,1,1.5,1.16c.72.87.06,1.76-.86,1.16a3.86,3.86,0,0,0-1.05-.34,4.23,4.23,0,0,1-1.06-.34,3.64,3.64,0,0,0-1.1-.29,9.75,9.75,0,0,1-1.4-.29,11.87,11.87,0,0,0-1.64-.28,25.85,25.85,0,0,1-3.18-.44,13.57,13.57,0,0,0-4.75.2,2,2,0,0,1-.84.25,2.6,2.6,0,0,0-1,.28l-1,.45a6.19,6.19,0,0,0-.9.51c-.28.18-.64.39-.79.47a3.81,3.81,0,0,0-1.13,1.09,1.93,1.93,0,0,1-.31.5,7,7,0,0,0-1,1.79c-.08.24-.18.43-.22.43-.27,0-.46,1.9-.28,2.8.1.49,1.39,1.81,1.77,1.81a.86.86,0,0,1,.53.26c.34.36,6.43.39,7.09,0a6.58,6.58,0,0,1,2.42-.32c1.72-.08,2.08-.13,2.39-.32a3.88,3.88,0,0,1,1.64-.34,17.87,17.87,0,0,0,2.16-.32c.5-.11,1.26-.24,1.69-.29a5.26,5.26,0,0,0,1.18-.24,11.57,11.57,0,0,1,2.55-.25c2.5-.1,2.41-.07,2.41-.85a2,2,0,0,0-1.17-1.71,10.29,10.29,0,0,0-3.5,0,11.7,11.7,0,0,1-1.57.28,14,14,0,0,0-1.59.28,12.92,12.92,0,0,1-1.82.27,4.31,4.31,0,0,0-1.54.29,5.17,5.17,0,0,1-1.5.33,5.67,5.67,0,0,0-1.5.32c-.51.32-6.71.48-7.74.21a1.51,1.51,0,0,1-.93-1.27c0-.89,1.32-3.13,1.84-3.13a.84.84,0,0,0,.4-.27,1.26,1.26,0,0,1,.65-.33,4.35,4.35,0,0,0,.91-.32c1-.5,8.28-.41,9.68.13a3.61,3.61,0,0,0,.94.22,6.38,6.38,0,0,1,1.3.34,5.89,5.89,0,0,0,1.35.34,3.07,3.07,0,0,1,1,.25,4.93,4.93,0,0,0,2.36.26h1.78l.62-.64a1.85,1.85,0,0,0,.39-2.35c-.12-.21-.29-.54-.38-.73a14.21,14.21,0,0,0-2.8-2.65,5.25,5.25,0,0,1-.49-.33,1.46,1.46,0,0,0-.5-.28,1.6,1.6,0,0,1-.52-.3,2,2,0,0,0-.76-.31,1.71,1.71,0,0,1-.78-.33,2.43,2.43,0,0,0-1.22-.35,9.38,9.38,0,0,1-1.57-.34,34.52,34.52,0,0,0-6.53-.25m177.8,1a4.74,4.74,0,0,1-1.22.24,1.81,1.81,0,0,0-1.14.32,1.72,1.72,0,0,1-.71.33,1.24,1.24,0,0,0-.55.23,2,2,0,0,1-.69.33,2.79,2.79,0,0,0-.75.32,2.33,2.33,0,0,1-.68.3,2.8,2.8,0,0,0-.79.33,2.12,2.12,0,0,1-.69.27,1.25,1.25,0,0,0-.61.3,1.23,1.23,0,0,1-.57.29,2.23,2.23,0,0,0-.74.34,1.33,1.33,0,0,1-.54.27,1.94,1.94,0,0,0-.67.34,2.35,2.35,0,0,1-.63.33.54.54,0,0,0-.3.19,2,2,0,0,1-.62.38,1.7,1.7,0,0,0-.53.32,1.4,1.4,0,0,1-.49.25,2.4,2.4,0,0,0-.68.34,2.06,2.06,0,0,1-.62.28,2.2,2.2,0,0,0-.71.34,2,2,0,0,1-.71.34c-.19,0-.35.12-.35.17s-.19.19-.42.29a3.58,3.58,0,0,0-.62.35c-.17.15-.21.13-.31-.14-.21-.55-.17-.61,1.48-2.32a7.57,7.57,0,0,0,1.32-1.63c.12-.28.27-.51.34-.51s.17-.19.24-.42a4.38,4.38,0,0,1,.34-.76l.2-.34-.36-.43-.36-.42h-1.08c-1.3,0-1.88.1-2.18.36a2.8,2.8,0,0,1-.49.33l-.27.14.36.21c.62.38.54.8-.31,1.59-.25.23-.79.81-1.2,1.29a8.85,8.85,0,0,1-.91,1,.32.32,0,0,0-.16.24,1,1,0,0,1-.26.43c-.14.16-.47.59-.73,1s-1.34,1.55-2.39,2.62c-2,2.06-2.09,2.15-2.16,3.31-.06.92,1,1.37,2.06.93a5,5,0,0,1,1.16-.23,1.77,1.77,0,0,0,1.1-.36,1.19,1.19,0,0,1,.58-.27,1.65,1.65,0,0,0,.66-.28,1.67,1.67,0,0,1,.58-.29,1.23,1.23,0,0,0,.49-.26,2.33,2.33,0,0,1,.73-.39,1.71,1.71,0,0,0,.64-.35.85.85,0,0,1,.51-.23A1.07,1.07,0,0,0,247,126a1.63,1.63,0,0,1,.61-.34,1.12,1.12,0,0,0,.51-.29,1.79,1.79,0,0,1,.6-.35,1.61,1.61,0,0,0,.53-.26,1.45,1.45,0,0,1,.5-.29,2.51,2.51,0,0,0,.57-.28c.09-.07.62-.34,1.18-.61s1.09-.52,1.18-.58a5.78,5.78,0,0,1,.62-.31,2.2,2.2,0,0,0,.61-.4.58.58,0,0,1,.4-.18,1.52,1.52,0,0,0,.68-.34,1.62,1.62,0,0,1,.62-.34.68.68,0,0,0,.39-.22,1.7,1.7,0,0,1,.7-.36,1,1,0,0,0,.6-.33.82.82,0,0,1,.55-.28,1.25,1.25,0,0,0,.67-.33,1.18,1.18,0,0,1,.56-.33,1.19,1.19,0,0,0,.53-.29.67.67,0,0,1,.33-.22,1.85,1.85,0,0,0,.56-.28c1.28-.87,2.23-.2,1.4,1a3.34,3.34,0,0,0-.33,1.22,3.34,3.34,0,0,1-.33,1.22,2.18,2.18,0,0,0-.27.85,2.27,2.27,0,0,1-.25.82,4.08,4.08,0,0,0-.32.74,5.61,5.61,0,0,1-1,1.71,2.67,2.67,0,0,0,0,2.28,2.56,2.56,0,0,0,2.29-.3.85.85,0,0,1,.51-.23.5.5,0,0,0,.35-.12,6.1,6.1,0,0,1,.93-.67c.48-.31.94-.63,1-.72a5.6,5.6,0,0,1,1.41-.91c.21-.09.38-.21.38-.28s.2-.21.43-.33a2.19,2.19,0,0,0,.58-.4.52.52,0,0,1,.34-.18.69.69,0,0,0,.41-.23,3,3,0,0,1,.65-.48l.76-.43A2.69,2.69,0,0,0,270,123a2.4,2.4,0,0,1,.53-.32,4.14,4.14,0,0,0,.62-.35,6.48,6.48,0,0,1,1.42-.86,1.1,1.1,0,0,0,.42-.29,1.74,1.74,0,0,1,.61-.35,1.83,1.83,0,0,0,.61-.33,1.86,1.86,0,0,1,.64-.33.62.62,0,0,0,.39-.22.91.91,0,0,1,.49-.29,3.17,3.17,0,0,0,.69-.34A1.71,1.71,0,0,1,277,119a4.56,4.56,0,0,0,.78-.3,4,4,0,0,1,1.07-.31,4,4,0,0,0,1-.28,1.26,1.26,0,0,1,1.25,0,2.59,2.59,0,0,0,.73.28c1.4.36,2.07,2,1.64,4.12a8.4,8.4,0,0,0-.18,1.19,3.77,3.77,0,0,1-.28,1,3.51,3.51,0,0,0-.29,1,1,1,0,0,1-.27.63,3,3,0,0,0-.14,2.7,1.48,1.48,0,0,0,1.51,0,6.34,6.34,0,0,0,1.72-2,2.61,2.61,0,0,1,.29-.73,3.83,3.83,0,0,0,.35-1.12,9.38,9.38,0,0,1,.28-1.33,12.88,12.88,0,0,0,0-4.43,4.41,4.41,0,0,1-.26-1.07,4.32,4.32,0,0,0-.33-1.17,2.78,2.78,0,0,1-.28-.62,3.72,3.72,0,0,0-.78-.93l-.69-.64-.84,0a12.7,12.7,0,0,0-4.2.27,3.87,3.87,0,0,1-1,.39,2.66,2.66,0,0,0-.81.32,2,2,0,0,1-.7.29,1.21,1.21,0,0,0-.54.21c0,.11-.52.35-.77.35a1.4,1.4,0,0,0-.57.27,2.14,2.14,0,0,1-.74.34,1.1,1.1,0,0,0-.51.23,1.4,1.4,0,0,1-.54.29,2.85,2.85,0,0,0-.73.4,1.18,1.18,0,0,1-.47.27,1,1,0,0,0-.47.26,5.16,5.16,0,0,1-.72.45,8.77,8.77,0,0,0-1.33.78,1.76,1.76,0,0,1-.6.3,1.64,1.64,0,0,0-.6.35.74.74,0,0,1-.46.22,1.66,1.66,0,0,0-.71.37c-.95.77-1.3,1-1.54,1a.44.44,0,0,0-.33.12c-.13.2-.26.11-.3-.22a.75.75,0,0,1,.09-.51A2.45,2.45,0,0,0,265,121a3.93,3.93,0,0,1,.28-1,16,16,0,0,0,.68-3.53c0-1.52-.89-2.21-2.14-1.67m-141.26.36-.62.26a4.15,4.15,0,0,1-1,.25,4.59,4.59,0,0,0-1.25.36,3,3,0,0,1-.86.28,1.9,1.9,0,0,0-.72.28,2,2,0,0,1-.63.28,1.39,1.39,0,0,0-.55.28c-.76.56-1.41.34-1.37-.47a1.71,1.71,0,0,0-2.57-1.31,2.38,2.38,0,0,1-.82.27,3.71,3.71,0,0,0-1,.32,4,4,0,0,1-.86.3,3.28,3.28,0,0,0-.88.33,3.67,3.67,0,0,1-.78.33,1.93,1.93,0,0,0-.6.28,1.63,1.63,0,0,1-.59.29c-.43.09-1.22.82-1,.9l.34.1a7.33,7.33,0,0,0,2.47-.32,5.79,5.79,0,0,1,2.7-.3l.32.13,0,1c0,.83-.08,1-.28,1.26a1.66,1.66,0,0,0-.31.51,1.29,1.29,0,0,1-.29.44.63.63,0,0,0-.23.35c0,.13-3.48,3.69-4.45,4.55a3.37,3.37,0,0,0-1.06,1.47c0,.54.14,1.11.28,1.11a1,1,0,0,1,.42.23c.34.26.66.28,1.33.06a8.23,8.23,0,0,1,.92-.23c.26,0,.44-.14.48-.28a1,1,0,0,1,.34-.39c.16-.1.28-.25.28-.33a1.25,1.25,0,0,1,.28-.48,1.29,1.29,0,0,0,.28-.41,1.56,1.56,0,0,1,.31-.41,6.56,6.56,0,0,0,.57-.71,22.43,22.43,0,0,1,1.41-1.85l1.5-1.64a7.19,7.19,0,0,1,.62-.61c.27-.26.55-.54.62-.62a19.13,19.13,0,0,1,3.25-2.58.76.76,0,0,0,.37-.28.87.87,0,0,1,.52-.28,1.11,1.11,0,0,0,.59-.27,2.24,2.24,0,0,1,.83-.35,2.79,2.79,0,0,0,.87-.3,3.14,3.14,0,0,1,1.4-.28c1.52-.08,1.57-.09,1.48-.46a1.67,1.67,0,0,0-2-1.06m46.9.19a1.52,1.52,0,0,1-.57.28,1.5,1.5,0,0,0-.57.25,6.25,6.25,0,0,1-.66.38A11.36,11.36,0,0,0,164.8,119c-.09.2-.21.37-.27.37s-.17.26-.24.59a2.42,2.42,0,0,1-.34.81,2,2,0,0,0-.29,1,5.05,5.05,0,0,1-.34,1.3,2.75,2.75,0,0,0-.27.78,2.5,2.5,0,0,1-.28.79,4.24,4.24,0,0,0-.28.66,5.4,5.4,0,0,1-1.7,1.76,2.34,2.34,0,0,1-.71-.28,2.59,2.59,0,0,0-.73-.28,3.76,3.76,0,0,1-1.34-.89,1,1,0,0,0-.34-.23,2.66,2.66,0,0,1-.59-.51c-.68-.68-1-.68-1.38,0l-.32.52.2.39a12,12,0,0,0,3.33,3.12,4,4,0,0,0,3.32.1,2,2,0,0,1,.7-.3,4.28,4.28,0,0,0,1.83-1.71c.12-.25.29-.58.38-.73a1.32,1.32,0,0,0,.16-.54,2.35,2.35,0,0,1,.22-.74,6.4,6.4,0,0,0,.33-1.41,2.71,2.71,0,0,1,.29-1.13,3,3,0,0,0,.34-.95,3.17,3.17,0,0,1,.39-1.05,1.06,1.06,0,0,0,.24-.43.82.82,0,0,1,.28-.38.94.94,0,0,0,.28-.33,2.49,2.49,0,0,1,.57-.53c.32-.25.69-.56.84-.7a1.83,1.83,0,0,1,.62-.32c.19,0,.38-.14.41-.23s.27-.21.53-.28l.86-.23a1.62,1.62,0,0,1,1.07.1l.67.2,0,.68c0,.36,0,.83-.05,1,0,.69.59.75,1.37.12.35-.28.45-.44.45-.71a1.28,1.28,0,0,1,.18-.62,2.47,2.47,0,0,0-.63-2.13,5.36,5.36,0,0,1-.6-.44c-.51-.41-3.9-.39-4.47,0m64.22,3c-8.58,8.5-8.81,8.8-7.94,10.17.55.87,1.12,1.06,1.64.57a1,1,0,0,1,.37-.24c.26,0,1-.68,3.16-3,1.47-1.56,1.83-2,2.31-2.56l.93-1.16c.37-.47,1.21-1.4,1.86-2.08,1.86-1.94,2.1-2.4,1.89-3.61-.33-1.86-.5-1.78-4.22,1.89m-83-.23c.41.28,0,2.6-.69,3.56a12.56,12.56,0,0,1-2.83,2.56.6.6,0,0,0-.33.2,5.46,5.46,0,0,1-1.06.63l-1.27.63a3.81,3.81,0,0,1-.95.28,2.76,2.76,0,0,0-.92.3,2.62,2.62,0,0,1-1.32.24l-1,0-.47-.49-.46-.49.3-.74c.35-.84.63-1.14,2.65-2.72.47-.37,1-.77,1.09-.9a.9.9,0,0,1,.34-.23,1.31,1.31,0,0,0,.46-.31,5.06,5.06,0,0,1,1.46-1c.14,0,.26-.11.26-.17a6.44,6.44,0,0,1,2.46-1,2.11,2.11,0,0,0,.79-.21,1.18,1.18,0,0,1,1.46-.17"/><path id="path1" class="cls-1" d="M244.63,64.19c.63.48.71.92.19,1.12a5.81,5.81,0,0,0-.58.27c-.25.16-1.91,1-2.34,1.13-.2.08-.37.18-.37.23a3,3,0,0,1-1.29.45c-.78,0-.79-1,0-1.37.26-.12.82-.44,1.26-.71a4.77,4.77,0,0,1,.91-.51,1.1,1.1,0,0,0,.41-.22,6.43,6.43,0,0,1,1.41-.67,2,2,0,0,1,.42.28M48.53,69.25c.07.07.13,2.75.15,7.6,0,8.36,0,7.79.85,8.57,1.58,1.44,10.87,1.36,12.43-.1.77-.73.77-.65.77-8.4,0-8.63-.16-7.92,1.79-7.76l1,.09.1.38c.06.21.08,3.56.06,7.43l0,7-.4.88c-.38.86-1.41,2.1-1.74,2.1a1.45,1.45,0,0,0-.5.28,2.24,2.24,0,0,1-.83.34c-.26,0-.9.19-1.43.32-.9.23-1.21.24-5.18.24H51.3L50.17,88c-2.5-.68-3.57-1.55-4.06-3.31l-.27-1v-7c0-7.43,0-7.35.5-7.44a7.45,7.45,0,0,1,2.19.08m52.62-.06c.51,0,.53,0,.64.42.17.61.17,17.71,0,18.08s-.45.41-2.63.41H97.34l-.4-.42a7.12,7.12,0,0,1-.56-.66c-.08-.13-.37-.48-.62-.78l-1.41-1.68L92.8,82.68c-.35-.41-.74-.9-.87-1.07s-.55-.7-.93-1.16l-.94-1.17c-.14-.18-.37-.46-.51-.62-.56-.64-3.39-4.09-4-4.91s-1-1.2-1.48-1.8c-.16-.19-.36-.44-.45-.57-.47-.67-.49-.29-.49,8.28,0,6.53,0,8.1-.15,8.27a3.35,3.35,0,0,1-2.57-.15c-.21-.27-.32-17.23-.11-18.2l.07-.33,2.22,0,2.22,0,.68.7a5,5,0,0,1,.68.78,17.19,17.19,0,0,0,1.21,1.54l1.55,1.88,1,1.23.84,1.06c.11.14.32.41.47.58s.59.71,1,1.19.89,1.1,1.15,1.39.68.81.92,1.15c.49.67.43.59,2.07,2.58.91,1.12,2,2.53,2.18,2.8,0,0,.13,0,.26-.09S99,85.8,99,77.7c0-6.55.06-8.17.18-8.32s.52-.3,1-.24a8.41,8.41,0,0,0,.93,0m30.16.28c2.86.5,4.29,1.64,5.23,4.17l.33.9v8.1l-.32.9a6,6,0,0,1-2.09,3.07c-2.27,1.38-2.51,1.41-11,1.46l-6.84,0-.17-.27c-.23-.34-.22-18.27,0-18.55s12.88-.16,14.8.18m30.62,0a1.31,1.31,0,0,1,.33.43c0,.09.62,1.37,1.07,2.22a11.54,11.54,0,0,1,.85,1.83,1.41,1.41,0,0,0,.27.52,2.24,2.24,0,0,1,.35.69,1,1,0,0,0,.22.45,1.33,1.33,0,0,1,.29.54,4.16,4.16,0,0,0,.33.7,2,2,0,0,1,.28.56,2.61,2.61,0,0,0,.36.63,1.64,1.64,0,0,1,.26.44c0,.09,1.18,2.56,1.5,3.15.07.12.19.38.28.56a3.9,3.9,0,0,0,.26.51,8,8,0,0,1,.49,1,7.09,7.09,0,0,0,.35.68,7,7,0,0,1,.33.67,4.33,4.33,0,0,0,.28.57,5.33,5.33,0,0,1,.29.56,8.79,8.79,0,0,0,.4.82c.4.78.16,1-1,1.07s-1.65-.28-1.89-1.17a1.57,1.57,0,0,0-.29-.61.45.45,0,0,1-.17-.27,9.79,9.79,0,0,0-.9-1.81,103.32,103.32,0,0,0-12.81,0,.53.53,0,0,0-.25.32,4.09,4.09,0,0,1-.33.81L152.28,87c-.5,1.09-.63,1.15-2.14,1.15-.73,0-.93,0-1-.17a1,1,0,0,1,.21-1.06,1.35,1.35,0,0,0,.28-.56,1.64,1.64,0,0,1,.28-.59,2.33,2.33,0,0,0,.29-.5c0-.09,1.69-3.6,2.2-4.56a2.71,2.71,0,0,0,.27-.68,1.55,1.55,0,0,1,.27-.55,2.65,2.65,0,0,0,.35-.75.83.83,0,0,1,.18-.43,20,20,0,0,0,1.16-2.31,2.68,2.68,0,0,1,.18-.33,7.47,7.47,0,0,0,.33-.68c.13-.28.28-.58.34-.67a18.53,18.53,0,0,0,.91-2,.65.65,0,0,1,.22-.32.64.64,0,0,0,.23-.33,3.13,3.13,0,0,1,.28-.68c.15-.32.35-.76.44-1,.29-.72.59-.82,2.42-.81,1.59,0,1.6,0,1.93.33m36.85,0c1.59.38,2.48.9,2.94,1.74.11.18.26.47.35.62a8.08,8.08,0,0,1,.31,1.64c.2,1.67.24,1.62-1.34,1.62-1.32,0-1.33,0-1.29-.85.07-1.62-.92-2.77-2.78-3.22a41.4,41.4,0,0,0-8.36.27c-1,.26-2.14.85-2.14,1.1a.75.75,0,0,1-.22.32c-.71.65-.64,10.36.08,11.76a3,3,0,0,0,1.56,1.49,8.25,8.25,0,0,1,.83.26,38,38,0,0,0,8.83-.08c1.84-.44,2.3-1,2.42-3,.08-1.46,0-1.39,1.61-1.41,1.28,0,1.26,0,1.19,1.76s-.78,3.2-2,3.74l-.56.28a13.73,13.73,0,0,1-3,.64,44.47,44.47,0,0,1-9.09-.16c-2.48-.54-4.33-1.86-4.65-3.33a5,5,0,0,0-.3-.87c-.21-.47-.21-.75-.18-5.42l0-4.93.31-.72c1-2.25,2.48-3,6.49-3.5.4,0,2.25-.09,4.1-.1h3.36l1.47.34m49.06,0c3.89.86,4.56,2.29,4.47,9.68-.05,4.45-.18,5.41-.89,6.55a5.08,5.08,0,0,1-1.7,1.53,1.27,1.27,0,0,0-.43.23,3.43,3.43,0,0,1-1.07.33c-.49.1-1.22.25-1.62.35a44.79,44.79,0,0,1-8.35,0c-.42-.1-1.1-.24-1.52-.31a3.07,3.07,0,0,1-1-.31c-.16-.1-.46-.28-.68-.39a3.67,3.67,0,0,1-2.14-2.84,53.78,53.78,0,0,1,0-11.34c.57-2.3,1.79-3.13,5.41-3.69a60.1,60.1,0,0,1,9.52.21m-29.26,0c.25.31.28,17.95,0,18.34s-2.21.44-2.41.06c-.08-.14-.11-3.21-.11-9.18s0-9,.11-9.18a3.25,3.25,0,0,1,2.38,0M119.44,71c-.39.1-.41.54-.41,7.69v7.08l.25.17c.21.16.89.18,5.07.18,9.53,0,9.75-.18,9.76-7.67,0-4.69-.14-5.18-2-6.62a7.54,7.54,0,0,0-2.59-.8c-.65-.1-9.7-.13-10.06,0m119,0c-2.93.81-3,1.06-3,8.24l0,4.87.3.51c.93,1.54,1.69,1.74,6.62,1.74s5.72-.22,6.59-1.85l.34-.63V73.41l-.32-.62a3,3,0,0,0-2.09-1.6l-.95-.31h-3.62c-2,0-3.76,0-3.94.11m-79.06.86c-.25.64-1.22,2.72-1.48,3.18-.08.16-.23.46-.32.68s-.39.85-.66,1.41-.58,1.19-.67,1.4-.25.53-.34.68-.34.69-.57,1.18l-.61,1.28c-.34.7-.38.7,5.32.67,4.39,0,5.08-.06,5.17-.21a12,12,0,0,0-1.28-3,5.36,5.36,0,0,1-.27-.57c-.1-.21-.22-.48-.28-.59-.22-.39-2-4-2.3-4.7-.1-.21-.26-.52-.35-.67a6.91,6.91,0,0,1-.33-.71c-.14-.36-.21-.42-.51-.42s-.37.06-.52.42M151.7,94.74A1.36,1.36,0,0,1,152,96.6c-.12.17-.28.42-.35.53a2.06,2.06,0,0,1-.37.44.8.8,0,0,0-.24.35,1.28,1.28,0,0,1-.31.49c-.17.21-.43.56-.59.79a7.57,7.57,0,0,1-.62.78l-.78.9c-.24.29-.62.72-.84,1-.7.74-2.42,2.6-2.75,3s-1.68,1.85-2.16,2.36c-.29.31-.92,1.06-1.35,1.6-.18.24-.49.59-.67.78l-1.13,1.24c-.43.49-1,1.12-1.28,1.4s-.62.69-.79.9-.79.89-1.39,1.51a10.62,10.62,0,0,0-1.1,1.2,13.64,13.64,0,0,1-1.32,1.5c-.26.26-.36.36-1,1.09-1,1.09-1,1.12-1.79,2l-.92,1.13a2.94,2.94,0,0,0-.33.45c-.12.19-.37.49-1.27,1.55-.36.41-.77.9-.91,1.07a5.31,5.31,0,0,1-.55.62,1.1,1.1,0,0,0-.31.4,1.29,1.29,0,0,1-.31.4,6.5,6.5,0,0,0-.6.73,10.94,10.94,0,0,1-1.84,2.21,1,1,0,0,0-.38.25,2.48,2.48,0,0,1-2.64-.09l-.54-.42v-.92c0-.8,0-1,.27-1.33a3.11,3.11,0,0,0,.34-.63.55.55,0,0,1,.3-.3c.12,0,.22-.13.22-.2s.33-.54,1.32-1.61c.36-.38,1-1.11,1.49-1.62l1.16-1.25a1.34,1.34,0,0,0,.3-.38,24.24,24.24,0,0,1,2.79-2.76.13.13,0,0,0,.14-.11,39.35,39.35,0,0,1,3-3.47c.11-.08.21-.2.21-.26a3.11,3.11,0,0,1,.59-.71,22.61,22.61,0,0,0,2.45-2.78,14.13,14.13,0,0,1,1.33-1.49c.6-.55,2.43-2.43,2.83-2.9.9-1.06,1.59-1.83,2.41-2.7a15.31,15.31,0,0,0,1.87-2.17,16.94,16.94,0,0,1,1.38-1.47A28.55,28.55,0,0,0,148,96.09a2.8,2.8,0,0,1,1.49-1.27,1.66,1.66,0,0,0,.66-.3c.47-.36,1-.29,1.52.22m91.7.58a1.59,1.59,0,0,1,.58,2l-.37.65a9.92,9.92,0,0,1-1.12,1.35,17.32,17.32,0,0,0-1.69,1.94c-.12.16-.42.5-.66.76s-.84,1-1.34,1.54a18.52,18.52,0,0,1-1.29,1.41c-.22.18-.49.44-.61.56l-.44.46a.72.72,0,0,0-.22.36.3.3,0,0,1-.16.22,9,9,0,0,0-1,1c-.45.52-1.05,1.2-1.35,1.51s-.84.93-1.2,1.37a10.8,10.8,0,0,1-1.27,1.32,11.77,11.77,0,0,0-1.13,1.1c-.28.33-.91,1-1.41,1.53s-1.08,1.17-1.29,1.45l-.62.79-.56.67c-.19.22-.58.66-.88,1a3.35,3.35,0,0,0-.53.66c0,.05-.12.19-.26.3a1.65,1.65,0,0,0-.37.39c-.06.1-.65.76-1.32,1.46l-1.86,2c-.35.39-1.29,1.37-2.07,2.18a18.83,18.83,0,0,0-1.44,1.57s-.12.19-.26.3a3,3,0,0,0-.48.55l-.48.76c-.15.23-.31.42-.36.42a1.45,1.45,0,0,0-.46.34l-.35.35-1.17,0c-1.51-.05-1.56-.09-1.56-1.39,0-.77,0-1,.23-1.26a2.89,2.89,0,0,0,.36-.67,1.77,1.77,0,0,1,.33-.59c.11-.13.33-.4.48-.6s2.68-2.78,3.19-3.24a17.57,17.57,0,0,0,2-2.1,18,18,0,0,1,1.83-2.14,5.85,5.85,0,0,0,.59-.66s.67-.74,1.49-1.58a53.51,53.51,0,0,0,4.28-4.7c.14-.17.45-.5.69-.73,1.64-1.57,3.79-3.79,3.79-3.9a4.12,4.12,0,0,1,.59-.67l1.49-1.59c.5-.55,1.43-1.53,2.08-2.19s1.36-1.41,1.58-1.67.63-.73.93-1a5.53,5.53,0,0,0,.53-.63,4.65,4.65,0,0,1,.95-.93,4.48,4.48,0,0,0,.67-.6c1.78-1.76,2.09-1.9,2.84-1.31M70.82,97.66c1.56.81,2.1,2.16,1.32,3.31a3.11,3.11,0,0,0-.34.63A4.2,4.2,0,0,1,70.16,103a6.07,6.07,0,0,0-.73.34,4.27,4.27,0,0,1-2.57.05c-.21-.22-.09-.83.25-1.25a1.29,1.29,0,0,0,.07-1.35c-.25-.35-2.55-.31-3.5,0a8.22,8.22,0,0,1-1.4.36,7.21,7.21,0,0,0-1.18.27,9.74,9.74,0,0,1-1.5.32,5.07,5.07,0,0,0-1.19.28,4.33,4.33,0,0,1-1.08.31,5.12,5.12,0,0,0-1.18.32,3.22,3.22,0,0,1-.91.29,3,3,0,0,0-.93.34,1.89,1.89,0,0,1-.73.27,4.25,4.25,0,0,0-1,.35,2.65,2.65,0,0,1-.78.28,1.33,1.33,0,0,0-.57.22,3.53,3.53,0,0,1-1,.35,2.21,2.21,0,0,0-.79.28,3.32,3.32,0,0,1-.81.32,4.37,4.37,0,0,0-.9.33,3,3,0,0,1-.84.28,3.87,3.87,0,0,0-1,.34,3,3,0,0,1-.81.29,3.1,3.1,0,0,0-.79.28,2.77,2.77,0,0,1-.75.29,2.26,2.26,0,0,0-.64.23,4.57,4.57,0,0,1-.86.33,2.11,2.11,0,0,0-.75.34,2,2,0,0,1-.72.29,3,3,0,0,0-.85.34,1.64,1.64,0,0,1-.67.28,2.72,2.72,0,0,0-.78.29,4.56,4.56,0,0,1-.91.34,3.05,3.05,0,0,0-.75.28,7.2,7.2,0,0,1-.88.38l-1.25.44a6.06,6.06,0,0,0-.87.38,3,3,0,0,1-.77.3,3,3,0,0,0-.76.34,1.77,1.77,0,0,1-.68.28,1.51,1.51,0,0,0-.59.23,2.35,2.35,0,0,1-.66.33,3.08,3.08,0,0,0-.77.4,1.12,1.12,0,0,1-.42.22,1.17,1.17,0,0,0-.47.29,1.19,1.19,0,0,1-.51.28,1.51,1.51,0,0,0-.6.34,1.62,1.62,0,0,1-.62.33.92.92,0,0,0-.45.28,1.26,1.26,0,0,1-.57.34,1.05,1.05,0,0,0-.46.24,1.67,1.67,0,0,1-.52.33,5.6,5.6,0,0,0-1.41,1,1.11,1.11,0,0,1-.42.28c-.06,0-.11.07-.11.14a1,1,0,0,1-.31.44,3.93,3.93,0,0,0-1.12,3,4.5,4.5,0,0,0,1.75,2.19.47.47,0,0,1,.28.23,1,1,0,0,0,.49.29,2.08,2.08,0,0,1,.65.34,1.69,1.69,0,0,0,.59.27,1.76,1.76,0,0,1,.62.28,1.83,1.83,0,0,0,.71.29,2.69,2.69,0,0,1,.81.29,3.87,3.87,0,0,0,1,.31,7.69,7.69,0,0,1,1.16.33,6.59,6.59,0,0,0,1.16.3,6.16,6.16,0,0,1,1.18.29,7,7,0,0,0,1.26.28,4.46,4.46,0,0,1,1.12.28,9,9,0,0,0,2.93.28c1.36,0,2.86.12,3.32.18,3.29.42,3.6.43,4.73.2a35.69,35.69,0,0,1,5.68-.33c3.7-.1,4.7-.16,5-.29a11.08,11.08,0,0,1,2.6-.27,12.33,12.33,0,0,0,3-.33,24.92,24.92,0,0,1,6.7-.4c1.39.13,1.75.41,1.93,1.53.28,1.71-.39,2.15-3.22,2.12a50,50,0,0,0-6,.35c-.61.06-1.47.11-1.92.11a4.1,4.1,0,0,0-1.12.13c-.3.12-1.37.18-6.91.43a14.54,14.54,0,0,0-2.64.25,37.43,37.43,0,0,1-7.64-.05,7.45,7.45,0,0,0-2.67-.19c-2.19,0-3.77-.18-4.1-.45a3.93,3.93,0,0,0-1.08-.24,6.77,6.77,0,0,1-1.33-.28,7.1,7.1,0,0,0-1.25-.29,7.07,7.07,0,0,1-1.46-.37,6,6,0,0,0-1.13-.33,2.86,2.86,0,0,1-.84-.29,2.8,2.8,0,0,0-.8-.28,2.68,2.68,0,0,1-.78-.29,3.14,3.14,0,0,0-.74-.28,3.46,3.46,0,0,1-.86-.35,2.06,2.06,0,0,0-.68-.27,1.53,1.53,0,0,1-.6-.28,1.35,1.35,0,0,0-.56-.28,1.55,1.55,0,0,1-.62-.34,1.79,1.79,0,0,0-.54-.34.8.8,0,0,1-.35-.21,6.81,6.81,0,0,1-1.94-2.37,1.31,1.31,0,0,0-.22-.46,4.82,4.82,0,0,1-.39-2.68,6.44,6.44,0,0,1,1-2.38c.05,0,.12-.12.16-.26a10,10,0,0,1,2.57-2.76,1.39,1.39,0,0,0,.42-.36s.13-.14.28-.21a2,2,0,0,0,.48-.3,6.94,6.94,0,0,1,1.56-1,.49.49,0,0,0,.29-.18,2.19,2.19,0,0,1,.6-.4,9.61,9.61,0,0,0,1.07-.6,19.18,19.18,0,0,1,1.9-1.07,3.55,3.55,0,0,0,.7-.45,1.25,1.25,0,0,1,.6-.29,1,1,0,0,0,.53-.23,2,2,0,0,1,.68-.32,3.49,3.49,0,0,0,.86-.38,2.32,2.32,0,0,1,.7-.3,1.94,1.94,0,0,0,.65-.28,1.91,1.91,0,0,1,.66-.28,2.11,2.11,0,0,0,.72-.3,2.44,2.44,0,0,1,.78-.33,2.48,2.48,0,0,0,.77-.32,2.15,2.15,0,0,1,.76-.29,2.67,2.67,0,0,0,.78-.28,4,4,0,0,1,.85-.34,2.08,2.08,0,0,0,.67-.28,2.69,2.69,0,0,1,.73-.27,2.85,2.85,0,0,0,.81-.34,1.73,1.73,0,0,1,.69-.29,2.76,2.76,0,0,0,.76-.28,3.43,3.43,0,0,1,.91-.32,4.12,4.12,0,0,0,1-.34,3,3,0,0,1,.91-.29,1.43,1.43,0,0,0,.65-.23,1.67,1.67,0,0,1,.71-.29,4.72,4.72,0,0,0,1-.35,3.8,3.8,0,0,1,.9-.28,2.56,2.56,0,0,0,.86-.28,4.08,4.08,0,0,1,1-.34,3.09,3.09,0,0,0,.89-.33,2.77,2.77,0,0,1,.88-.32,3.29,3.29,0,0,0,.85-.29,3,3,0,0,1,.93-.29,2.84,2.84,0,0,0,.79-.23,4.73,4.73,0,0,1,1-.32A7.65,7.65,0,0,0,56,99.32a4.14,4.14,0,0,1,.9-.29,4,4,0,0,0,.92-.28,5.25,5.25,0,0,1,1.4-.3,6.35,6.35,0,0,0,1.35-.28,8.21,8.21,0,0,1,1.69-.33,15.2,15.2,0,0,0,2-.33,9.43,9.43,0,0,1,1.75-.18c.62,0,1.38,0,1.69-.09a5.85,5.85,0,0,1,3.08.42m169.41,9a1.51,1.51,0,0,0,.47.16c.43,0,1.15.94,1.18,1.53a4.4,4.4,0,0,1-.5,2l-.5.61c-.89,1.17-3,.79-3.74-.69a3.22,3.22,0,0,1,1-3.22,2.66,2.66,0,0,0,.4-.36,1.44,1.44,0,0,1,1.65,0M151.78,112a1.61,1.61,0,0,1,.41.53,1.7,1.7,0,0,0,.3.49,1.65,1.65,0,0,1,.28.67c.14,1,1.08,2.3,1.6,2.3.37,0,.35.46,0,.85s-.46.53-.28,1.92a5.73,5.73,0,0,1-.33,2.91,4.18,4.18,0,0,0-.35.77c-.07.23-.18.42-.23.42s-.19.16-.29.36a5.79,5.79,0,0,1-1.44,1.64l-.9.76a1.15,1.15,0,0,1-.46.28.68.68,0,0,0-.34.22,1.61,1.61,0,0,1-.61.35,2.9,2.9,0,0,0-.66.34,1.76,1.76,0,0,1-.59.27,1,1,0,0,0-.45.23,2.14,2.14,0,0,1-.67.33,2.18,2.18,0,0,0-.68.34,1.13,1.13,0,0,1-.55.24,2.65,2.65,0,0,0-.84.34,3.35,3.35,0,0,1-1.12.39,3.19,3.19,0,0,0-.81.21,7.59,7.59,0,0,1-3,.34H138.1l-.59-.38c-1.09-.7-1.31-1.21-1.31-2.94,0-1.38.06-1.68.39-2.2,0-.09.17-.29.25-.45a7.31,7.31,0,0,1,.91-1.41,1.66,1.66,0,0,0,.31-.45,4,4,0,0,1,.59-.68l.72-.75c.13-.13.86-.8,1.81-1.64l.6-.53a2.2,2.2,0,0,1,.59-.33c.23-.1.41-.23.41-.29s.18-.2.38-.31a22,22,0,0,1,2.66-1.26,1.47,1.47,0,0,0,.5-.22,4.14,4.14,0,0,1,1.08-.35,10.13,10.13,0,0,0,2-.55c.13-.07.16-.29.13-1.07-.06-1.51.25-2,1.35-2a1.1,1.1,0,0,1,.87.28M89.6,113.27c.48.09,1.56.21,2.38.28a8.78,8.78,0,0,1,2.06.34,3,3,0,0,0,.82.23,2.42,2.42,0,0,1,.81.28,3.5,3.5,0,0,0,.69.28,2.23,2.23,0,0,1,.94.45c0,.05.22.17.5.27s.51.25.51.3.14.17.31.24a10.34,10.34,0,0,1,2.9,2.79c0,.12.11.23.16.23.32,0,.58,1.82.35,2.51a2.88,2.88,0,0,1-1.09,1.3,11.51,11.51,0,0,1-5.16-.14,4.48,4.48,0,0,0-1.13-.28,8.49,8.49,0,0,1-1.41-.35,10.43,10.43,0,0,0-1.74-.4c-.69-.1-1.52-.26-1.86-.34a23.61,23.61,0,0,0-6.72.11c-.49.15-1.06.3-1.28.35a5.68,5.68,0,0,0-1.69,1,3,3,0,0,0-.88,2.94c.31.69,4.69.85,7.21.27A12.58,12.58,0,0,1,88,125.6a3.35,3.35,0,0,0,1-.22A7.57,7.57,0,0,1,90.5,125a8.7,8.7,0,0,0,1.39-.28,11.15,11.15,0,0,1,1.8-.28,11.58,11.58,0,0,0,2-.36,8.1,8.1,0,0,1,2.66-.21h2l.46.5a2.57,2.57,0,0,1,.53.82,2.53,2.53,0,0,0,.23.56c.51.82-.6,1.61-2.37,1.68a25.53,25.53,0,0,0-4.69.5,6.41,6.41,0,0,1-1.46.28,14.71,14.71,0,0,0-3,.5,16.4,16.4,0,0,1-2.25.28,16.07,16.07,0,0,0-2.24.27,9.69,9.69,0,0,1-1.81.25c-.81.07-1.67.17-1.92.22a1.2,1.2,0,0,1-.55,0,18.18,18.18,0,0,0-1.84-.15c-1.58-.09-1.79-.12-2.16-.37a2.72,2.72,0,0,0-.71-.35,4,4,0,0,1-1.58-1.81,5.83,5.83,0,0,1,.35-3.44,2.5,2.5,0,0,0,.29-.56,9.09,9.09,0,0,1,1.74-2.44,4.2,4.2,0,0,1,1.36-1.1,3.36,3.36,0,0,0,.56-.34A3.2,3.2,0,0,1,80,119a2.63,2.63,0,0,0,.57-.3,3.15,3.15,0,0,1,.85-.31,9.38,9.38,0,0,0,1.07-.33c.88-.38,6.64-.33,7.89.08a12.46,12.46,0,0,0,1.67.29,7.45,7.45,0,0,1,1.47.29,6.1,6.1,0,0,0,1.2.31,5.17,5.17,0,0,1,1.18.34,2.94,2.94,0,0,0,1.7.32c.15-.16-.1-.78-.35-.86a1.89,1.89,0,0,1-.49-.33,1.52,1.52,0,0,0-.62-.36,5.16,5.16,0,0,1-.82-.34,2.28,2.28,0,0,0-.77-.27,5.21,5.21,0,0,1-1.07-.27,9.41,9.41,0,0,0-1.79-.39,4.38,4.38,0,0,1-1.24-.28,11,11,0,0,0-4.15,0c-.15.26-.88.45-1.72.45-1.6,0-2.2-2.24-.75-2.8a1.09,1.09,0,0,0,.45-.26c0-.15.62-.32,1.43-.38a4.14,4.14,0,0,0,1.12-.24,5.88,5.88,0,0,1,2.82,0M266,114.76l.37.54v1.41a3.81,3.81,0,0,1-.19,1.74,4.62,4.62,0,0,0-.32,1.07,5.5,5.5,0,0,1-.34,1.15c-.39.76-.26,1.47.18,1a.68.68,0,0,1,.34-.23,1,1,0,0,0,.46-.26,9.89,9.89,0,0,1,1.28-.74,14.09,14.09,0,0,0,2.2-1.23,1.16,1.16,0,0,1,.45-.24.55.55,0,0,0,.29-.19,2,2,0,0,1,.62-.38,1.6,1.6,0,0,0,.54-.32,1.27,1.27,0,0,1,.49-.24,2.24,2.24,0,0,0,.64-.34,2.22,2.22,0,0,1,.69-.33,1.33,1.33,0,0,0,.61-.29,1.59,1.59,0,0,1,.6-.29,2.48,2.48,0,0,0,.73-.34,1.07,1.07,0,0,1,.46-.21,3.6,3.6,0,0,0,.86-.34,3.74,3.74,0,0,1,.86-.34,2.76,2.76,0,0,0,.74-.29,4.85,4.85,0,0,1,1.17-.38l1.22-.23c1.82-.39,4.54.57,4.91,1.72a1.87,1.87,0,0,0,.29.53,3.2,3.2,0,0,1,.33,1,4.36,4.36,0,0,0,.31,1,21.89,21.89,0,0,1,0,6,5.76,5.76,0,0,0-.32,1.07,4.17,4.17,0,0,1-.34,1,3.25,3.25,0,0,0-.28.62,4.88,4.88,0,0,1-1.56,1.81,2.63,2.63,0,0,1-2.06.24,1.65,1.65,0,0,1-.56-1.91,3.42,3.42,0,0,0,.23-.76,3.54,3.54,0,0,1,.29-.81,4.32,4.32,0,0,0,.35-1.07,3.57,3.57,0,0,1,.29-1,10.52,10.52,0,0,0,.32-3.38,2.13,2.13,0,0,0-1.85-1.93,5.52,5.52,0,0,0-2.92.34,2.09,2.09,0,0,1-.76.28,1.93,1.93,0,0,0-.75.27,3.26,3.26,0,0,1-.7.34,1.28,1.28,0,0,0-.54.29,1.2,1.2,0,0,1-.51.28,2.24,2.24,0,0,0-.64.32,2.54,2.54,0,0,1-.59.34,1.68,1.68,0,0,0-.54.35,1.24,1.24,0,0,1-.52.28.59.59,0,0,0-.39.22.94.94,0,0,1-.42.29,3,3,0,0,0-.68.41,1.16,1.16,0,0,1-.46.26.49.49,0,0,0-.3.18,2,2,0,0,1-.63.4c-.27.12-.48.26-.48.31s-.2.18-.45.29a2.28,2.28,0,0,0-.64.41.64.64,0,0,1-.32.21,1.58,1.58,0,0,0-.54.31,8.2,8.2,0,0,1-.77.53c-.2.13-.48.31-.6.4l-.61.39c-.21.13-.54.35-.75.51l-.78.56-.81.59a1.59,1.59,0,0,1-.55.31,1.21,1.21,0,0,0-.44.24c-.78.62-2.69.75-3.14.22a2.6,2.6,0,0,1,0-2.65l.36-.57c.08-.12.25-.4.38-.62a2.61,2.61,0,0,0,.33-.78,3.56,3.56,0,0,1,.28-.79,5.65,5.65,0,0,0,.34-1.07,6.29,6.29,0,0,1,.29-1,8.17,8.17,0,0,0,.45-2c.08-.46-.22-.62-.51-.27a.93.93,0,0,1-.43.23,3.1,3.1,0,0,0-.7.33,10.79,10.79,0,0,1-1.47.8c-.21.1-.47.23-.56.29s-.42.23-.74.38a2.86,2.86,0,0,0-.71.44.91.91,0,0,1-.41.24,2.7,2.7,0,0,0-.69.34,1.48,1.48,0,0,1-.61.28.36.36,0,0,0-.28.13,2.6,2.6,0,0,1-.67.39,2.57,2.57,0,0,0-.67.37,1.22,1.22,0,0,1-.49.25,2,2,0,0,0-.64.33,2.13,2.13,0,0,1-.64.33,1.45,1.45,0,0,0-.55.29,1.54,1.54,0,0,1-.57.3,1.63,1.63,0,0,0-.62.33.64.64,0,0,1-.38.21,1,1,0,0,0-.48.23,5.81,5.81,0,0,1-.78.45l-.77.38c-.15.09-.41.22-.56.29s-.79.4-1.41.74l-1.52.8-1,.51a3.57,3.57,0,0,1-.92.32,4.39,4.39,0,0,0-.91.24c-1.9.69-3.79,0-3.45-1.22a6.54,6.54,0,0,1,.75-1.82l.67-.72a4.44,4.44,0,0,1,.55-.54,4.27,4.27,0,0,0,1-1s.1-.13.22-.17a.47.47,0,0,0,.29-.28.5.5,0,0,1,.29-.28c.12,0,.22-.13.22-.19a1.68,1.68,0,0,1,.36-.54c.2-.24.5-.62.65-.85a11.62,11.62,0,0,1,1.07-1.34,4,4,0,0,0,.44-.58,10,10,0,0,1,1.25-1.43c.53-.56,1-1.2.94-1.25l-.46-.21c-1-.44.32-1.33,2.55-1.78,1.63-.32,3.41,1.49,2.28,2.32a.87.87,0,0,0-.25.41,1.26,1.26,0,0,1-.26.5,2.31,2.31,0,0,0-.34.56,4.72,4.72,0,0,1-.8,1c-.9.9-.93.92-1.19,1.2a1.24,1.24,0,0,0-.3.55c-.06.35.08.44.17.1,0-.13.2-.23.45-.28a1.8,1.8,0,0,0,.66-.28,1.73,1.73,0,0,1,.63-.29,1.94,1.94,0,0,0,.62-.28,2.85,2.85,0,0,1,.7-.34,1.56,1.56,0,0,0,.57-.28,2.57,2.57,0,0,1,.62-.39,8.08,8.08,0,0,0,1.51-.89,1.24,1.24,0,0,1,.51-.25,1.43,1.43,0,0,0,.56-.27,2.23,2.23,0,0,1,.71-.35,2.93,2.93,0,0,0,.73-.34,1.81,1.81,0,0,1,.58-.28,1.38,1.38,0,0,0,.52-.22,3.16,3.16,0,0,1,.79-.35,2.17,2.17,0,0,0,.62-.27,2.29,2.29,0,0,1,.67-.29,2.5,2.5,0,0,0,.7-.3,2.49,2.49,0,0,1,.72-.32,4.22,4.22,0,0,0,.83-.35,8.47,8.47,0,0,1,2.09-.7,7.44,7.44,0,0,1,1.37-.11h1l.38.53m-92.65-.08c1.93.49,2.82,2.08,2.08,3.75-1,2.29-3.49,2.07-2.61-.23.25-.67.14-.76-1-.76a1.77,1.77,0,0,0-1.32.31,2.06,2.06,0,0,1-.56.31,1.91,1.91,0,0,0-.55.33,2,2,0,0,1-.51.34,6.58,6.58,0,0,0-1.57,1.71,5.17,5.17,0,0,1-.34.71,3.19,3.19,0,0,0-.28.9,4.48,4.48,0,0,1-.28,1,6.45,6.45,0,0,0-.33,1.32,5,5,0,0,1-.33,1.3,5.67,5.67,0,0,0-.29.75,5.83,5.83,0,0,1-1.93,2.43,4,4,0,0,0-.79.35,6.15,6.15,0,0,1-3.82.18c-.18-.1-.51-.27-.73-.37a16.19,16.19,0,0,1-3.19-3.3c-.15-.76.59-1.82,1.27-1.82.41,0,.4,0,1.81,1.38a1.2,1.2,0,0,0,.43.31,1.21,1.21,0,0,1,.44.28,2.56,2.56,0,0,0,.88.4,3,3,0,0,1,.8.28c.21.14.25.14.31,0a.72.72,0,0,1,.34-.29c.16-.07.29-.2.29-.27a1.18,1.18,0,0,1,.27-.47,2.43,2.43,0,0,0,.39-.77,3.48,3.48,0,0,1,.35-.78,1.5,1.5,0,0,0,.23-.65,4.11,4.11,0,0,1,.28-1,4.8,4.8,0,0,0,.28-1,2.72,2.72,0,0,1,.27-.8,10.07,10.07,0,0,0,.41-1,.92.92,0,0,1,.28-.48.5.5,0,0,0,.21-.31,10.27,10.27,0,0,1,2-2.16,8.89,8.89,0,0,1,3.44-1.8,2.74,2.74,0,0,0,.68-.18,6.13,6.13,0,0,1,2.63.13m-57.94.61a1.35,1.35,0,0,1,.53,1.1c.07.61.18.79.33.55a2.08,2.08,0,0,1,.6-.3,3.24,3.24,0,0,0,.7-.34,2.63,2.63,0,0,1,.73-.28,3.61,3.61,0,0,0,.84-.3,12.84,12.84,0,0,1,2.54-.76c1.88-.45,3.33.06,3.32,1.17,0,.71-.36.91-1.63.91a4.58,4.58,0,0,0-1.32.23,4.15,4.15,0,0,1-.9.22,1.93,1.93,0,0,0-.71.28,1.91,1.91,0,0,1-.63.28,1.65,1.65,0,0,0-.6.34,1.64,1.64,0,0,1-.59.34.29.29,0,0,0-.22.17.48.48,0,0,1-.27.23,6.23,6.23,0,0,0-1.46,1.12,1.24,1.24,0,0,1-.38.28s-.19.13-.31.28a.75.75,0,0,1-.39.29c-.08,0-.16.05-.16.11a3.7,3.7,0,0,1-.64.79,23.77,23.77,0,0,0-3.08,3.56,1.15,1.15,0,0,1-.39.42.27.27,0,0,0-.17.22,9.65,9.65,0,0,1-2.35,2.78,1.69,1.69,0,0,0-.54.24,2.3,2.3,0,0,1-2.21,0c-.15-.15-.36-.34-.46-.42s-.18-.35-.18-.94c0-1.1,0-1.15,1.75-2.78,1.43-1.37,3.66-3.65,3.66-3.76a1.27,1.27,0,0,1,.26-.39,3.36,3.36,0,0,0,.41-.71,2.26,2.26,0,0,1,.32-.59,1.7,1.7,0,0,0,.18-.85v-.65l-.66,0a1.83,1.83,0,0,0-1.07.18,5.45,5.45,0,0,1-2,.48l-1.27.17a.72.72,0,0,1-.91-.53c-.06-.24.81-1.22,1.09-1.22a1.47,1.47,0,0,0,.51-.28,2.34,2.34,0,0,1,.74-.34.9.9,0,0,0,.5-.22,1.89,1.89,0,0,1,.66-.29,4.33,4.33,0,0,0,.85-.3,4.65,4.65,0,0,1,1-.32,8.15,8.15,0,0,0,1.15-.39,2.94,2.94,0,0,1,2.9.27m122.23-.38a3.13,3.13,0,0,1,.88,1.88,5.68,5.68,0,0,1-1.79,3c-.17.15-1.08,1-1.38,1.37a.76.76,0,0,0-.23.32,6.61,6.61,0,0,1-1,1.24l-.63.73c-1,1.18-1.41,1.68-2.21,2.54a20.31,20.31,0,0,1-3,2.93,1.7,1.7,0,0,0-.52.38c-.33.44-1.45.31-2-.25l-.54-.51v-1c0-1.22-.14-1,2.54-3.78,1.09-1.13,2.24-2.33,2.55-2.67.86-1,5-5,6-5.88a1.17,1.17,0,0,1,1.41-.31m-87.9,3.42a1.37,1.37,0,0,1-.72.29,5.5,5.5,0,0,0-1.1.34,4.79,4.79,0,0,1-.81.27,1.06,1.06,0,0,0-.49.24,2,2,0,0,1-.63.34c-.27.11-.49.23-.49.29s-.19.19-.43.31a2.77,2.77,0,0,0-.63.45.73.73,0,0,1-.34.24,1,1,0,0,0-.42.31c-.17.17-.42.39-.56.5s-.49.37-.76.59a3,3,0,0,1-.57.4,6.15,6.15,0,0,0-1.22,1c-.7.7-.71,1.72,0,2a9.34,9.34,0,0,0,3.38-.62,3.12,3.12,0,0,1,.79-.3,1.2,1.2,0,0,0,.53-.21s.22-.18.48-.3a4.31,4.31,0,0,0,.8-.46,1.27,1.27,0,0,1,.43-.26,4.71,4.71,0,0,0,1.16-.88,3.08,3.08,0,0,1,.48-.35c.14-.07.25-.2.25-.28s.13-.24.29-.34.28-.24.28-.3a2.34,2.34,0,0,1,.34-.63,4.69,4.69,0,0,0,.47-2.54c0-.34-.4-.44-.51-.15"/><path id="path2" class="cls-1" d="M243.63,64.14a3.7,3.7,0,0,0-.83.44,1.1,1.1,0,0,1-.41.22,4.77,4.77,0,0,0-.91.51c-.44.27-1,.59-1.26.71-.77.36-.76,1.37,0,1.37a3,3,0,0,0,1.29-.45s.17-.15.37-.23c.43-.17,2.09-1,2.34-1.13a5.81,5.81,0,0,1,.58-.27c.4-.15.42-.17.3-.5s-.77-1-.91-.9l-.58.23m-219.21,5-7.18,0V88l.52.07c1.31.18,2.25,0,2.35-.41,0-.14.07-2,.08-4.09,0-3,.06-3.87.19-4s.69-.19,5.86-.19c6.43,0,6.17,0,6.06-.78s.26-.85-6.11-.88l-5.69,0-.17-.27a27.06,27.06,0,0,1,.05-6.3c.14-.16.7-.18,6-.18,6.68,0,6.22.07,6.1-.93-.07-.63-.29-.89-.68-.85-.13,0-3.47,0-7.41.06m21.92,0c-.51.09-.5,0-.5,7.44v7l.27,1c.49,1.76,1.56,2.63,4.06,3.31l1.13.3h4.22c4,0,4.28,0,5.18-.24.53-.13,1.17-.28,1.43-.32a2.24,2.24,0,0,0,.83-.34,1.45,1.45,0,0,1,.5-.28c.33,0,1.36-1.24,1.74-2.1l.4-.88,0-7c0-3.87,0-7.22-.06-7.43l-.1-.38-1-.09c-1.95-.16-1.79-.87-1.79,7.76,0,7.75,0,7.67-.77,8.4-1.56,1.46-10.85,1.54-12.43.1-.87-.78-.82-.21-.85-8.57,0-4.85-.08-7.53-.15-7.6a7.45,7.45,0,0,0-2.19-.08m53.24,0C99,69.27,99,69,99,77.7c0,8.1,0,8.15-.26,8.27s-.25.11-.26.09c-.17-.27-1.27-1.68-2.18-2.8-1.64-2-1.58-1.91-2.07-2.58-.24-.34-.66-.86-.92-1.15s-.78-.92-1.15-1.39-.8-1-1-1.19-.36-.44-.47-.58l-.84-1.06-1-1.23L87.36,72.2a17.19,17.19,0,0,1-1.21-1.54,5,5,0,0,0-.68-.78l-.68-.7-2.22,0-2.22,0-.07.33c-.21,1-.1,17.93.11,18.2a3.35,3.35,0,0,0,2.57.15c.12-.17.15-1.74.15-8.27,0-8.57,0-9,.49-8.28.09.13.29.38.45.57.52.6.79.92,1.48,1.8s3.46,4.27,4,4.91c.14.16.37.44.51.62L91,80.45c.38.46.8,1,.93,1.16s.52.66.87,1.07l1.55,1.88,1.41,1.68c.25.3.54.65.62.78a7.12,7.12,0,0,0,.56.66l.4.42h1.82c2.18,0,2.46,0,2.63-.41s.17-17.47,0-18.08c-.11-.41-.13-.42-.64-.42a8.41,8.41,0,0,1-.93,0,2.67,2.67,0,0,0-.64,0m16.93.14c-.23.28-.24,18.21,0,18.55l.17.27,6.84,0c8.44,0,8.68-.08,11-1.46a6,6,0,0,0,2.09-3.07l.32-.9v-8.1l-.33-.9c-.94-2.53-2.37-3.67-5.23-4.17-1.92-.34-14.54-.49-14.8-.18m41.56,0a1.46,1.46,0,0,0-.49.62c-.09.23-.29.67-.44,1a3.13,3.13,0,0,0-.28.68.64.64,0,0,1-.23.33.65.65,0,0,0-.22.32,18.53,18.53,0,0,1-.91,2c-.06.09-.21.39-.34.67a7.47,7.47,0,0,1-.33.68,2.68,2.68,0,0,0-.18.33,20,20,0,0,1-1.16,2.31.83.83,0,0,0-.18.43,2.65,2.65,0,0,1-.35.75,1.55,1.55,0,0,0-.27.55,2.71,2.71,0,0,1-.27.68c-.51,1-2.2,4.47-2.2,4.56a2.33,2.33,0,0,1-.29.5,1.64,1.64,0,0,0-.28.59,1.35,1.35,0,0,1-.28.56,1,1,0,0,0-.21,1.06c.05.14.25.17,1,.17,1.51,0,1.64-.06,2.14-1.15l.76-1.59a4.09,4.09,0,0,0,.33-.81.53.53,0,0,1,.25-.32,103.32,103.32,0,0,1,12.81,0,9.79,9.79,0,0,1,.9,1.81.45.45,0,0,0,.17.27,1.57,1.57,0,0,1,.29.61c.24.89.75,1.21,1.89,1.17s1.44-.29,1-1.07a8.79,8.79,0,0,1-.4-.82,5.33,5.33,0,0,0-.29-.56,4.33,4.33,0,0,1-.28-.57,7,7,0,0,0-.33-.67,7.09,7.09,0,0,1-.35-.68,8,8,0,0,0-.49-1,3.9,3.9,0,0,1-.26-.51c-.09-.18-.21-.44-.28-.56-.32-.59-1.5-3.06-1.5-3.15a1.64,1.64,0,0,0-.26-.44,2.61,2.61,0,0,1-.36-.63,2,2,0,0,0-.28-.56,4.16,4.16,0,0,1-.33-.7,1.33,1.33,0,0,0-.29-.54,1,1,0,0,1-.22-.45,2.24,2.24,0,0,0-.35-.69,1.41,1.41,0,0,1-.27-.52,11.54,11.54,0,0,0-.85-1.83c-.45-.85-1.07-2.13-1.07-2.22,0-.7-3.24-1.14-4.19-.57m31.78-.14c-4,.45-5.5,1.25-6.49,3.5l-.31.72,0,4.93c0,4.67,0,5,.18,5.42a5,5,0,0,1,.3.87c.32,1.47,2.17,2.79,4.65,3.33a44.47,44.47,0,0,0,9.09.16,13.73,13.73,0,0,0,3-.64l.56-.28c1.22-.54,1.92-1.85,2-3.74s.09-1.78-1.19-1.76c-1.6,0-1.53,0-1.61,1.41-.12,2-.58,2.54-2.42,3a38,38,0,0,1-8.83.08,8.25,8.25,0,0,0-.83-.26,3,3,0,0,1-1.56-1.49c-.72-1.4-.79-11.11-.08-11.76a.75.75,0,0,0,.22-.32c0-.25,1.14-.84,2.14-1.1A41.4,41.4,0,0,1,197,71c1.86.45,2.85,1.6,2.78,3.22,0,.84,0,.85,1.29.85,1.58,0,1.54,0,1.34-1.62a8.08,8.08,0,0,0-.31-1.64c-.09-.15-.24-.44-.35-.62-.46-.84-1.35-1.36-2.94-1.74l-1.47-.34H194c-1.85,0-3.7.06-4.1.1m48.47,0c-3.62.56-4.84,1.39-5.41,3.69a53.78,53.78,0,0,0,0,11.34A3.67,3.67,0,0,0,235,87.06c.22.11.52.29.68.39a3.07,3.07,0,0,0,1,.31c.42.07,1.1.21,1.52.31a44.79,44.79,0,0,0,8.35,0c.4-.1,1.13-.25,1.62-.35a3.43,3.43,0,0,0,1.07-.33,1.27,1.27,0,0,1,.43-.23,5.08,5.08,0,0,0,1.7-1.53c.71-1.14.84-2.1.89-6.55.05-4.09,0-4.26-.42-6.45-.32-1.57-1.78-2.73-4-3.23a60.1,60.1,0,0,0-9.52-.21m27.92,0c-.48.08-.47-.12-.49,9.53,0,10.13-.11,9.24,1.08,9.35a4.82,4.82,0,0,0,1.09,0c.8-.15.75.45.75-8.45,0-7.77,0-8,.22-8.22s.22-.18.41.13a5.19,5.19,0,0,0,.44.56c.31.34,1,1.2,1.73,2.18.21.27.48.6.59.73.36.4,3.21,3.83,3.63,4.37s1.06,1.35,1.22,1.54l.49.58.64.78c.72.92,1.13,1.41,2.48,3a24.09,24.09,0,0,1,1.57,2c.33.74,2.21,1,4.67.79l.71-.08V69.19h-1.35c-1.35,0-1.36,0-1.47.29s-.1,3.35-.1,8.27c0,8.11,0,8.33-.38,8.33,0,0-1-1.23-2.13-2.62-.74-.95-1.2-1.5-1.44-1.76-.1-.1-.46-.56-.8-1s-.8-1-1-1.27c-.41-.45-.53-.6-1.56-1.88l-.9-1.12-1.19-1.47-1.91-2.36c-.53-.65-1.24-1.53-1.57-1.95s-.78-.92-1-1.11l-.34-.35h-1.89c-1,0-2,0-2.22,0m-50,.22c-.08.14-.11,3.22-.11,9.18s0,9,.11,9.18c.2.38,2.16.33,2.41-.06s.22-18,0-18.34a3.25,3.25,0,0,0-2.38,0M129.5,71a7.54,7.54,0,0,1,2.59.8c1.88,1.44,2,1.93,2,6.62,0,6-.62,7.19-3.85,7.55a92.85,92.85,0,0,1-11-.06l-.25-.17V78.65c0-7.15,0-7.59.41-7.69s9.41-.07,10.06,0m117.45.2a3,3,0,0,1,2.09,1.6l.32.62V83.88l-.34.63c-.87,1.63-1.64,1.85-6.59,1.85s-5.69-.2-6.62-1.74l-.3-.51,0-4.87c-.05-6.78.07-7.22,2.07-7.95,1-.37,1.22-.39,4.84-.4H246l.95.31m-86.54.67a6.91,6.91,0,0,0,.33.71c.09.15.25.46.35.67.31.71,2.08,4.31,2.3,4.7.06.11.18.38.28.59a5.36,5.36,0,0,0,.27.57,12,12,0,0,1,1.28,3c-.09.15-.78.18-5.17.21-5.7,0-5.66,0-5.32-.67l.61-1.28c.23-.49.49-1,.57-1.18s.24-.46.34-.68.4-.85.67-1.4.57-1.19.66-1.41.24-.52.32-.68c.26-.46,1.23-2.54,1.48-3.18.15-.36.22-.42.52-.42s.37.06.51.42m70.52,20.81a7.61,7.61,0,0,1-.91.26,3.9,3.9,0,0,0-1.17.46,1,1,0,0,1-.49.23.54.54,0,0,0-.35.18,2.19,2.19,0,0,1-.58.4,1.18,1.18,0,0,0-.49.38.86.86,0,0,1-.46.29,8.21,8.21,0,0,0-1.79,1.51c-.77.76-1.69,1.61-2,1.87a3.54,3.54,0,0,0-.69.63c0,.08-.1.15-.16.15a35.07,35.07,0,0,0-3.64,3.77,21,21,0,0,1-1.64,1.7,9.87,9.87,0,0,0-.8.85c-.49.62-1,1.26-1.33,1.57s-.55.58-2,2.22l-1.17,1.29a5,5,0,0,0-.72.92,1.09,1.09,0,0,1-.34.43c-.15.12-.27.26-.27.31a1.4,1.4,0,0,1-.31.42c-.17.17-.85,1-1.52,1.78L206.59,116c-.13.17-.47.57-.75.9-.59.71-1.86,2.08-3,3.22a9.33,9.33,0,0,0-1.36,1.52,13.49,13.49,0,0,1-1.56,1.77l-.85.78-.63.59a1,1,0,0,1-.31.22,2.9,2.9,0,0,0-.56.46,7.49,7.49,0,0,1-.87.74,5.24,5.24,0,0,0-1.27,1,.3.3,0,0,1-.22.16,2.51,2.51,0,0,0-.64.33,4.07,4.07,0,0,1-.81.39,1.63,1.63,0,0,0-.55.29c-1,.85-3.09,0-4.14-1.63a3.26,3.26,0,0,0-.37-.5,4.69,4.69,0,0,1-.59-1.68c.19-.54.81-.87,1.94-1,1.34-.19,1.4-.69.13-1.06a5.3,5.3,0,0,0-3.5.4,4.28,4.28,0,0,1-.54.34,2.32,2.32,0,0,0-1.28,3,3.61,3.61,0,0,1,.29.72c.21.82,2.33,3.18,2.86,3.18a1.36,1.36,0,0,1,.43.27,2.76,2.76,0,0,0,.8.42,1.43,1.43,0,0,1,.6.29,2.1,2.1,0,0,0,.79.28c.4.09.66.2.66.29s.32.14,1.36.14,1.35,0,1.35-.16.17-.19.51-.24a2.56,2.56,0,0,0,.89-.33,3.11,3.11,0,0,1,.64-.34,2.73,2.73,0,0,0,.6-.32c.38-.27.53-.37,1.06-.69a14.51,14.51,0,0,0,2.41-2c1.71-1.6,1.89-1.76,2-1.76a1.33,1.33,0,0,0,.37-.31c.16-.17.36-.37.45-.45l.29-.28.25-.26a3.66,3.66,0,0,0,.79-1s.11-.13.23-.17a.68.68,0,0,0,.34-.35c.06-.15.15-.27.22-.27s.18-.14.27-.31a11.48,11.48,0,0,1,1.6-1.73,8.5,8.5,0,0,0,1.14-1.34,6,6,0,0,1,.84-1c.08-.07.4-.41.71-.77s.67-.75.8-.88c.29-.3,1.79-2.07,2.05-2.42.39-.52,1.66-2,2.44-2.77.31-.31.83-.88,1.15-1.25a10.89,10.89,0,0,1,1.19-1.17,6.53,6.53,0,0,0,1.06-1.11,6.29,6.29,0,0,1,.74-.91,1.19,1.19,0,0,0,.31-.38,4,4,0,0,1,.59-.69l1.58-1.6c.55-.55,1.17-1.15,1.39-1.34s.46-.4.53-.48a8.29,8.29,0,0,1,.84-.79,2.4,2.4,0,0,0,.48-.52,58.64,58.64,0,0,1,6-5.87l.6-.36c.45-.26.66.23.4.94a4.79,4.79,0,0,1-1.91,1.64c-.75.36-1.22,1.21-.79,1.44.93.5,3.18-.73,3.56-1.94a2.08,2.08,0,0,1,.34-.57,1.15,1.15,0,0,0,.27-.51,1.82,1.82,0,0,1,.23-.61,2.19,2.19,0,0,0-.54-2.42,5.3,5.3,0,0,0-2-.53m1.75,1a2.6,2.6,0,0,1,0,2.67,1.93,1.93,0,0,0-.31.57,5.54,5.54,0,0,1-1.49,1.67,2.14,2.14,0,0,0-.43.29,1.2,1.2,0,0,1-1,.19l-.26-.09.24-.31a2.32,2.32,0,0,1,.62-.54,5.92,5.92,0,0,0,1.61-1.25l.53-.64c.76-.87-.66-1.76-1.56-1a1.76,1.76,0,0,1-.49.34,13.76,13.76,0,0,0-1.6,1.43c-.82.79-1.73,1.65-2,1.91a15.94,15.94,0,0,0-1.8,1.93.9.9,0,0,0-.22.42c0,.08-.11.21-.25.29a7.75,7.75,0,0,0-1.07,1,8.6,8.6,0,0,1-.89.83,15.61,15.61,0,0,0-1.39,1.34,32.84,32.84,0,0,0-2.37,2.61,32.72,32.72,0,0,1-2.4,2.44,6.06,6.06,0,0,0-.62.7c-.17.22-.68.8-1.14,1.28a19.84,19.84,0,0,0-1.64,1.83c-.29.39-.68.84-1.42,1.65-.32.36-.67.77-.77.91a4.38,4.38,0,0,1-.4.5l-.5.58c-.16.19-.56.64-.9,1s-.85.93-1.12,1.27-.84.94-1.25,1.34a9.84,9.84,0,0,0-1.85,2.22.5.5,0,0,1-.29.31c-.12,0-.22.12-.22.17a17.55,17.55,0,0,1-2.23,2.25c-.06,0-.19.13-.3.28s-.23.29-.3.29-.64.39-1.79,1.5a10.1,10.1,0,0,1-1.8,1.54c-.53.3-1,.61-1.41.86a4.44,4.44,0,0,1-.76.37,1.49,1.49,0,0,0-.53.28,2.31,2.31,0,0,1-.94.29,5.86,5.86,0,0,0-1,.22,1.42,1.42,0,0,1-.62,0l-1.2-.22a2.35,2.35,0,0,1-.9-.28,2.85,2.85,0,0,0-.66-.33,3.45,3.45,0,0,1-.77-.39,1,1,0,0,0-.43-.23,1.25,1.25,0,0,1-.48-.28,1.4,1.4,0,0,0-.42-.28A7.8,7.8,0,0,1,186,127.7a1.07,1.07,0,0,0-.23-.46,4.24,4.24,0,0,1-.57-2.58,4.84,4.84,0,0,1,1.3-1.2,1.18,1.18,0,0,0,.51-.3,7,7,0,0,1,3.43-.23c.48.14.17.3-.61.32-1.82,0-2.72,1.22-1.87,2.44a1.74,1.74,0,0,1,.29.57,6.93,6.93,0,0,0,1.23,1.65l.68.67.35.34H192c1.37,0,1.47,0,1.89-.29a5.46,5.46,0,0,1,.8-.44c.21-.08.37-.18.37-.24s.15-.17.34-.27a3.91,3.91,0,0,0,.54-.35c.1-.1.44-.36.75-.59s.67-.5.81-.62l.63-.56a7.61,7.61,0,0,1,.7-.58,23,23,0,0,0,2.42-2.36,1,1,0,0,1,.26-.35c.14-.14.38-.42.53-.61s1.13-1.22,2.17-2.27,1.88-2,1.88-2a1.17,1.17,0,0,1,.29-.39,1.26,1.26,0,0,0,.28-.42,1.12,1.12,0,0,1,.31-.43c.17-.17.56-.6.87-1s.8-.91,1.09-1.22a6.55,6.55,0,0,0,.68-.86,2.73,2.73,0,0,1,.37-.54c.12-.13.38-.43.56-.66s.6-.7.92-1a13.83,13.83,0,0,0,.92-1.08,9,9,0,0,1,.61-.73,2,2,0,0,0,.35-.48.29.29,0,0,1,.23-.2.39.39,0,0,0,.29-.21,13.34,13.34,0,0,1,1.63-1.85,11.22,11.22,0,0,0,.75-.91,4.93,4.93,0,0,1,.71-.73,6.94,6.94,0,0,0,.88-.86c.51-.59.73-.85,1.16-1.33l.92-1.06a17.62,17.62,0,0,1,2.83-2.66,3.3,3.3,0,0,0,.43-.34,32,32,0,0,1,3.7-3.37,11.7,11.7,0,0,0,1.38-.89,1.49,1.49,0,0,1,.58-.31,1.5,1.5,0,0,0,.57-.25c.92-.56,2.74-.56,3.31,0m-82.5.9a1.66,1.66,0,0,1-.66.3A2.8,2.8,0,0,0,148,96.09a28.55,28.55,0,0,1-3.19,3.57,16.94,16.94,0,0,0-1.38,1.47,15.31,15.31,0,0,1-1.87,2.17c-.82.87-1.51,1.64-2.41,2.7-.4.47-2.23,2.35-2.83,2.9a14.13,14.13,0,0,0-1.33,1.49,22.61,22.61,0,0,1-2.45,2.78,3.11,3.11,0,0,0-.59.71c0,.06-.1.18-.21.26a39.35,39.35,0,0,0-3,3.47.13.13,0,0,1-.14.11,24.24,24.24,0,0,0-2.79,2.76,1.34,1.34,0,0,1-.3.38l-1.16,1.25c-.46.51-1.13,1.24-1.49,1.62-1,1.07-1.32,1.46-1.32,1.61s-.1.16-.22.2a.55.55,0,0,0-.3.3,3.11,3.11,0,0,1-.34.63c-.23.34-.27.53-.27,1.33v.92l.54.42a2.48,2.48,0,0,0,2.64.09,1,1,0,0,1,.38-.25,10.94,10.94,0,0,0,1.84-2.21,6.5,6.5,0,0,1,.6-.73,1.29,1.29,0,0,0,.31-.4,1.1,1.1,0,0,1,.31-.4,5.31,5.31,0,0,0,.55-.62c.14-.17.55-.66.91-1.07.9-1.06,1.15-1.36,1.27-1.55a2.94,2.94,0,0,1,.33-.45l.92-1.13c.75-.91.77-.94,1.79-2,.68-.73.78-.83,1-1.09a13.64,13.64,0,0,0,1.32-1.5,10.62,10.62,0,0,1,1.1-1.2c.6-.62,1.23-1.29,1.39-1.51s.52-.61.79-.9.85-.91,1.28-1.4l1.13-1.24c.18-.19.49-.54.67-.78.43-.54,1.06-1.29,1.35-1.6.48-.51,1.86-2,2.16-2.36s2-2.24,2.75-3c.22-.23.6-.66.84-1l.78-.9a7.57,7.57,0,0,0,.62-.78c.16-.23.42-.58.59-.79a1.28,1.28,0,0,0,.31-.49.8.8,0,0,1,.24-.35,2.06,2.06,0,0,0,.37-.44c.07-.11.23-.36.35-.53.82-1.17-.69-2.93-1.78-2.08m1.15.43.4.34a.75.75,0,0,1-.08,1,11.06,11.06,0,0,0-.84,1.29,1.29,1.29,0,0,1-.29.35,5.9,5.9,0,0,0-.62.84,20.46,20.46,0,0,1-2.28,2.7c-.52.52-3,3.23-3.2,3.54s-.77.86-1.44,1.54-1.21,1.27-1.21,1.3a33.12,33.12,0,0,1-2.26,2.62,4.66,4.66,0,0,0-.78,1c0,.09-.15.23-.34.33s-.33.22-.33.28a12,12,0,0,1-1.17,1.32,12,12,0,0,0-1.87,2.08,2.12,2.12,0,0,1-.37.46,17.81,17.81,0,0,0-1.44,1.58,11.67,11.67,0,0,1-.87.94,15.58,15.58,0,0,0-2.68,3.2,3.09,3.09,0,0,1-.4.49l-.44.48-.95,1.12c-.44.5-.89,1-1,1.22s-.36.46-.54.66a19.32,19.32,0,0,0-1.32,1.71,5.05,5.05,0,0,1-.53.67.82.82,0,0,0-.25.39c0,.07-.19.21-.41.3a4,4,0,0,0-.73.41,1.55,1.55,0,0,1-1.59-.1,2.1,2.1,0,0,0-.46-.32c-.37-.19-.37-1.49,0-1.89a1,1,0,0,0,.25-.46.85.85,0,0,1,.26-.45c.14-.13.61-.65,1-1.14.9-1,1-1.15,2.17-2.38.47-.5,1-1,1.09-1.22a17.44,17.44,0,0,1,2.14-2.32,27.42,27.42,0,0,0,3.08-3.37c.69-.84,1.31-1.57,1.37-1.64a29.39,29.39,0,0,0,2.82-3.07,2.59,2.59,0,0,1,.36-.53c.49-.55,1.32-1.38,1.72-1.75.24-.21.82-.81,1.29-1.33.86-1,1.94-2.13,3.27-3.56a15.33,15.33,0,0,0,1.8-2.15,12.49,12.49,0,0,1,1.21-1.29c2.41-2.39,3.63-3.77,3.63-4.1s.92-1,1.22-1a1.56,1.56,0,0,0,.58-.15.8.8,0,0,1,1,0m90.44.56c-.34.29-.89.8-1.21,1.12a4.48,4.48,0,0,1-.67.6,4.65,4.65,0,0,0-.95.93,5.53,5.53,0,0,1-.53.63c-.3.32-.71.79-.93,1s-.93,1-1.58,1.67-1.58,1.64-2.08,2.19l-1.49,1.59a4.12,4.12,0,0,0-.59.67c0,.11-2.15,2.33-3.79,3.9-.24.23-.55.56-.69.73a53.51,53.51,0,0,1-4.28,4.7c-.82.84-1.49,1.55-1.49,1.58a5.85,5.85,0,0,1-.59.66,18,18,0,0,0-1.83,2.14,17.57,17.57,0,0,1-2,2.1c-.51.46-3,3-3.19,3.24s-.37.47-.48.6a1.77,1.77,0,0,0-.33.59,2.89,2.89,0,0,1-.36.67c-.18.26-.23.49-.23,1.26,0,1.3,0,1.34,1.56,1.39l1.17,0,.35-.35a1.45,1.45,0,0,1,.46-.34c.05,0,.21-.19.36-.42l.48-.76a3,3,0,0,1,.48-.55c.14-.11.26-.25.26-.3a18.83,18.83,0,0,1,1.44-1.57c.78-.81,1.72-1.79,2.07-2.18l1.86-2c.67-.7,1.26-1.36,1.32-1.46a1.65,1.65,0,0,1,.37-.39c.14-.11.26-.25.26-.3a3.35,3.35,0,0,1,.53-.66c.3-.31.69-.75.88-1l.56-.67.62-.79c.21-.28.8-.94,1.29-1.45s1.13-1.2,1.41-1.53a11.77,11.77,0,0,1,1.13-1.1,10.8,10.8,0,0,0,1.27-1.32c.36-.44.9-1.06,1.2-1.37s.9-1,1.35-1.51a9,9,0,0,1,1-1,.3.3,0,0,0,.16-.22.72.72,0,0,1,.22-.36l.44-.46c.12-.12.39-.38.61-.56a18.52,18.52,0,0,0,1.29-1.41c.5-.59,1.1-1.28,1.34-1.54s.54-.6.66-.76a17.32,17.32,0,0,1,1.69-1.94,9.92,9.92,0,0,0,1.12-1.35l.37-.65a1.59,1.59,0,0,0-.58-2c-.6-.48-.9-.44-1.63.19m1.62.38c.44.39.55,1.06.22,1.34a2.31,2.31,0,0,0-.39.55,6.65,6.65,0,0,1-1,1.19,4.66,4.66,0,0,0-.8.91.82.82,0,0,1-.25.36c-.14.14-.38.41-.54.6s-.57.66-.92,1a14.34,14.34,0,0,0-1.44,1.68A10.3,10.3,0,0,1,237,104.9,3.75,3.75,0,0,0,236,106a7.45,7.45,0,0,1-.9,1,29.57,29.57,0,0,0-2.48,2.72,15.35,15.35,0,0,1-1.11,1.23c-1.35,1.32-1.65,1.63-2.74,2.79a27.71,27.71,0,0,0-2.57,3,3.82,3.82,0,0,1-.56.67,4.89,4.89,0,0,0-.57.66,1.49,1.49,0,0,1-.29.36c-1.82,1.86-2.91,3-3.16,3.38s-.44.54-.59.7c-.32.33-2.18,2.3-3.2,3.4l-.76.81-.22.23a6.2,6.2,0,0,0-1,1.3c0,.12-.11.22-.16.22a.86.86,0,0,0-.3.2c-1.47,1.35-3.52.24-2.54-1.37a4.23,4.23,0,0,0,.36-.83c.08-.26.18-.48.23-.48s.18-.16.28-.37,1.36-1.52,2.78-2.93a52.19,52.19,0,0,0,4.27-4.61,11.93,11.93,0,0,1,.85-.9,2.9,2.9,0,0,0,.59-.73c0-.07.1-.19.23-.26a3,3,0,0,0,.59-.52c.2-.22.92-1,1.6-1.67a26.81,26.81,0,0,0,2.44-2.65,6.86,6.86,0,0,1,1.1-1.27c.9-.86,2.53-2.52,3.1-3.17,1.1-1.25,1.83-2,3.85-4.1a43.82,43.82,0,0,0,3.22-3.54l.5-.58a.9.9,0,0,0,.26-.38c0-.07.11-.18.24-.25a5.92,5.92,0,0,0,.82-.71,22.2,22.2,0,0,1,1.92-1.7.93.93,0,0,1,1.24.18M67.74,97.24c-.31,0-1.07.08-1.69.09a9.43,9.43,0,0,0-1.75.18,15.2,15.2,0,0,1-2,.33,8.21,8.21,0,0,0-1.69.33,6.35,6.35,0,0,1-1.35.28,5.25,5.25,0,0,0-1.4.3,4,4,0,0,1-.92.28,4.14,4.14,0,0,0-.9.29,7.65,7.65,0,0,1-1.18.39,4.73,4.73,0,0,0-1,.32,2.84,2.84,0,0,1-.79.23,3,3,0,0,0-.93.29,3.29,3.29,0,0,1-.85.29,2.77,2.77,0,0,0-.88.32,3.09,3.09,0,0,1-.89.33,4.08,4.08,0,0,0-1,.34,2.56,2.56,0,0,1-.86.28,3.8,3.8,0,0,0-.9.28,4.72,4.72,0,0,1-1,.35,1.67,1.67,0,0,0-.71.29,1.43,1.43,0,0,1-.65.23,3,3,0,0,0-.91.29,4.12,4.12,0,0,1-1,.34,3.43,3.43,0,0,0-.91.32,2.76,2.76,0,0,1-.76.28,1.73,1.73,0,0,0-.69.29,2.85,2.85,0,0,1-.81.34,2.69,2.69,0,0,0-.73.27,2.08,2.08,0,0,1-.67.28,4,4,0,0,0-.85.34,2.67,2.67,0,0,1-.78.28,2.15,2.15,0,0,0-.76.29,2.48,2.48,0,0,1-.77.32,2.44,2.44,0,0,0-.78.33,2.11,2.11,0,0,1-.72.3,1.91,1.91,0,0,0-.66.28,1.94,1.94,0,0,1-.65.28,2.32,2.32,0,0,0-.7.3,3.49,3.49,0,0,1-.86.38,2,2,0,0,0-.68.32,1,1,0,0,1-.53.23,1.25,1.25,0,0,0-.6.29,3.55,3.55,0,0,1-.7.45,19.18,19.18,0,0,0-1.9,1.07,9.61,9.61,0,0,1-1.07.6,2.19,2.19,0,0,0-.6.4.49.49,0,0,1-.29.18,6.94,6.94,0,0,0-1.56,1,2,2,0,0,1-.48.3c-.15.07-.28.17-.28.21a1.39,1.39,0,0,1-.42.36,10,10,0,0,0-2.57,2.76c0,.14-.11.26-.16.26a6.44,6.44,0,0,0-1,2.38,4.82,4.82,0,0,0,.39,2.68,1.31,1.31,0,0,1,.22.46,6.81,6.81,0,0,0,1.94,2.37.8.8,0,0,0,.35.21,1.79,1.79,0,0,1,.54.34,1.55,1.55,0,0,0,.62.34,1.35,1.35,0,0,1,.56.28,1.53,1.53,0,0,0,.6.28,2.06,2.06,0,0,1,.68.27,3.46,3.46,0,0,0,.86.35,3.14,3.14,0,0,1,.74.28,2.68,2.68,0,0,0,.78.29,2.8,2.8,0,0,1,.8.28,2.86,2.86,0,0,0,.84.29,6,6,0,0,1,1.13.33,7.07,7.07,0,0,0,1.46.37,7.1,7.1,0,0,1,1.25.29,6.77,6.77,0,0,0,1.33.28,3.93,3.93,0,0,1,1.08.24c.33.27,1.91.45,4.1.45a7.45,7.45,0,0,1,2.67.19,37.43,37.43,0,0,0,7.64.05,14.54,14.54,0,0,1,2.64-.25c5.54-.25,6.61-.31,6.91-.43a4.1,4.1,0,0,1,1.12-.13c.45,0,1.31-.05,1.92-.11a50,50,0,0,1,6-.35c2.83,0,3.5-.41,3.22-2.12-.18-1.12-.54-1.4-1.93-1.53a24.92,24.92,0,0,0-6.7.4,12.33,12.33,0,0,1-3,.33,11.08,11.08,0,0,0-2.6.27c-.31.13-1.31.19-5,.29a35.69,35.69,0,0,0-5.68.33c-1.13.23-1.44.22-4.73-.2-.46-.06-2-.14-3.32-.18a9,9,0,0,1-2.93-.28,4.46,4.46,0,0,0-1.12-.28,7,7,0,0,1-1.26-.28,6.16,6.16,0,0,0-1.18-.29,6.59,6.59,0,0,1-1.16-.3A7.69,7.69,0,0,0,28.3,125a3.87,3.87,0,0,1-1-.31,2.69,2.69,0,0,0-.81-.29,1.83,1.83,0,0,1-.71-.29,1.76,1.76,0,0,0-.62-.28,1.69,1.69,0,0,1-.59-.27,2.08,2.08,0,0,0-.65-.34,1,1,0,0,1-.49-.29.47.47,0,0,0-.28-.23,4.5,4.5,0,0,1-1.75-2.19,3.93,3.93,0,0,1,1.12-3,1,1,0,0,0,.31-.44c0-.07.05-.14.11-.14a1.11,1.11,0,0,0,.42-.28,5.6,5.6,0,0,1,1.41-1,1.67,1.67,0,0,0,.52-.33,1.05,1.05,0,0,1,.46-.24,1.26,1.26,0,0,0,.57-.34.92.92,0,0,1,.45-.28,1.62,1.62,0,0,0,.62-.33,1.51,1.51,0,0,1,.6-.34,1.19,1.19,0,0,0,.51-.28,1.17,1.17,0,0,1,.47-.29,1.12,1.12,0,0,0,.42-.22,3.08,3.08,0,0,1,.77-.4,2.35,2.35,0,0,0,.66-.33,1.51,1.51,0,0,1,.59-.23,1.77,1.77,0,0,0,.68-.28,3,3,0,0,1,.76-.34,3,3,0,0,0,.77-.3,6.06,6.06,0,0,1,.87-.38l1.25-.44a7.2,7.2,0,0,0,.88-.38,3.05,3.05,0,0,1,.75-.28,4.56,4.56,0,0,0,.91-.34,2.72,2.72,0,0,1,.78-.29,1.64,1.64,0,0,0,.67-.28,3,3,0,0,1,.85-.34,2,2,0,0,0,.72-.29,2.11,2.11,0,0,1,.75-.34,4.57,4.57,0,0,0,.86-.33,2.26,2.26,0,0,1,.64-.23,2.77,2.77,0,0,0,.75-.29,3.1,3.1,0,0,1,.79-.28,3,3,0,0,0,.81-.29,3.87,3.87,0,0,1,1-.34,3,3,0,0,0,.84-.28,4.37,4.37,0,0,1,.9-.33,3.32,3.32,0,0,0,.81-.32,2.21,2.21,0,0,1,.79-.28,3.53,3.53,0,0,0,1-.35,1.33,1.33,0,0,1,.57-.22,2.65,2.65,0,0,0,.78-.28,4.25,4.25,0,0,1,1-.35,1.89,1.89,0,0,0,.73-.27,3,3,0,0,1,.93-.34,3.22,3.22,0,0,0,.91-.29,5.12,5.12,0,0,1,1.18-.32,4.33,4.33,0,0,0,1.08-.31,5.07,5.07,0,0,1,1.19-.28,9.74,9.74,0,0,0,1.5-.32,7.21,7.21,0,0,1,1.18-.27,8.22,8.22,0,0,0,1.4-.36c.95-.36,3.25-.4,3.5,0a1.29,1.29,0,0,1-.07,1.35c-.34.42-.46,1-.25,1.25a4.27,4.27,0,0,0,2.57-.05,6.07,6.07,0,0,1,.73-.34,4.2,4.2,0,0,0,1.64-1.38,3.11,3.11,0,0,1,.34-.63c1.34-2-1.22-4.15-4.4-3.73m2.31.54a2.19,2.19,0,0,0,.6.28c1.1.27,1.81,1.66,1.26,2.46a1.71,1.71,0,0,0-.29.63c0,.18-.3.51-1.14,1.24a2.22,2.22,0,0,1-.79.37,1.84,1.84,0,0,0-.7.3,3.14,3.14,0,0,1-1.81.12,6,6,0,0,1,.62-1.59.89.89,0,0,0-.43-1.2,10.46,10.46,0,0,0-4.63.26,4,4,0,0,1-1.19.26,6.07,6.07,0,0,0-1.55.35,2.51,2.51,0,0,1-.86.24,5.44,5.44,0,0,0-1.66.35,3.7,3.7,0,0,1-.95.27,3.4,3.4,0,0,0-1,.34,1.56,1.56,0,0,1-.68.23A2.28,2.28,0,0,0,54,103a3.1,3.1,0,0,1-1,.34,2.47,2.47,0,0,0-.82.27,2.63,2.63,0,0,1-.85.33,7.94,7.94,0,0,0-1.12.4,2.09,2.09,0,0,1-.64.22,2.34,2.34,0,0,0-.74.29,2.49,2.49,0,0,1-.76.28,2.21,2.21,0,0,0-.77.28,4,4,0,0,1-1,.35,1.63,1.63,0,0,0-.7.27,2.23,2.23,0,0,1-.87.32,3.1,3.1,0,0,0-1,.34,2,2,0,0,1-.79.28,2.58,2.58,0,0,0-.88.35,1.53,1.53,0,0,1-.68.28c-.29,0-.83.23-.83.35a1.2,1.2,0,0,1-.53.21,2.43,2.43,0,0,0-.79.35,2.1,2.1,0,0,1-.77.28,2.27,2.27,0,0,0-.78.29,2.08,2.08,0,0,1-.84.32,2.79,2.79,0,0,0-.88.33,2.12,2.12,0,0,1-.74.29,3.92,3.92,0,0,0-.94.35,2.52,2.52,0,0,1-.71.27,1,1,0,0,0-.48.23,2.29,2.29,0,0,1-.77.33,1.27,1.27,0,0,0-.63.3,1.36,1.36,0,0,1-.67.28,2,2,0,0,0-.72.27,2,2,0,0,1-.57.3,2.05,2.05,0,0,0-.61.32,2.53,2.53,0,0,1-.62.34,1.42,1.42,0,0,0-.51.29,2,2,0,0,1-.59.33c-.26.11-.48.23-.48.28a1.67,1.67,0,0,1-.53.33,9.25,9.25,0,0,0-1.57.89,2.11,2.11,0,0,1-.52.28,11.53,11.53,0,0,0-3.22,3.47c-.42,1.1-.44,1.68-.08,2.06a1.15,1.15,0,0,1,.29.46,4,4,0,0,0,1.37,1.52c.24.13.44.27.44.33s.16.15.35.22a1.92,1.92,0,0,1,.54.29,2.82,2.82,0,0,0,.68.34,2.94,2.94,0,0,1,.67.33,2,2,0,0,0,.67.29,2.84,2.84,0,0,1,.74.29,3.46,3.46,0,0,0,.89.28,3.62,3.62,0,0,1,1,.33,3.62,3.62,0,0,0,1.15.28,3.59,3.59,0,0,1,1.14.29,3,3,0,0,0,1.23.28,4.44,4.44,0,0,1,1.45.33c.52.24.77.27,2.88.32a20.77,20.77,0,0,1,3.47.3,28.12,28.12,0,0,0,6.32.1,67.45,67.45,0,0,1,7-.37,23.12,23.12,0,0,0,3.49-.3,30.06,30.06,0,0,1,3.07-.33,8.35,8.35,0,0,0,2.59-.35c.55-.23.8-.25,3.54-.26h3l.34.39a1.61,1.61,0,0,1,0,2.11l-.36.36-3.49,0c-3.11,0-3.54.06-3.94.24s-1,.23-4.28.35a22,22,0,0,0-4.11.28c-.92.51-16.75.5-18,0a7.85,7.85,0,0,0-1.5-.32,5.93,5.93,0,0,1-1.44-.33,5,5,0,0,0-1.35-.29,3,3,0,0,1-1.37-.35,2.23,2.23,0,0,0-.85-.28,2.64,2.64,0,0,1-.83-.18l-1-.34c-.28-.09-.71-.26-1-.37a5.92,5.92,0,0,0-.83-.29,4,4,0,0,1-.89-.35,2.42,2.42,0,0,0-.83-.26.94.94,0,0,1-.56-.24,1.71,1.71,0,0,0-.64-.35,1.79,1.79,0,0,1-.62-.29,5.67,5.67,0,0,0-.57-.42l-.73-.45a1.06,1.06,0,0,1-.41-.42.47.47,0,0,0-.27-.25.51.51,0,0,1-.28-.34,2.1,2.1,0,0,0-.33-.59,1.74,1.74,0,0,1-.35-.69,3.1,3.1,0,0,0-.33-.79,3.17,3.17,0,0,1,0-2.44,5,5,0,0,0,.37-.93c.08-.26.19-.47.24-.47s.16-.14.23-.31a7.51,7.51,0,0,1,.81-1.1,8.62,8.62,0,0,1,1.52-1.5c.2-.16.51-.43.67-.59a2.47,2.47,0,0,1,.61-.42c.17-.07.31-.18.31-.25a.13.13,0,0,1,.14-.11,1.6,1.6,0,0,0,.52-.26,13,13,0,0,1,1.78-1,2.31,2.31,0,0,0,.62-.37,2.63,2.63,0,0,1,.59-.37,6.71,6.71,0,0,0,1.45-.86,1.18,1.18,0,0,1,.47-.27,1,1,0,0,0,.44-.23,2.41,2.41,0,0,1,.72-.35,2.05,2.05,0,0,0,.68-.33,2,2,0,0,1,.68-.28,1.59,1.59,0,0,0,.69-.33,1.69,1.69,0,0,1,.76-.31,1.73,1.73,0,0,0,.76-.29,2,2,0,0,1,.66-.3,2.44,2.44,0,0,0,.64-.28,2.25,2.25,0,0,1,.67-.28,2.66,2.66,0,0,0,.79-.33,2.35,2.35,0,0,1,.88-.33,2.17,2.17,0,0,0,.79-.3,2.63,2.63,0,0,1,.81-.32,3.21,3.21,0,0,0,.9-.33,1.53,1.53,0,0,1,.6-.25,2.3,2.3,0,0,0,.73-.28,2.62,2.62,0,0,1,.7-.28,3.58,3.58,0,0,0,.84-.34,3.28,3.28,0,0,1,1-.34.76.76,0,0,0,.54-.22,1.42,1.42,0,0,1,.72-.29c.73-.1.86-.14,1.13-.37a1.82,1.82,0,0,1,.81-.28,2.91,2.91,0,0,0,.93-.28,2.79,2.79,0,0,1,.87-.3,2.72,2.72,0,0,0,.86-.29,3.1,3.1,0,0,1,.79-.28,2.9,2.9,0,0,0,.81-.29,3.72,3.72,0,0,1,1-.33,2.71,2.71,0,0,0,.89-.34,1.81,1.81,0,0,1,.73-.29c1-.12,1.13-.17,1.36-.36a2,2,0,0,1,.88-.29,3.1,3.1,0,0,0,1-.28,3,3,0,0,1,.91-.3,4.48,4.48,0,0,0,1-.28,7.06,7.06,0,0,1,1.56-.32,4.12,4.12,0,0,0,1.39-.3,4.78,4.78,0,0,1,1.76-.3,11,11,0,0,0,1.86-.26,4.08,4.08,0,0,1,1.24-.17c.47,0,1.11,0,1.42-.09a4.56,4.56,0,0,1,2.31.2m169,8.65a1.06,1.06,0,0,0-.48.25,2.66,2.66,0,0,1-.4.36,3.22,3.22,0,0,0-1,3.22c.78,1.48,2.85,1.86,3.74.69l.5-.61a4.4,4.4,0,0,0,.5-2c0-.59-.75-1.53-1.18-1.53a1.51,1.51,0,0,1-.47-.16,2,2,0,0,0-1.17-.21m1.17.66a2,2,0,0,1,1,2.9l-.68.73-.47.49-.9,0c-.71,0-.92-.08-1-.24a2.12,2.12,0,0,0-.31-.39,1.86,1.86,0,0,1-.09-2.3c.88-1.16,1.16-1.36,1.74-1.26l.75.11m-90.14,4.83c-.44.24-.58.7-.53,1.81,0,.78,0,1-.13,1.07a10.13,10.13,0,0,1-2,.55,4.14,4.14,0,0,0-1.08.35,1.47,1.47,0,0,1-.5.22,22,22,0,0,0-2.66,1.26c-.2.11-.38.25-.38.31s-.18.19-.41.29a2.2,2.2,0,0,0-.59.33l-.6.53c-1,.84-1.68,1.51-1.81,1.64l-.72.75a4,4,0,0,0-.59.68,1.66,1.66,0,0,1-.31.45,7.31,7.31,0,0,0-.91,1.41c-.08.16-.2.36-.25.45-.33.52-.39.82-.39,2.2,0,1.73.22,2.24,1.31,2.94l.59.38h1.66a7.59,7.59,0,0,0,3-.34,3.19,3.19,0,0,1,.81-.21,3.35,3.35,0,0,0,1.12-.39,2.65,2.65,0,0,1,.84-.34,1.13,1.13,0,0,0,.55-.24,2.18,2.18,0,0,1,.68-.34,2.14,2.14,0,0,0,.67-.33,1,1,0,0,1,.45-.23,1.76,1.76,0,0,0,.59-.27,2.9,2.9,0,0,1,.66-.34,1.61,1.61,0,0,0,.61-.35.68.68,0,0,1,.34-.22,1.15,1.15,0,0,0,.46-.28l.9-.76a5.79,5.79,0,0,0,1.44-1.64c.1-.2.23-.36.29-.36s.16-.19.23-.42a4.18,4.18,0,0,1,.35-.77,5.73,5.73,0,0,0,.33-2.91c-.18-1.39-.16-1.48.28-1.92s.41-.85,0-.85c-.52,0-1.46-1.34-1.6-2.3a1.65,1.65,0,0,0-.28-.67,1.7,1.7,0,0,1-.3-.49,1.55,1.55,0,0,0-2.1-.65m1.5.47a1.5,1.5,0,0,1,.43.58,1.32,1.32,0,0,0,.25.5,2.36,2.36,0,0,1,.32,1,2.19,2.19,0,0,0,1.33,1.73c.42.18.41.19-.12.48s-.53.68-.25,1.57a4.54,4.54,0,0,1,0,2.77,3.87,3.87,0,0,0-.31.79c-.22.88-2.9,3.88-3.48,3.88a1.57,1.57,0,0,0-.52.28,2,2,0,0,1-.69.34.92.92,0,0,0-.44.23,1.61,1.61,0,0,1-.55.29,2.88,2.88,0,0,0-.68.34,2.15,2.15,0,0,1-.73.33,2,2,0,0,0-.63.28,2.11,2.11,0,0,1-.67.26,1.53,1.53,0,0,0-.68.34c-.13.17-.37.24-1,.3a6.26,6.26,0,0,0-1.41.32c-.84.36-3.29.36-3.67,0a1.61,1.61,0,0,0-.55-.31.82.82,0,0,1-.48-.49c-.11-.23-.27-.54-.37-.7a5,5,0,0,1,.09-2.77,2.07,2.07,0,0,0,.3-.71,1.07,1.07,0,0,1,.29-.59,1.56,1.56,0,0,0,.36-.46,4.38,4.38,0,0,1,.45-.7l.52-.67a21.11,21.11,0,0,1,3.58-3.27,9.23,9.23,0,0,0,.72-.59,1.42,1.42,0,0,1,.6-.33,1,1,0,0,0,.54-.28,1.52,1.52,0,0,1,.65-.33,2.48,2.48,0,0,0,.73-.34,1,1,0,0,1,.5-.22,2.82,2.82,0,0,0,.8-.27,5.12,5.12,0,0,1,1.25-.34c2-.22,2.57-.62,2-1.38a1.47,1.47,0,0,1,.71-2.19c.41-.12.45-.11.89.32m-64.81.88a4.14,4.14,0,0,1-1.12.24c-.81.06-1.43.23-1.43.38a1.09,1.09,0,0,1-.45.26c-1.45.56-.85,2.79.75,2.8.84,0,1.57-.19,1.72-.45a11,11,0,0,1,4.15,0,4.38,4.38,0,0,0,1.24.28,9.41,9.41,0,0,1,1.79.39,5.21,5.21,0,0,0,1.07.27,2.28,2.28,0,0,1,.77.27,5.16,5.16,0,0,0,.82.34,1.52,1.52,0,0,1,.62.36,1.89,1.89,0,0,0,.49.33c.25.08.5.7.35.86a2.94,2.94,0,0,1-1.7-.32,5.17,5.17,0,0,0-1.18-.34,6.1,6.1,0,0,1-1.2-.31,7.45,7.45,0,0,0-1.47-.29,12.46,12.46,0,0,1-1.67-.29c-1.25-.41-7-.46-7.89-.08a9.38,9.38,0,0,1-1.07.33,3.15,3.15,0,0,0-.85.31,2.63,2.63,0,0,1-.57.3,3.2,3.2,0,0,0-.56.28,3.36,3.36,0,0,1-.56.34,4.2,4.2,0,0,0-1.36,1.1,9.09,9.09,0,0,0-1.74,2.44,2.5,2.5,0,0,1-.29.56,5.83,5.83,0,0,0-.35,3.44,4,4,0,0,0,1.58,1.81,2.72,2.72,0,0,1,.71.35c.37.25.58.28,2.16.37a18.18,18.18,0,0,1,1.84.15,1.2,1.2,0,0,0,.55,0c.25-.05,1.11-.15,1.92-.22a9.69,9.69,0,0,0,1.81-.25A16.07,16.07,0,0,1,87.9,129a16.4,16.4,0,0,0,2.25-.28,14.71,14.71,0,0,1,3-.5,6.41,6.41,0,0,0,1.46-.28,25.53,25.53,0,0,1,4.69-.5c1.77-.07,2.88-.86,2.37-1.68a2.53,2.53,0,0,1-.23-.56,2.57,2.57,0,0,0-.53-.82l-.46-.5h-2a8.1,8.1,0,0,0-2.66.21,11.58,11.58,0,0,1-2,.36,11.15,11.15,0,0,0-1.8.28,8.7,8.7,0,0,1-1.39.28,7.57,7.57,0,0,0-1.55.34,3.35,3.35,0,0,1-1,.22,12.58,12.58,0,0,0-1.72.31c-2.52.58-6.9.42-7.21-.27A3,3,0,0,1,80,122.7a5.68,5.68,0,0,1,1.69-1c.22,0,.79-.2,1.28-.35a23.61,23.61,0,0,1,6.72-.11c.34.08,1.17.24,1.86.34a10.43,10.43,0,0,1,1.74.4,8.49,8.49,0,0,0,1.41.35,4.48,4.48,0,0,1,1.13.28,11.51,11.51,0,0,0,5.16.14,2.88,2.88,0,0,0,1.09-1.3c.23-.69,0-2.51-.35-2.51-.05,0-.12-.11-.16-.23a10.34,10.34,0,0,0-2.9-2.79c-.17-.07-.31-.18-.31-.24s-.23-.19-.51-.3-.5-.22-.5-.27a2.23,2.23,0,0,0-.94-.45,3.5,3.5,0,0,1-.69-.28,2.42,2.42,0,0,0-.81-.28,3,3,0,0,1-.82-.23,8.78,8.78,0,0,0-2.06-.34c-.82-.07-1.9-.19-2.38-.28a5.88,5.88,0,0,0-2.82,0m5.78.74a9.38,9.38,0,0,0,1.57.34,2.43,2.43,0,0,1,1.22.35,1.71,1.71,0,0,0,.78.33,2,2,0,0,1,.76.31,1.6,1.6,0,0,0,.52.3,1.46,1.46,0,0,1,.5.28,5.25,5.25,0,0,0,.49.33,14.21,14.21,0,0,1,2.8,2.65c.09.19.26.52.38.73a1.85,1.85,0,0,1-.39,2.35l-.62.64H98.79a4.93,4.93,0,0,1-2.36-.26,3.07,3.07,0,0,0-1-.25,5.89,5.89,0,0,1-1.35-.34,6.38,6.38,0,0,0-1.3-.34,3.61,3.61,0,0,1-.94-.22c-1.4-.54-8.63-.63-9.68-.13a4.35,4.35,0,0,1-.91.32,1.26,1.26,0,0,0-.65.33.84.84,0,0,1-.4.27c-.52,0-1.84,2.24-1.84,3.13a1.51,1.51,0,0,0,.93,1.27c1,.27,7.23.11,7.74-.21a5.67,5.67,0,0,1,1.5-.32,5.17,5.17,0,0,0,1.5-.33,4.31,4.31,0,0,1,1.54-.29,12.92,12.92,0,0,0,1.82-.27A14,14,0,0,1,95,124.7a11.7,11.7,0,0,0,1.57-.28,10.29,10.29,0,0,1,3.5,0,2,2,0,0,1,1.17,1.71c0,.78.09.75-2.41.85a11.57,11.57,0,0,0-2.55.25,5.26,5.26,0,0,1-1.18.24c-.43,0-1.19.18-1.69.29a17.87,17.87,0,0,1-2.16.32,3.88,3.88,0,0,0-1.64.34c-.31.19-.67.24-2.39.32a6.58,6.58,0,0,0-2.42.32c-.66.36-6.75.33-7.09,0a.86.86,0,0,0-.53-.26c-.38,0-1.67-1.32-1.77-1.81-.18-.9,0-2.8.28-2.8,0,0,.14-.19.22-.43a7,7,0,0,1,1-1.79,1.93,1.93,0,0,0,.31-.5,3.81,3.81,0,0,1,1.13-1.09c.15-.08.51-.29.79-.47a6.19,6.19,0,0,1,.9-.51l1-.45a2.6,2.6,0,0,1,1-.28,2,2,0,0,0,.84-.25,13.57,13.57,0,0,1,4.75-.2,25.85,25.85,0,0,0,3.18.44,11.87,11.87,0,0,1,1.64.28,9.75,9.75,0,0,0,1.4.29,3.64,3.64,0,0,1,1.1.29,4.23,4.23,0,0,0,1.06.34,3.86,3.86,0,0,1,1.05.34c.92.6,1.58-.29.86-1.16a3.57,3.57,0,0,0-1.5-1.16,1.05,1.05,0,0,1-.54-.27,1.9,1.9,0,0,0-1-.34,2.53,2.53,0,0,1-.93-.3,3.25,3.25,0,0,0-1.21-.32,9.46,9.46,0,0,1-1.61-.34,5.34,5.34,0,0,0-1.78-.24c-.6,0-1.35,0-1.66-.09a3.22,3.22,0,0,0-2,.43c-1,.61-2.33.12-2.33-.85,0-.47.55-1.17.91-1.17a1.17,1.17,0,0,0,.51-.25c.59-.47,6.5-.53,7.81-.08m170.65.34a8.47,8.47,0,0,0-2.09.7,4.22,4.22,0,0,1-.83.35,2.49,2.49,0,0,0-.72.32,2.5,2.5,0,0,1-.7.3,2.29,2.29,0,0,0-.67.29,2.17,2.17,0,0,1-.62.27,3.16,3.16,0,0,0-.79.35,1.38,1.38,0,0,1-.52.22,1.81,1.81,0,0,0-.58.28,2.93,2.93,0,0,1-.73.34,2.23,2.23,0,0,0-.71.35,1.43,1.43,0,0,1-.56.27,1.24,1.24,0,0,0-.51.25,8.08,8.08,0,0,1-1.51.89,2.57,2.57,0,0,0-.62.39,1.56,1.56,0,0,1-.57.28,2.85,2.85,0,0,0-.7.34,1.94,1.94,0,0,1-.62.28,1.73,1.73,0,0,0-.63.29,1.8,1.8,0,0,1-.66.28c-.25,0-.42.15-.45.28-.09.34-.23.25-.17-.1a1.24,1.24,0,0,1,.3-.55c.26-.28.29-.3,1.19-1.2a4.72,4.72,0,0,0,.8-1,2.31,2.31,0,0,1,.34-.56,1.26,1.26,0,0,0,.26-.5.87.87,0,0,1,.25-.41c1.13-.83-.65-2.64-2.28-2.32a6,6,0,0,0-2.37.87c-.71.49-.75.65-.18.91l.46.21c.08,0-.41.69-.94,1.25a10,10,0,0,0-1.25,1.43,4,4,0,0,1-.44.58,11.62,11.62,0,0,0-1.07,1.34c-.15.23-.45.61-.65.85a1.68,1.68,0,0,0-.36.54c0,.06-.1.15-.22.19a.5.5,0,0,0-.29.28.47.47,0,0,1-.29.28c-.12,0-.22.12-.22.17a4.27,4.27,0,0,1-1,1,4.44,4.44,0,0,0-.55.54l-.67.72a6.54,6.54,0,0,0-.75,1.82c-.34,1.24,1.55,1.91,3.45,1.22a4.39,4.39,0,0,1,.91-.24,3.57,3.57,0,0,0,.92-.32l1-.51,1.52-.8c.62-.34,1.26-.67,1.41-.74s.41-.2.56-.29l.77-.38a5.81,5.81,0,0,0,.78-.45,1,1,0,0,1,.48-.23.64.64,0,0,0,.38-.21,1.63,1.63,0,0,1,.62-.33,1.54,1.54,0,0,0,.57-.3,1.45,1.45,0,0,1,.55-.29,2.13,2.13,0,0,0,.64-.33,2,2,0,0,1,.64-.33,1.22,1.22,0,0,0,.49-.25,2.57,2.57,0,0,1,.67-.37,2.6,2.6,0,0,0,.67-.39.36.36,0,0,1,.28-.13,1.48,1.48,0,0,0,.61-.28,2.7,2.7,0,0,1,.69-.34.91.91,0,0,0,.41-.24,2.86,2.86,0,0,1,.71-.44c.32-.15.65-.32.74-.38s.35-.19.56-.29a10.79,10.79,0,0,0,1.47-.8,3.1,3.1,0,0,1,.7-.33A.93.93,0,0,0,261,119c.29-.35.59-.19.51.27a8.17,8.17,0,0,1-.45,2,6.29,6.29,0,0,0-.29,1,5.65,5.65,0,0,1-.34,1.07,3.56,3.56,0,0,0-.28.79,2.61,2.61,0,0,1-.33.78c-.13.22-.3.5-.38.62l-.36.57a2.6,2.6,0,0,0,0,2.65c.45.53,2.36.4,3.14-.22a1.21,1.21,0,0,1,.44-.24,1.59,1.59,0,0,0,.55-.31l.81-.59.78-.56c.21-.16.54-.38.75-.51l.61-.39c.12-.09.4-.27.6-.4a8.2,8.2,0,0,0,.77-.53,1.58,1.58,0,0,1,.54-.31.64.64,0,0,0,.32-.21,2.28,2.28,0,0,1,.64-.41c.25-.11.45-.24.45-.29s.21-.19.48-.31a2,2,0,0,0,.63-.4.49.49,0,0,1,.3-.18,1.16,1.16,0,0,0,.46-.26,3,3,0,0,1,.68-.41.94.94,0,0,0,.42-.29.59.59,0,0,1,.39-.22,1.24,1.24,0,0,0,.52-.28,1.68,1.68,0,0,1,.54-.35,2.54,2.54,0,0,0,.59-.34,2.24,2.24,0,0,1,.64-.32,1.2,1.2,0,0,0,.51-.28,1.28,1.28,0,0,1,.54-.29,3.26,3.26,0,0,0,.7-.34,1.93,1.93,0,0,1,.75-.27,2.09,2.09,0,0,0,.76-.28,5.52,5.52,0,0,1,2.92-.34,2.13,2.13,0,0,1,1.85,1.93,10.52,10.52,0,0,1-.32,3.38,3.57,3.57,0,0,0-.29,1,4.32,4.32,0,0,1-.35,1.07,3.54,3.54,0,0,0-.29.81,3.42,3.42,0,0,1-.23.76c-.73,1.44,1.24,2.7,2.62,1.67a4.88,4.88,0,0,0,1.56-1.81,3.25,3.25,0,0,1,.28-.62,4.17,4.17,0,0,0,.34-1,5.76,5.76,0,0,1,.32-1.07,21.89,21.89,0,0,0,0-6,4.36,4.36,0,0,1-.31-1,3.2,3.2,0,0,0-.33-1,1.87,1.87,0,0,1-.29-.53c-.37-1.15-3.09-2.11-4.91-1.72l-1.22.23a4.85,4.85,0,0,0-1.17.38,2.76,2.76,0,0,1-.74.29,3.74,3.74,0,0,0-.86.34,3.6,3.6,0,0,1-.86.34,1.07,1.07,0,0,0-.46.21,2.48,2.48,0,0,1-.73.34,1.59,1.59,0,0,0-.6.29,1.33,1.33,0,0,1-.61.29,2.22,2.22,0,0,0-.69.33,2.24,2.24,0,0,1-.64.34,1.27,1.27,0,0,0-.49.24,1.6,1.6,0,0,1-.54.32,2,2,0,0,0-.62.38.55.55,0,0,1-.29.19,1.16,1.16,0,0,0-.45.24,14.09,14.09,0,0,1-2.2,1.23,9.89,9.89,0,0,0-1.28.74,1,1,0,0,1-.46.26.68.68,0,0,0-.34.23c-.44.48-.57-.23-.18-1a5.5,5.5,0,0,0,.34-1.15,4.62,4.62,0,0,1,.32-1.07,3.81,3.81,0,0,0,.19-1.74V115.3l-.37-.54-.38-.53h-1a7.44,7.44,0,0,0-1.37.11m-92.5.2a2.74,2.74,0,0,1-.68.18,8.89,8.89,0,0,0-3.44,1.8,10.27,10.27,0,0,0-2,2.16.5.5,0,0,1-.21.31.92.92,0,0,0-.28.48,10.07,10.07,0,0,1-.41,1,2.72,2.72,0,0,0-.27.8,4.8,4.8,0,0,1-.28,1,4.11,4.11,0,0,0-.28,1,1.5,1.5,0,0,1-.23.65,3.48,3.48,0,0,0-.35.78,2.43,2.43,0,0,1-.39.77,1.18,1.18,0,0,0-.27.47c0,.07-.13.2-.29.27a.72.72,0,0,0-.34.29c-.06.15-.1.15-.31,0a3,3,0,0,0-.8-.28,2.56,2.56,0,0,1-.88-.4,1.21,1.21,0,0,0-.44-.28,1.2,1.2,0,0,1-.43-.31c-1.41-1.39-1.4-1.38-1.81-1.38-.68,0-1.42,1.06-1.27,1.82a16.19,16.19,0,0,0,3.19,3.3c.22.1.55.27.73.37a6.15,6.15,0,0,0,3.82-.18,4,4,0,0,1,.79-.35,5.83,5.83,0,0,0,1.93-2.43,5.67,5.67,0,0,1,.29-.75,5,5,0,0,0,.33-1.3,6.45,6.45,0,0,1,.33-1.32,4.48,4.48,0,0,0,.28-1,3.19,3.19,0,0,1,.28-.9,5.17,5.17,0,0,0,.34-.71,6.58,6.58,0,0,1,1.57-1.71,2,2,0,0,0,.51-.34,1.91,1.91,0,0,1,.55-.33,2.06,2.06,0,0,0,.56-.31,1.77,1.77,0,0,1,1.32-.31c1.11,0,1.22.09,1,.76-.41,1.08-.16,1.77.66,1.77,2.21,0,3-3.12,1.16-4.71-.68-.59-3.28-1.06-3.92-.71m94.74.29a2.58,2.58,0,0,1,.52,1.58,16,16,0,0,1-.68,3.53,3.93,3.93,0,0,0-.28,1,2.45,2.45,0,0,1-.21.77.75.75,0,0,0-.09.51c0,.33.17.42.3.22a.44.44,0,0,1,.33-.12c.24,0,.59-.21,1.54-1a1.66,1.66,0,0,1,.71-.37.74.74,0,0,0,.46-.22,1.64,1.64,0,0,1,.6-.35,1.76,1.76,0,0,0,.6-.3,8.77,8.77,0,0,1,1.33-.78,5.16,5.16,0,0,0,.72-.45,1,1,0,0,1,.47-.26,1.18,1.18,0,0,0,.47-.27,2.85,2.85,0,0,1,.73-.4,1.4,1.4,0,0,0,.54-.29,1.1,1.1,0,0,1,.51-.23,2.14,2.14,0,0,0,.74-.34,1.4,1.4,0,0,1,.57-.27c.25,0,.77-.24.77-.35a1.21,1.21,0,0,1,.54-.21,2,2,0,0,0,.7-.29,2.66,2.66,0,0,1,.81-.32,3.87,3.87,0,0,0,1-.39,12.7,12.7,0,0,1,4.2-.27l.84,0,.69.64a3.72,3.72,0,0,1,.78.93,2.78,2.78,0,0,0,.28.62,4.32,4.32,0,0,1,.33,1.17,4.41,4.41,0,0,0,.26,1.07,12.88,12.88,0,0,1,0,4.43,9.38,9.38,0,0,0-.28,1.33,3.83,3.83,0,0,1-.35,1.12,2.61,2.61,0,0,0-.29.73,6.34,6.34,0,0,1-1.72,2,1.48,1.48,0,0,1-1.51,0,3,3,0,0,1,.14-2.7,1,1,0,0,0,.27-.63,3.51,3.51,0,0,1,.29-1,3.77,3.77,0,0,0,.28-1,8.4,8.4,0,0,1,.18-1.19c.43-2.09-.24-3.76-1.64-4.12a2.59,2.59,0,0,1-.73-.28,1.26,1.26,0,0,0-1.25,0,4,4,0,0,1-1,.28,4,4,0,0,0-1.07.31,4.56,4.56,0,0,1-.78.3,1.71,1.71,0,0,0-.61.28,3.17,3.17,0,0,1-.69.34.91.91,0,0,0-.49.29.62.62,0,0,1-.39.22,1.86,1.86,0,0,0-.64.33,1.83,1.83,0,0,1-.61.33,1.74,1.74,0,0,0-.61.35,1.1,1.1,0,0,1-.42.29,6.48,6.48,0,0,0-1.42.86,4.14,4.14,0,0,1-.62.35,2.4,2.4,0,0,0-.53.32,2.69,2.69,0,0,1-.53.36l-.76.43a3,3,0,0,0-.65.48.69.69,0,0,1-.41.23.52.52,0,0,0-.34.18,2.19,2.19,0,0,1-.58.4c-.23.12-.43.27-.43.33s-.17.19-.38.28a5.6,5.6,0,0,0-1.41.91c-.1.09-.56.41-1,.72a6.1,6.1,0,0,0-.93.67.5.5,0,0,1-.35.12.85.85,0,0,0-.51.23,2.56,2.56,0,0,1-2.29.3,2.67,2.67,0,0,1,0-2.28,5.61,5.61,0,0,0,1-1.71,4.08,4.08,0,0,1,.32-.74,2.27,2.27,0,0,0,.25-.82,2.18,2.18,0,0,1,.27-.85,3.34,3.34,0,0,0,.33-1.22,3.34,3.34,0,0,1,.33-1.22c.83-1.18-.12-1.85-1.4-1a1.85,1.85,0,0,1-.56.28.67.67,0,0,0-.33.22,1.19,1.19,0,0,1-.53.29,1.18,1.18,0,0,0-.56.33,1.25,1.25,0,0,1-.67.33.82.82,0,0,0-.55.28,1,1,0,0,1-.6.33,1.7,1.7,0,0,0-.7.36.68.68,0,0,1-.39.22,1.62,1.62,0,0,0-.62.34,1.52,1.52,0,0,1-.68.34.58.58,0,0,0-.4.18,2.2,2.2,0,0,1-.61.4,5.78,5.78,0,0,0-.62.31c-.09.06-.62.32-1.18.58s-1.09.54-1.18.61a2.51,2.51,0,0,1-.57.28,1.45,1.45,0,0,0-.5.29,1.61,1.61,0,0,1-.53.26,1.79,1.79,0,0,0-.6.35,1.12,1.12,0,0,1-.51.29,1.63,1.63,0,0,0-.61.34,1.07,1.07,0,0,1-.58.28.85.85,0,0,0-.51.23,1.71,1.71,0,0,1-.64.35,2.33,2.33,0,0,0-.73.39,1.23,1.23,0,0,1-.49.26,1.67,1.67,0,0,0-.58.29,1.65,1.65,0,0,1-.66.28,1.19,1.19,0,0,0-.58.27,1.77,1.77,0,0,1-1.1.36,5,5,0,0,0-1.16.23c-1.1.44-2.12,0-2.06-.93.07-1.16.13-1.25,2.16-3.31,1.05-1.07,2.13-2.25,2.39-2.62s.59-.8.73-1a1,1,0,0,0,.26-.43.32.32,0,0,1,.16-.24,8.85,8.85,0,0,0,.91-1c.41-.48.95-1.06,1.2-1.29.85-.79.93-1.21.31-1.59l-.36-.21.27-.14a2.8,2.8,0,0,0,.49-.33c.3-.26.88-.36,2.18-.36h1.08l.36.42.36.43-.2.34a4.38,4.38,0,0,0-.34.76c-.07.23-.18.42-.24.42s-.22.23-.34.51a7.57,7.57,0,0,1-1.32,1.63c-1.65,1.71-1.69,1.77-1.48,2.32.1.27.14.29.31.14a3.58,3.58,0,0,1,.62-.35c.23-.1.42-.23.42-.29s.16-.13.35-.17a2,2,0,0,0,.71-.34,2.2,2.2,0,0,1,.71-.34,2.06,2.06,0,0,0,.62-.28,2.4,2.4,0,0,1,.68-.34,1.4,1.4,0,0,0,.49-.25,1.7,1.7,0,0,1,.53-.32,2,2,0,0,0,.62-.38.54.54,0,0,1,.3-.19,2.35,2.35,0,0,0,.63-.33,1.94,1.94,0,0,1,.67-.34,1.33,1.33,0,0,0,.54-.27,2.23,2.23,0,0,1,.74-.34,1.23,1.23,0,0,0,.57-.29,1.25,1.25,0,0,1,.61-.3,2.12,2.12,0,0,0,.69-.27,2.8,2.8,0,0,1,.79-.33,2.33,2.33,0,0,0,.68-.3,2.79,2.79,0,0,1,.75-.32,2,2,0,0,0,.69-.33,1.24,1.24,0,0,1,.55-.23,1.72,1.72,0,0,0,.71-.33,1.81,1.81,0,0,1,1.14-.32,4.74,4.74,0,0,0,1.22-.24,1.54,1.54,0,0,1,1.62.09M112.5,115a8.15,8.15,0,0,1-1.15.39,4.65,4.65,0,0,0-1,.32,4.33,4.33,0,0,1-.85.3,1.89,1.89,0,0,0-.66.29.9.9,0,0,1-.5.22,2.34,2.34,0,0,0-.74.34,1.47,1.47,0,0,1-.51.28c-.28,0-1.15,1-1.09,1.22a.72.72,0,0,0,.91.53l1.27-.17a5.45,5.45,0,0,0,2-.48,1.83,1.83,0,0,1,1.07-.18l.66,0v.65a1.7,1.7,0,0,1-.18.85,2.26,2.26,0,0,0-.32.59,3.36,3.36,0,0,1-.41.71,1.27,1.27,0,0,0-.26.39c0,.11-2.23,2.39-3.66,3.76-1.71,1.63-1.75,1.68-1.75,2.78,0,.59,0,.83.18.94s.31.27.46.42a2.3,2.3,0,0,0,2.21,0,1.69,1.69,0,0,1,.54-.24,9.65,9.65,0,0,0,2.35-2.78.27.27,0,0,1,.17-.22,1.15,1.15,0,0,0,.39-.42,23.77,23.77,0,0,1,3.08-3.56,3.7,3.7,0,0,0,.64-.79c0-.06.08-.11.16-.11a.75.75,0,0,0,.39-.29c.12-.15.26-.28.31-.28a1.24,1.24,0,0,0,.38-.28,6.23,6.23,0,0,1,1.46-1.12.48.48,0,0,0,.27-.23.29.29,0,0,1,.22-.17,1.64,1.64,0,0,0,.59-.34,1.65,1.65,0,0,1,.6-.34,1.91,1.91,0,0,0,.63-.28,1.93,1.93,0,0,1,.71-.28,4.15,4.15,0,0,0,.9-.22,4.58,4.58,0,0,1,1.32-.23c1.27,0,1.63-.2,1.63-.91,0-1.11-1.44-1.62-3.32-1.17a12.84,12.84,0,0,0-2.54.76,3.61,3.61,0,0,1-.84.3,2.63,2.63,0,0,0-.73.28,3.24,3.24,0,0,1-.7.34,2.08,2.08,0,0,0-.6.3c-.15.24-.26.06-.33-.55-.16-1.4-1.89-2.09-3.43-1.37m123.72.2c-1,.89-5.12,4.92-6,5.88-.31.34-1.46,1.54-2.55,2.67-2.68,2.78-2.54,2.56-2.54,3.78v1l.54.51c.59.56,1.71.69,2,.25a1.7,1.7,0,0,1,.52-.38,20.31,20.31,0,0,0,3-2.93c.8-.86,1.24-1.36,2.21-2.54l.63-.73a6.61,6.61,0,0,0,1-1.24.76.76,0,0,1,.23-.32c.3-.32,1.21-1.22,1.38-1.37,1.55-1.4,2.05-2.8,1.48-4.09-.47-1-1.16-1.21-2-.48m-112.07.28c.85.87.69,1-1.05,1.13a3.14,3.14,0,0,0-1.4.28,2.79,2.79,0,0,1-.87.3,2.24,2.24,0,0,0-.83.35,1.11,1.11,0,0,1-.59.27.87.87,0,0,0-.52.28.76.76,0,0,1-.37.28,19.13,19.13,0,0,0-3.25,2.58c-.07.08-.35.36-.62.62a7.19,7.19,0,0,0-.62.61l-1.5,1.64a22.43,22.43,0,0,0-1.41,1.85,6.56,6.56,0,0,1-.57.71,1.56,1.56,0,0,0-.31.41,1.29,1.29,0,0,1-.28.41,1.25,1.25,0,0,0-.28.48c0,.08-.12.23-.28.33a1,1,0,0,0-.34.39c0,.14-.22.24-.48.28a8.23,8.23,0,0,0-.92.23c-.67.22-1,.2-1.33-.06a1,1,0,0,0-.42-.23c-.14,0-.28-.57-.28-1.11a3.37,3.37,0,0,1,1.06-1.47c1-.86,4.45-4.42,4.45-4.55a.63.63,0,0,1,.23-.35,1.29,1.29,0,0,0,.29-.44,1.66,1.66,0,0,1,.31-.51c.2-.21.25-.43.28-1.26l0-1-.32-.13a5.79,5.79,0,0,0-2.7.3,7.33,7.33,0,0,1-2.47.32l-.34-.1c-.25-.08.54-.81,1-.9a1.63,1.63,0,0,0,.59-.29,1.93,1.93,0,0,1,.6-.28,3.67,3.67,0,0,0,.78-.33,3.28,3.28,0,0,1,.88-.33,4,4,0,0,0,.86-.3,3.71,3.71,0,0,1,1-.32,2.38,2.38,0,0,0,.82-.27,1.88,1.88,0,0,1,2,.16c.58.46.61.52.59,1.15,0,.81.61,1,1.37.47a1.39,1.39,0,0,1,.55-.28,2,2,0,0,0,.63-.28,1.9,1.9,0,0,1,.72-.28,3,3,0,0,0,.86-.28,4.59,4.59,0,0,1,1.25-.36,4.15,4.15,0,0,0,1-.25,2,2,0,0,1,1.34-.29,1.21,1.21,0,0,1,.86.42m49.79-.23a5.36,5.36,0,0,0,.6.44,2.47,2.47,0,0,1,.63,2.13,1.28,1.28,0,0,0-.18.62c0,.27-.1.43-.45.71-.78.63-1.42.57-1.37-.12,0-.21,0-.68.05-1l0-.68-.67-.2a1.62,1.62,0,0,0-1.07-.1l-.86.23c-.26.07-.5.19-.53.28s-.22.19-.41.23a1.83,1.83,0,0,0-.62.32c-.15.14-.52.45-.84.7a2.49,2.49,0,0,0-.57.53.94.94,0,0,1-.28.33.82.82,0,0,0-.28.38,1.06,1.06,0,0,1-.24.43,3.17,3.17,0,0,0-.39,1.05,3,3,0,0,1-.34.95,2.71,2.71,0,0,0-.29,1.13,6.4,6.4,0,0,1-.33,1.41,2.35,2.35,0,0,0-.22.74,1.32,1.32,0,0,1-.16.54c-.09.15-.26.48-.38.73a4.28,4.28,0,0,1-1.83,1.71,2,2,0,0,0-.7.3,4,4,0,0,1-3.32-.1,12,12,0,0,1-3.33-3.12l-.2-.39.32-.52c.42-.7.7-.7,1.38,0a2.66,2.66,0,0,0,.59.51,1,1,0,0,1,.34.23,3.76,3.76,0,0,0,1.34.89,2.59,2.59,0,0,1,.73.28,2.34,2.34,0,0,0,.71.28,5.4,5.4,0,0,0,1.7-1.76,4.24,4.24,0,0,1,.28-.66,2.5,2.5,0,0,0,.28-.79,2.75,2.75,0,0,1,.27-.78,5.05,5.05,0,0,0,.34-1.3,2,2,0,0,1,.29-1,2.42,2.42,0,0,0,.34-.81c.07-.33.18-.59.24-.59s.18-.17.27-.37a11.36,11.36,0,0,1,2.87-2.83,6.25,6.25,0,0,0,.66-.38,1.5,1.5,0,0,1,.57-.25,1.52,1.52,0,0,0,.57-.28c.57-.42,4-.44,4.47,0m63.63.14c.93,1.18.51,2.41-1.55,4.56-.65.68-1.49,1.61-1.86,2.08l-.93,1.16c-.48.61-.84,1-2.31,2.56-2.18,2.3-2.9,3-3.16,3a1,1,0,0,0-.37.24c-.52.49-1.09.3-1.64-.57-.87-1.37-.64-1.67,7.94-10.17,3.34-3.3,3.45-3.38,3.88-2.84M149.48,118a1.34,1.34,0,0,0-.29.22,2.11,2.11,0,0,1-.79.21,6.44,6.44,0,0,0-2.46,1c0,.06-.12.13-.26.17a5.06,5.06,0,0,0-1.46,1,1.31,1.31,0,0,1-.46.31.9.9,0,0,0-.34.23c-.13.13-.62.53-1.09.9-2,1.58-2.3,1.88-2.65,2.72l-.3.74.46.49.47.49,1,0a2.62,2.62,0,0,0,1.32-.24,2.76,2.76,0,0,1,.92-.3,3.81,3.81,0,0,0,.95-.28l1.27-.63a5.46,5.46,0,0,0,1.06-.63.6.6,0,0,1,.33-.2,12.56,12.56,0,0,0,2.83-2.56,9.51,9.51,0,0,0,.88-2.81c.11-.81-.6-1.23-1.36-.8m.76.51a4.69,4.69,0,0,1-.47,2.54,2.34,2.34,0,0,0-.34.63c0,.06-.13.2-.28.3s-.29.25-.29.34-.11.21-.25.28a3.08,3.08,0,0,0-.48.35,4.71,4.71,0,0,1-1.16.88,1.27,1.27,0,0,0-.43.26,4.31,4.31,0,0,1-.8.46c-.26.12-.48.25-.48.3a1.2,1.2,0,0,1-.53.21,3.12,3.12,0,0,0-.79.3,9.34,9.34,0,0,1-3.38.62c-.71-.29-.7-1.31,0-2a6.15,6.15,0,0,1,1.22-1,3,3,0,0,0,.57-.4c.27-.22.61-.49.76-.59s.39-.33.56-.5a1,1,0,0,1,.42-.31.73.73,0,0,0,.34-.24,2.77,2.77,0,0,1,.63-.45c.24-.12.43-.26.43-.31s.22-.18.49-.29a2,2,0,0,0,.63-.34,1.06,1.06,0,0,1,.49-.24,4.79,4.79,0,0,0,.81-.27,5.5,5.5,0,0,1,1.1-.34,1.37,1.37,0,0,0,.72-.29c.11-.29.47-.19.51.15"/></g></svg>